<?xml version="1.0" encoding="UTF-8" standalone="no"?>
<svg
   xmlns:dc="http://purl.org/dc/elements/1.1/"
   xmlns:cc="http://creativecommons.org/ns#"
   xmlns:rdf="http://www.w3.org/1999/02/22-rdf-syntax-ns#"
   xmlns:svg="http://www.w3.org/2000/svg"
   xmlns="http://www.w3.org/2000/svg"
   xmlns:xlink="http://www.w3.org/1999/xlink"
   xmlns:sodipodi="http://sodipodi.sourceforge.net/DTD/sodipodi-0.dtd"
   xmlns:inkscape="http://www.inkscape.org/namespaces/inkscape"
   width="390"
   height="407"
   viewBox="0 0 390 407"
   fill="none"
   version="1.1"
   id="svg201"
   sodipodi:docname="computational-thinker.svg"
   inkscape:version="1.0.2-2 (e86c870879, 2021-01-15)">
   <animateMotion xlink:href="#g347" dur="1s" path="M0,0 L-133,-100" fill="freeze"/>
   <animateTransform xlink:href="#g347" attributeName="transform" type="scale" values="0; 12;" dur="1s" fill="freeze" additive="sum" />
   <animateMotion xlink:href="#g172" dur="1s" path="M0,0 L53,-100" fill="freeze"/>
   <animateTransform xlink:href="#g172" attributeName="transform" type="scale" values="0; 14;" dur="1s" fill="freeze" additive="sum" />
   
   <animateMotion xlink:href="#g347" dur="1s" begin="1s" path="M-133,-100 v100 v-120 v20" repeatCount="indefinite" />
   <animateMotion xlink:href="#g172" dur="1s" begin="1.5s" path="M53,-100 v100 v-120 v20" repeatCount="indefinite" />
   
  <metadata
     id="metadata207">
    <rdf:RDF>
      <cc:Work
         rdf:about="">
        <dc:format>image/svg+xml</dc:format>
        <dc:type
           rdf:resource="http://purl.org/dc/dcmitype/StillImage" />
      </cc:Work>
    </rdf:RDF>
  </metadata>
  <defs
     id="defs205">
    <rect
       x="32.075306"
       y="27.085814"
       width="299.36953"
       height="76.980736"
       id="rect312" />
  </defs>
  <sodipodi:namedview
     pagecolor="#ffffff"
     bordercolor="#666666"
     borderopacity="1"
     objecttolerance="10"
     gridtolerance="10"
     guidetolerance="10"
     inkscape:pageopacity="0"
     inkscape:pageshadow="2"
     inkscape:window-width="1366"
     inkscape:window-height="741"
     id="namedview203"
     showgrid="false"
     inkscape:zoom="1.4029484"
     inkscape:cx="198.76884"
     inkscape:cy="380.3625"
     inkscape:window-x="-9"
     inkscape:window-y="-9"
     inkscape:window-maximized="1"
     inkscape:current-layer="svg201"
     inkscape:document-rotation="0"
     showguides="true"
     inkscape:guide-bbox="true">
    <sodipodi:guide
       position="33.500876,227.37828"
       orientation="1,0"
       id="guide91" />
  </sodipodi:namedview>
  <mask
     id="path-1-inside-1"
     fill="white">
    <path
       d="M27.7705 150.683H23.3788C23.0756 150.683 22.8298 150.929 22.8298 151.232C22.8298 151.536 23.0756 151.781 23.3788 151.781H27.7705C28.0733 151.781 28.319 151.536 28.319 151.232C28.319 150.929 28.0733 150.683 27.7705 150.683ZM18.9175 150.949C17.4134 151.182 15.9586 151.566 14.5691 152.083C14.2848 152.189 14.1406 152.505 14.2464 152.789C14.3521 153.073 14.6682 153.218 14.9524 153.112C16.2731 152.621 17.656 152.255 19.0859 152.033C19.3856 151.988 19.5909 151.707 19.5442 151.407C19.4976 151.108 19.2173 150.903 18.9175 150.949ZM10.5374 154.069C9.2611 154.866 8.07066 155.789 6.98402 156.819C6.76397 157.028 6.75461 157.375 6.96342 157.595C7.17183 157.815 7.51938 157.824 7.73943 157.615C8.77322 156.636 9.90534 155.758 11.1191 154.999C11.3761 154.839 11.4546 154.501 11.294 154.243C11.133 153.986 10.7944 153.907 10.5374 154.069ZM4.04837 160.219C3.19074 161.442 2.45245 162.753 1.84941 164.138C1.72849 164.417 1.85568 164.74 2.13406 164.86C2.41194 164.982 2.73541 164.854 2.85633 164.576C3.42901 163.26 4.13157 162.013 4.9468 160.85C5.12097 160.603 5.06115 160.26 4.81303 160.086C4.56461 159.912 4.22254 159.972 4.04837 160.219ZM0.482109 168.419C0.177655 169.862 0.0124405 171.356 0.00079578 172.885C-0.00159287 173.188 0.242249 173.436 0.545509 173.439C0.848668 173.441 1.09639 173.197 1.09868 172.893C1.10963 171.437 1.26708 170.017 1.55631 168.645C1.61891 168.349 1.42911 168.057 1.13252 167.995C0.835928 167.933 0.544712 168.122 0.482109 168.419ZM0 177.281V181.673C0 181.975 0.245732 182.221 0.548991 182.221C0.85225 182.221 1.09788 181.975 1.09788 181.673V177.281C1.09788 176.978 0.85225 176.732 0.548991 176.732C0.245732 176.732 0 176.978 0 177.281ZM0 186.064V190.456C0 190.758 0.245732 191.004 0.548991 191.004C0.85225 191.004 1.09788 190.758 1.09788 190.456V186.064C1.09788 185.761 0.85225 185.515 0.548991 185.515C0.245732 185.515 0 185.761 0 186.064ZM0 194.847V199.239C0 199.542 0.245732 199.788 0.548991 199.788C0.85225 199.788 1.09788 199.542 1.09788 199.239V194.847C1.09788 194.543 0.85225 194.299 0.548991 194.299C0.245732 194.299 0 194.543 0 194.847ZM0 203.63V208.021C0 208.325 0.245732 208.571 0.548991 208.571C0.85225 208.571 1.09788 208.325 1.09788 208.021V203.63C1.09788 203.327 0.85225 203.081 0.548991 203.081C0.245732 203.081 0 203.327 0 203.63ZM0 212.414V216.805C0 217.108 0.245732 217.354 0.548991 217.354C0.85225 217.354 1.09788 217.108 1.09788 216.805V212.414C1.09788 212.11 0.85225 211.864 0.548991 211.864C0.245732 211.864 0 212.11 0 212.414ZM0 221.197V225.588C0 225.892 0.245732 226.137 0.548991 226.137C0.85225 226.137 1.09788 225.892 1.09788 225.588V221.197C1.09788 220.893 0.85225 220.647 0.548991 220.647C0.245732 220.647 0 220.893 0 221.197ZM0 229.98V234.371C0 234.675 0.245732 234.92 0.548991 234.92C0.85225 234.92 1.09788 234.675 1.09788 234.371V229.98C1.09788 229.677 0.85225 229.431 0.548991 229.431C0.245732 229.431 0 229.677 0 229.98ZM0 238.762V243.154C0 243.457 0.245732 243.703 0.548991 243.703C0.85225 243.703 1.09788 243.457 1.09788 243.154V238.762C1.09788 238.46 0.85225 238.214 0.548991 238.214C0.245732 238.214 0 238.46 0 238.762ZM0 247.546V251.938C0 252.24 0.245732 252.486 0.548991 252.486C0.85225 252.486 1.09788 252.24 1.09788 251.938V247.546C1.09788 247.243 0.85225 246.997 0.548991 246.997C0.245732 246.997 0 247.243 0 247.546ZM0 256.329V260.72C0 261.024 0.245732 261.269 0.548991 261.269C0.85225 261.269 1.09788 261.024 1.09788 260.72V256.329C1.09788 256.025 0.85225 255.78 0.548991 255.78C0.245732 255.78 0 256.025 0 256.329ZM0 265.112V269.503C0 269.807 0.245732 270.053 0.548991 270.053C0.85225 270.053 1.09788 269.807 1.09788 269.503V265.112C1.09788 264.809 0.85225 264.563 0.548991 264.563C0.245732 264.563 0 264.809 0 265.112ZM0 273.895V278.287C0 278.59 0.245732 278.836 0.548991 278.836C0.85225 278.836 1.09788 278.59 1.09788 278.287V273.895C1.09788 273.592 0.85225 273.346 0.548991 273.346C0.245732 273.346 0 273.592 0 273.895ZM0 282.678V287.07C0 287.373 0.245732 287.618 0.548991 287.618C0.85225 287.618 1.09788 287.373 1.09788 287.07V282.678C1.09788 282.375 0.85225 282.129 0.548991 282.129C0.245732 282.129 0 282.375 0 282.678ZM0 291.461V292.833C0 293.88 0.0719586 294.909 0.210699 295.918C0.252302 296.217 0.529484 296.427 0.829658 296.387C1.12983 296.345 1.34013 296.068 1.29853 295.768C1.16636 294.808 1.09788 293.829 1.09788 292.833V291.461C1.09788 291.158 0.85225 290.913 0.548991 290.913C0.245732 290.913 0 291.158 0 291.461ZM1.27056 300.284C1.77437 301.711 2.41901 303.072 3.18726 304.35C3.34352 304.61 3.68061 304.693 3.94068 304.537C4.20034 304.381 4.28435 304.043 4.12809 303.783C3.39756 302.569 2.78487 301.275 2.30585 299.919C2.20512 299.633 1.89141 299.483 1.60567 299.584C1.31993 299.685 1.16984 299.998 1.27056 300.284ZM5.87678 307.949C6.88997 309.055 8.01313 310.058 9.22806 310.942C9.47339 311.12 9.81666 311.066 9.99511 310.82C10.1736 310.575 10.1191 310.232 9.87379 310.054C8.71798 309.213 7.64996 308.258 6.68623 307.207C6.48131 306.983 6.13416 306.968 5.91062 307.173C5.68748 307.378 5.67225 307.726 5.87678 307.949ZM13.1084 313.207C14.4606 313.823 15.8851 314.308 17.3652 314.647C17.661 314.715 17.9553 314.529 18.023 314.234C18.0907 313.938 17.9059 313.644 17.6105 313.577C16.2031 313.254 14.8494 312.793 13.5637 312.207C13.2881 312.081 12.9622 312.204 12.8367 312.479C12.7111 312.755 12.8328 313.08 13.1084 313.207ZM21.8233 315.203C22.0071 315.208 22.1919 315.21 22.3769 315.21H26.2281C26.5314 315.21 26.7771 314.964 26.7771 314.661C26.7771 314.358 26.5314 314.112 26.2281 314.112H22.3769C22.2008 314.112 22.0251 314.11 21.8497 314.106C21.5468 314.098 21.2953 314.338 21.2876 314.642C21.2802 314.944 21.5201 315.196 21.8233 315.203ZM30.6197 315.21H35.0111C35.3142 315.21 35.56 314.964 35.56 314.661C35.56 314.358 35.3142 314.112 35.0111 314.112H30.6197C30.3166 314.112 30.0704 314.358 30.0704 314.661C30.0704 314.964 30.3166 315.21 30.6197 315.21ZM39.4027 315.21H43.7943C44.0975 315.21 44.3432 314.964 44.3432 314.661C44.3432 314.358 44.0975 314.112 43.7943 314.112H39.4027C39.0994 314.112 38.8537 314.358 38.8537 314.661C38.8537 314.964 39.0994 315.21 39.4027 315.21ZM48.186 315.21H52.5776C52.8805 315.21 53.1261 314.964 53.1261 314.661C53.1261 314.358 52.8805 314.112 52.5776 314.112H48.186C47.8827 314.112 47.637 314.358 47.637 314.661C47.637 314.964 47.8827 315.21 48.186 315.21ZM56.9689 315.21H61.3605C61.6637 315.21 61.9094 314.964 61.9094 314.661C61.9094 314.358 61.6637 314.112 61.3605 314.112H56.9689C56.666 314.112 56.4199 314.358 56.4199 314.661C56.4199 314.964 56.666 315.21 56.9689 315.21ZM65.7521 315.21H70.1438C70.4466 315.21 70.6927 314.964 70.6927 314.661C70.6927 314.358 70.4466 314.112 70.1438 314.112H65.7521C65.4489 314.112 65.2031 314.358 65.2031 314.661C65.2031 314.964 65.4489 315.21 65.7521 315.21ZM74.5354 315.21H78.9266C79.2299 315.21 79.4755 314.964 79.4755 314.661C79.4755 314.358 79.2299 314.112 78.9266 314.112H74.5354C74.2321 314.112 73.986 314.358 73.986 314.661C73.986 314.964 74.2321 315.21 74.5354 315.21ZM83.3186 315.21H87.7097C88.0133 315.21 88.2591 314.964 88.2591 314.661C88.2591 314.358 88.0133 314.112 87.7097 314.112H83.3186C83.015 314.112 82.7692 314.358 82.7692 314.661C82.7692 314.964 83.015 315.21 83.3186 315.21ZM92.1018 315.21H96.3855H96.496C96.7985 315.208 97.0434 314.961 97.0424 314.659C97.0404 314.355 96.7936 314.11 96.49 314.112H96.3855H92.1018C91.7983 314.112 91.5525 314.358 91.5525 314.661C91.5525 314.964 91.7983 315.21 92.1018 315.21ZM100.964 314.741C102.451 314.432 103.885 313.975 105.248 313.386C105.527 313.266 105.654 312.943 105.535 312.664C105.415 312.387 105.091 312.258 104.813 312.379C103.517 312.938 102.154 313.372 100.74 313.666C100.443 313.728 100.252 314.019 100.314 314.315C100.376 314.613 100.666 314.803 100.964 314.741ZM109.174 311.198C110.407 310.338 111.549 309.357 112.584 308.272C112.793 308.053 112.785 307.705 112.565 307.496C112.346 307.287 111.998 307.295 111.788 307.515C110.805 308.547 109.718 309.479 108.546 310.297C108.297 310.472 108.236 310.813 108.409 311.062C108.583 311.311 108.925 311.371 109.174 311.198ZM115.343 304.727C116.137 303.464 116.808 302.117 117.34 300.701C117.446 300.417 117.303 300.101 117.019 299.994C116.736 299.888 116.419 300.031 116.312 300.315C115.806 301.661 115.168 302.941 114.414 304.143C114.253 304.4 114.329 304.738 114.586 304.899C114.843 305.06 115.182 304.984 115.343 304.727ZM118.486 296.356C118.669 295.208 118.762 294.032 118.762 292.833C118.762 292.53 118.516 292.284 118.214 292.284C117.91 292.284 117.664 292.53 117.664 292.833C117.664 293.974 117.575 295.093 117.403 296.185C117.355 296.484 117.559 296.765 117.858 296.813C118.158 296.86 118.44 296.655 118.486 296.356Z"
       id="path2" />
  </mask>
  <mask
     id="path-3-inside-2"
     fill="white">
    <path
       d="M112.694 38.2177V33.8266C112.694 33.524 112.448 33.2782 112.145 33.2782C111.842 33.2782 111.596 33.524 111.596 33.8266V38.2177C111.596 38.5213 111.842 38.7671 112.145 38.7671C112.448 38.7671 112.694 38.5213 112.694 38.2177ZM112.694 29.4354V25.0433C112.694 24.7407 112.448 24.4949 112.145 24.4949C111.842 24.4949 111.596 24.7407 111.596 25.0433V29.4354C111.596 29.738 111.842 29.9838 112.145 29.9838C112.448 29.9838 112.694 29.738 112.694 29.4354ZM112.694 20.6522V16.26C112.694 15.9575 112.448 15.7116 112.145 15.7116C111.842 15.7116 111.596 15.9575 111.596 16.26V20.6522C111.596 20.9547 111.842 21.2005 112.145 21.2005C112.448 21.2005 112.694 20.9547 112.694 20.6522ZM112.95 11.9973C113.234 10.5959 113.747 9.27818 114.448 8.08286C114.601 7.82111 114.513 7.48472 114.252 7.33145C113.99 7.17818 113.653 7.26576 113.5 7.52752C112.74 8.82435 112.182 10.2565 111.874 11.7793C111.813 12.0759 112.005 12.3655 112.303 12.4262C112.599 12.486 112.889 12.2939 112.95 11.9973ZM117.13 4.86118C118.185 3.94852 119.39 3.20505 120.703 2.67258C120.985 2.55912 121.12 2.23865 121.005 1.95798C120.892 1.67731 120.572 1.54096 120.291 1.65541C118.865 2.23267 117.556 3.03982 116.411 4.03012C116.182 4.22917 116.157 4.57553 116.356 4.80544C116.554 5.03435 116.9 5.05924 117.13 4.86118ZM124.792 1.75992C125.031 1.74698 125.271 1.74 125.513 1.74H129.154C129.456 1.74 129.702 1.49417 129.702 1.1916C129.702 0.888046 129.456 0.642235 129.154 0.642235H125.513C125.251 0.642235 124.991 0.6492 124.732 0.664127C124.429 0.680054 124.197 0.9398 124.214 1.24236C124.231 1.54493 124.49 1.77684 124.792 1.75992ZM133.545 1.74H137.936C138.24 1.74 138.485 1.49417 138.485 1.1916C138.485 0.888046 138.24 0.642235 137.936 0.642235H133.545C133.241 0.642235 132.996 0.888046 132.996 1.1916C132.996 1.49417 133.241 1.74 133.545 1.74ZM142.328 1.74H146.719C147.023 1.74 147.269 1.49417 147.269 1.1916C147.269 0.888046 147.023 0.642235 146.719 0.642235H142.328C142.025 0.642235 141.779 0.888046 141.779 1.1916C141.779 1.49417 142.025 1.74 142.328 1.74ZM151.111 1.74H155.503C155.806 1.74 156.052 1.49417 156.052 1.1916C156.052 0.888046 155.806 0.642235 155.503 0.642235H151.111C150.808 0.642235 150.562 0.888046 150.562 1.1916C150.562 1.49417 150.808 1.74 151.111 1.74ZM159.895 1.74H164.286C164.589 1.74 164.835 1.49417 164.835 1.1916C164.835 0.888046 164.589 0.642235 164.286 0.642235H159.895C159.591 0.642235 159.345 0.888046 159.345 1.1916C159.345 1.49417 159.591 1.74 159.895 1.74ZM168.677 1.74H173.069C173.372 1.74 173.618 1.49417 173.618 1.1916C173.618 0.888046 173.372 0.642235 173.069 0.642235H168.677C168.374 0.642235 168.129 0.888046 168.129 1.1916C168.129 1.49417 168.374 1.74 168.677 1.74ZM177.46 1.74H181.852C182.155 1.74 182.401 1.49417 182.401 1.1916C182.401 0.888046 182.155 0.642235 181.852 0.642235H177.46C177.158 0.642235 176.912 0.888046 176.912 1.1916C176.912 1.49417 177.158 1.74 177.46 1.74ZM186.244 1.74H190.636C190.938 1.74 191.184 1.49417 191.184 1.1916C191.184 0.888046 190.938 0.642235 190.636 0.642235H186.244C185.94 0.642235 185.695 0.888046 185.695 1.1916C185.695 1.49417 185.94 1.74 186.244 1.74ZM195.027 1.74H199.418C199.722 1.74 199.967 1.49417 199.967 1.1916C199.967 0.888046 199.722 0.642235 199.418 0.642235H195.027C194.723 0.642235 194.477 0.888046 194.477 1.1916C194.477 1.49417 194.723 1.74 195.027 1.74ZM203.81 1.74H208.201C208.505 1.74 208.751 1.49417 208.751 1.1916C208.751 0.888046 208.505 0.642235 208.201 0.642235H203.81C203.507 0.642235 203.261 0.888046 203.261 1.1916C203.261 1.49417 203.507 1.74 203.81 1.74ZM212.593 1.74H216.984C217.288 1.74 217.534 1.49417 217.534 1.1916C217.534 0.888046 217.288 0.642235 216.984 0.642235H212.593C212.29 0.642235 212.044 0.888046 212.044 1.1916C212.044 1.49417 212.29 1.74 212.593 1.74ZM221.376 1.74H221.757C223.077 1.74 224.349 1.93907 225.545 2.30832C225.834 2.39789 226.142 2.23565 226.232 1.94603C226.321 1.6564 226.159 1.34887 225.869 1.2593C224.568 0.858204 223.187 0.642235 221.757 0.642235H221.376C221.073 0.642235 220.827 0.888046 220.827 1.1916C220.827 1.49417 221.073 1.74 221.376 1.74ZM229.292 4.18638C230.429 5.01345 231.424 6.02365 232.235 7.1722C232.41 7.41903 232.753 7.47875 233 7.30358C233.248 7.12841 233.307 6.78605 233.132 6.53822C232.251 5.29214 231.171 4.19635 229.938 3.29861C229.692 3.12046 229.349 3.17519 229.171 3.42003C228.992 3.66486 229.046 4.00823 229.292 4.18638ZM234.06 10.9443C234.396 12.0898 234.577 13.3031 234.577 14.5591C234.577 14.8627 234.823 15.1085 235.125 15.1085C235.429 15.1085 235.675 14.8627 235.675 14.5591C235.675 13.1976 235.479 11.8808 235.113 10.6357C235.028 10.3451 234.723 10.1779 234.433 10.2635C234.141 10.3481 233.975 10.6536 234.06 10.9443Z"
       id="path9" />
  </mask>
  <path
     d="M198.769 407C93.4942 407 8.15268 395.073 8.15268 380.362C8.15268 365.652 93.4942 353.725 198.769 353.725C304.043 353.725 389.385 365.652 389.385 380.362C389.385 395.073 304.043 407 198.769 407Z"
     fill="#CFCAE9"
     id="path14" />
  <mask
     id="path-36-inside-3"
     fill="white">
    <path
       d="M214.451 95.076H210.059C209.756 95.076 209.51 95.3219 209.51 95.6254C209.51 95.928 209.756 96.1738 210.059 96.1738H214.451C214.754 96.1738 215 95.928 215 95.6254C215 95.3219 214.754 95.076 214.451 95.076ZM205.667 95.076H201.276C200.973 95.076 200.727 95.3219 200.727 95.6254C200.727 95.928 200.973 96.1738 201.276 96.1738H205.667C205.971 96.1738 206.217 95.928 206.217 95.6254C206.217 95.3219 205.971 95.076 205.667 95.076ZM196.884 95.076H192.493C192.189 95.076 191.944 95.3219 191.944 95.6254C191.944 95.928 192.189 96.1738 192.493 96.1738H196.884C197.188 96.1738 197.433 95.928 197.433 95.6254C197.433 95.3219 197.188 95.076 196.884 95.076ZM188.102 95.076H183.71C183.406 95.076 183.161 95.3219 183.161 95.6254C183.161 95.928 183.406 96.1738 183.71 96.1738H188.102C188.404 96.1738 188.65 95.928 188.65 95.6254C188.65 95.3219 188.404 95.076 188.102 95.076ZM179.318 95.076H174.926C174.624 95.076 174.378 95.3219 174.378 95.6254C174.378 95.928 174.624 96.1738 174.926 96.1738H179.318C179.621 96.1738 179.867 95.928 179.867 95.6254C179.867 95.3219 179.621 95.076 179.318 95.076ZM170.535 95.076H169.761V92.557C169.761 92.2534 169.515 92.0076 169.212 92.0076C168.909 92.0076 168.663 92.2534 168.663 92.557V95.6254C168.663 95.7697 168.722 95.9111 168.824 96.0136C168.926 96.1161 169.067 96.1738 169.212 96.1738H170.535C170.838 96.1738 171.084 95.928 171.084 95.6254C171.084 95.3219 170.838 95.076 170.535 95.076ZM169.761 88.1649V83.7737C169.761 83.4702 169.515 83.2244 169.212 83.2244C168.909 83.2244 168.663 83.4702 168.663 83.7737V88.1649C168.663 88.4684 168.909 88.7143 169.212 88.7143C169.515 88.7143 169.761 88.4684 169.761 88.1649ZM169.761 79.3816V74.9905C169.761 74.6869 169.515 74.4411 169.212 74.4411C168.909 74.4411 168.663 74.6869 168.663 74.9905V79.3816C168.663 79.6852 168.909 79.931 169.212 79.931C169.515 79.931 169.761 79.6852 169.761 79.3816ZM169.761 70.5983V66.2072C169.761 65.9046 169.515 65.6578 169.212 65.6578C168.909 65.6578 168.663 65.9046 168.663 66.2072V70.5983C168.663 70.9019 168.909 71.1477 169.212 71.1477C169.515 71.1477 169.761 70.9019 169.761 70.5983ZM169.761 61.8161V57.4239C169.761 57.1214 169.515 56.8755 169.212 56.8755C168.909 56.8755 168.663 57.1214 168.663 57.4239V61.8161C168.663 62.1186 168.909 62.3645 169.212 62.3645C169.515 62.3645 169.761 62.1186 169.761 61.8161ZM169.761 53.0328V48.9293H169.212V49.4777H169.5C169.804 49.4777 170.05 49.2318 170.05 48.9293C170.05 48.6257 169.804 48.3799 169.5 48.3799H169.212C169.067 48.3799 168.926 48.4386 168.824 48.5411C168.722 48.6436 168.663 48.784 168.663 48.9293V53.0328C168.663 53.3354 168.909 53.5812 169.212 53.5812C169.515 53.5812 169.761 53.3354 169.761 53.0328ZM173.891 49.4777H178.283C178.586 49.4777 178.832 49.2318 178.832 48.9293C178.832 48.6257 178.586 48.3799 178.283 48.3799H173.891C173.589 48.3799 173.343 48.6257 173.343 48.9293C173.343 49.2318 173.589 49.4777 173.891 49.4777ZM182.675 49.4777H187.067C187.369 49.4777 187.615 49.2318 187.615 48.9293C187.615 48.6257 187.369 48.3799 187.067 48.3799H182.675C182.372 48.3799 182.126 48.6257 182.126 48.9293C182.126 49.2318 182.372 49.4777 182.675 49.4777ZM191.458 49.4777H195.85C196.153 49.4777 196.398 49.2318 196.398 48.9293C196.398 48.6257 196.153 48.3799 195.85 48.3799H191.458C191.154 48.3799 190.909 48.6257 190.909 48.9293C190.909 49.2318 191.154 49.4777 191.458 49.4777ZM200.241 49.4777H204.632C204.936 49.4777 205.182 49.2318 205.182 48.9293C205.182 48.6257 204.936 48.3799 204.632 48.3799H200.241C199.938 48.3799 199.692 48.6257 199.692 48.9293C199.692 49.2318 199.938 49.4777 200.241 49.4777ZM209.024 49.4777H213.415C213.719 49.4777 213.965 49.2318 213.965 48.9293C213.965 48.6257 213.719 48.3799 213.415 48.3799H209.024C208.721 48.3799 208.475 48.6257 208.475 48.9293C208.475 49.2318 208.721 49.4777 209.024 49.4777ZM217.808 49.4777H222.199C222.502 49.4777 222.748 49.2318 222.748 48.9293C222.748 48.6257 222.502 48.3799 222.199 48.3799H217.808C217.504 48.3799 217.258 48.6257 217.258 48.9293C217.258 49.2318 217.504 49.4777 217.808 49.4777ZM222.684 52.2853V56.6775C222.684 56.981 222.93 57.2259 223.234 57.2259C223.537 57.2259 223.782 56.981 223.782 56.6775V52.2853C223.782 51.9828 223.537 51.7369 223.234 51.7369C222.93 51.7369 222.684 51.9828 222.684 52.2853ZM222.684 61.0686V65.4598C222.684 65.7633 222.93 66.0091 223.234 66.0091C223.537 66.0091 223.782 65.7633 223.782 65.4598V61.0686C223.782 60.766 223.537 60.5202 223.234 60.5202C222.93 60.5202 222.684 60.766 222.684 61.0686ZM222.684 69.8519V74.243C222.684 74.5466 222.93 74.7924 223.234 74.7924C223.537 74.7924 223.782 74.5466 223.782 74.243V69.8519C223.782 69.5483 223.537 69.3025 223.234 69.3025C222.93 69.3025 222.684 69.5483 222.684 69.8519ZM222.684 78.6352V83.0263C222.684 83.3299 222.93 83.5757 223.234 83.5757C223.537 83.5757 223.782 83.3299 223.782 83.0263V78.6352C223.782 78.3316 223.537 78.0858 223.234 78.0858C222.93 78.0858 222.684 78.3316 222.684 78.6352ZM222.684 87.4184V91.8096C222.684 92.1131 222.93 92.3589 223.234 92.3589C223.537 92.3589 223.782 92.1131 223.782 91.8096V87.4184C223.782 87.1149 223.537 86.869 223.234 86.869C222.93 86.869 222.684 87.1149 222.684 87.4184ZM223.234 95.076H218.842C218.539 95.076 218.293 95.3219 218.293 95.6254C218.293 95.928 218.539 96.1738 218.842 96.1738H223.234C223.537 96.1738 223.782 95.928 223.782 95.6254C223.782 95.3219 223.537 95.076 223.234 95.076Z"
       id="path78" />
  </mask>
  <g
     id="g308"
     transform="translate(-66.288967)">
    <path
       d="m 245.41,375.454 c 0,0 -28.863,8.278 -32.892,9.705 -3.667,1.295 -13.603,4.775 -21.057,3.699 -0.737,-0.109 -1.449,-0.263 -2.131,-0.462 -7.553,-2.249 -10.946,-4.347 -11.933,-9.1 -1,-4.765 2.766,-8.245 6.389,-10.485 3.623,-2.24 23.276,-4.579 23.276,-4.579 l 4.742,1.395 h 0.011 z"
       fill="#da1c49"
       id="path89" />
    <path
       d="m 191.461,388.858 c -0.737,-0.109 -1.449,-0.263 -2.131,-0.462 -7.553,-2.249 -10.946,-4.347 -11.933,-9.1 -1,-4.765 2.766,-8.245 6.389,-10.486 3.623,-2.239 23.276,-4.578 23.276,-4.578 l 4.742,1.395 c -4.292,1.976 -20.299,3.074 -23.791,5.083 -3.491,2.009 -5.182,5.797 -3.118,10.914 1.098,2.722 4.04,5.357 6.566,7.234 z"
       fill="#ffffff"
       id="path91" />
    <path
       d="m 240.93,376.098 c -0.002,10e-4 -5.426,1.406 -11.926,3.261 -6.504,1.858 -14.072,4.158 -18.42,5.976 -4.081,1.709 -10.031,2.968 -15.691,2.966 -3.009,0.001 -5.938,-0.355 -8.459,-1.169 -2.522,-0.813 -4.626,-2.077 -6.044,-3.877 -1.754,-2.23 -2.447,-4.308 -2.448,-6.151 0.001,-2.046 0.855,-3.842 2.205,-5.267 1.35,-1.423 3.196,-2.454 5.109,-2.917 4.882,-1.187 14.016,-2.958 20.543,-2.956 1.23,0 2.365,0.063 3.356,0.201 0.299,0.042 0.577,-0.168 0.619,-0.468 0.042,-0.301 -0.168,-0.578 -0.468,-0.62 -1.058,-0.147 -2.24,-0.211 -3.507,-0.211 -6.71,0.003 -15.856,1.789 -20.802,2.987 -2.115,0.513 -4.134,1.637 -5.646,3.228 -1.51,1.587 -2.508,3.662 -2.507,6.023 -0.001,2.126 0.81,4.454 2.684,6.831 1.594,2.021 3.904,3.384 6.569,4.242 2.668,0.86 5.7,1.221 8.796,1.221 5.823,-0.001 11.866,-1.276 16.115,-3.05 4.247,-1.777 11.814,-4.082 18.298,-5.933 3.243,-0.925 6.218,-1.739 8.383,-2.322 2.165,-0.582 3.513,-0.931 3.516,-0.932 0.294,-0.076 0.47,-0.376 0.395,-0.669 -0.077,-0.294 -0.377,-0.47 -0.669,-0.394"
       fill="#1d2a30"
       fill-opacity="0.05"
       id="path93" />
    <path
       d="m 192.159,387.982 -0.081,-0.045 c -0.42,-0.241 -2.39,-1.425 -4.228,-3.283 -1.845,-1.862 -3.523,-4.373 -3.517,-7.251 0,-1.023 0.206,-2.102 0.699,-3.245 0.596,-1.381 1.88,-2.392 3.689,-3.172 2.704,-1.167 6.493,-1.747 10.289,-2.336 3.8,-0.597 7.607,-1.201 10.453,-2.532 0.275,-0.129 0.392,-0.455 0.264,-0.73 -0.129,-0.274 -0.456,-0.392 -0.731,-0.264 -3.494,1.65 -8.978,2.184 -13.931,3.052 -2.48,0.439 -4.833,0.966 -6.778,1.802 -1.938,0.833 -3.506,1.999 -4.263,3.744 -0.549,1.272 -0.79,2.508 -0.79,3.681 0,1.767 0.543,3.38 1.339,4.788 2.396,4.218 7.022,6.726 7.058,6.754 0.267,0.146 0.6,0.049 0.745,-0.217 0.147,-0.266 0.049,-0.599 -0.217,-0.746 z"
       fill="#da1c49"
       id="path95" />
    <path
       d="m 333.318,390.198 c -0.296,2.953 -1.339,5.785 -4.325,7.542 -1.987,1.175 -4.82,1.877 -8.87,1.833 -10.123,-0.131 -29.15,-7.366 -29.15,-7.366 l -17.818,-9.848 9.266,-14.668 2.536,-4.018 6.553,1.471 c 0,0 5.425,3.074 10.881,5.522 5.457,2.449 18.697,2.964 23.364,6.741 4.665,3.767 8.068,7.872 7.563,12.791 z"
       fill="#da1c49"
       id="path97" />
    <path
       d="m 333.318,390.198 c -0.296,2.953 -1.339,5.785 -4.325,7.542 0.56,-2.295 1.021,-5.467 -0.505,-8.893 -1.977,-4.468 -8.465,-8.41 -16.984,-9.069 -8.509,-0.658 -15.042,-4.644 -18.457,-6.422 -2.666,-1.384 -8.288,-4.403 -10.626,-5.665 l 2.536,-4.018 6.553,1.471 c 0,0 5.425,3.074 10.881,5.522 5.457,2.449 18.697,2.964 23.364,6.741 4.665,3.767 8.068,7.873 7.563,12.791 z"
       fill="#ffffff"
       id="path99" />
    <path
       d="m 276.83,385.596 c 12.743,7.3 27.313,12.557 41.913,14.314 0.977,0.119 2.01,0.208 3.043,0.208 1.22,0 2.444,-0.124 3.583,-0.481 1.138,-0.356 2.195,-0.956 3.033,-1.897 1.168,-1.313 1.666,-3.058 1.666,-4.758 0,-0.25 -0.011,-0.498 -0.032,-0.745 -0.209,-2.43 -1.333,-4.591 -2.933,-6.364 -1.601,-1.773 -3.678,-3.173 -5.854,-4.108 -4.326,-1.854 -9.02,-2.284 -13.453,-3.282 -4.413,-0.989 -8.699,-2.557 -12.71,-4.649 -3.188,-1.659 -6.343,-3.739 -10.031,-4.524 -0.814,-0.173 -1.66,-0.261 -2.509,-0.261 -1.517,0 -3.041,0.283 -4.4,0.894 -1.357,0.611 -2.55,1.558 -3.355,2.876 -0.158,0.259 -0.077,0.597 0.182,0.756 0.258,0.158 0.596,0.076 0.754,-0.183 0.676,-1.103 1.677,-1.909 2.87,-2.448 1.191,-0.538 2.57,-0.798 3.949,-0.797 0.771,0 1.544,0.081 2.282,0.237 3.419,0.719 6.499,2.722 9.751,4.424 4.095,2.136 8.471,3.736 12.977,4.747 4.527,1.01 9.15,1.448 13.26,3.219 2.044,0.877 3.997,2.198 5.472,3.835 1.476,1.638 2.471,3.578 2.655,5.721 0.019,0.217 0.028,0.434 0.028,0.652 10e-4,1.49 -0.444,2.971 -1.388,4.027 -0.688,0.771 -1.551,1.268 -2.543,1.581 -0.991,0.311 -2.109,0.43 -3.254,0.43 -0.971,0 -1.961,-0.084 -2.912,-0.199 -14.427,-1.736 -28.871,-6.943 -41.498,-14.178 -0.263,-0.151 -0.599,-0.06 -0.75,0.203 -0.15,0.264 -0.06,0.599 0.204,0.75 z"
       fill="#da1c49"
       id="path101" />
    <path
       d="m 327.055,399.106 c 3.406,-1.752 6.224,-4.96 6.81,-8.828 0.074,-0.493 0.11,-0.987 0.11,-1.478 -0.008,-4.056 -2.395,-7.883 -5.589,-10.336 -3.573,-2.736 -7.979,-3.992 -12.273,-4.887 -4.295,-0.891 -8.628,-1.487 -12.607,-3.045 -2.619,-1.021 -5.262,-2.491 -7.956,-3.719 -2.692,-1.225 -5.445,-2.217 -8.305,-2.22 -0.978,0 -1.966,0.118 -2.96,0.382 -0.294,0.078 -0.468,0.378 -0.39,0.672 0.077,0.292 0.378,0.467 0.671,0.389 0.898,-0.238 1.789,-0.344 2.679,-0.345 2.598,-0.002 5.211,0.917 7.85,2.122 2.64,1.2 5.297,2.682 8.01,3.743 4.145,1.616 8.541,2.212 12.785,3.096 4.243,0.88 8.481,2.114 11.828,4.683 2.977,2.278 5.166,5.857 5.159,9.465 0,0.438 -0.032,0.877 -0.098,1.316 -0.506,3.423 -3.073,6.397 -6.225,8.012 -0.27,0.139 -0.376,0.47 -0.238,0.74 0.138,0.269 0.469,0.376 0.739,0.238 z"
       fill="#1d2a30"
       fill-opacity="0.05"
       id="path103" />
    <path
       d="m 291.554,301.598 c -1.043,0.537 2.998,-10.661 1.076,-13.197 -1.921,-2.548 -7.673,-2.295 -7.673,-2.295 l 0.494,-3.062 c 0.066,-0.342 3.414,-17.512 3.414,-17.512 l 1.131,-1.35 c 0,0 11.725,20.102 13.823,27.183 0,0 -12.78,10.233 -12.265,10.233 z m -75.798,-14.8 c -2.217,1.569 -1.032,7.663 -1.032,7.663 l -3.777,-3.326 9.476,-23.297 4.04,17.884 c 0,0 -6.488,-0.483 -8.707,1.076 z m 81.453,-55.861 -30.148,-11.472 -0.374,-0.144 c 0,0 0.11,-0.801 0.198,-1.964 0.188,-2.405 0.285,-6.324 -0.844,-7.653 -1.681,-1.965 -6.446,-0.318 -11.09,-2.448 -4.644,-2.13 -13.241,1.68 -13.241,1.68 0,0 -6.202,-1.143 -8.935,3.337 -1.395,3.612 -0.912,8.992 -0.912,8.992 0,0 -0.197,0.077 -0.57,0.209 -3.591,1.339 -23.135,8.695 -27.273,11.649 -4.567,3.238 -9.617,36.45 -11.242,46.198 -1.626,9.76 -4.512,18.544 -3.041,21.903 1.46,3.349 22.462,19.521 34.54,23.693 12.077,4.183 54.926,2.954 54.926,2.954 0,0 0.703,-0.189 1.944,-0.582 7.246,-2.328 32.959,-11.913 46.594,-34.519 0,0 -13.208,-43.322 -30.532,-61.833 z"
       fill="#ef2955"
       id="path105" />
    <path
       d="m 240.287,158.274 -15.559,16.519 c 0,0 -2.146,1.897 -1.294,6.689 0.853,4.793 2.839,8.91 4.338,9.229 1.501,0.32 3.604,0.323 3.604,0.323 0,0 3.334,7.226 5.696,10.066 0,0 0.823,11.153 0.384,14.249 0,0 5.591,4.884 10.856,5.505 5.266,0.621 13.401,-7.447 13.401,-7.447 l 2.016,-9.876 c 0,0 4.774,-7.246 5.099,-9.175 0.327,-1.929 2.508,-1.434 3.58,-2.385 1.072,-0.951 3.554,-5.208 3.964,-9.229 0.41,-4.02 0.439,-8.64 -4.232,-7.283 -4.047,-1.088 -1.513,-9.644 -1.513,-9.644 l -7.113,-6.275 z"
       fill="#ffc3ad"
       id="path107" />
    <path
       d="m 266.879,217.452 c 10e-4,-0.03 0.004,-0.063 0.006,-0.095 0.188,-2.405 0.285,-6.324 -0.845,-7.653 1.149,1.345 1.029,5.352 0.839,7.748 z"
       fill="#8e989b"
       id="path109" />
    <path
       d="m 252.503,235.328 -3.381,-10.396 -1.856,10.396 c -3.734,-1.624 -15.118,-11.494 -15.118,-11.494 0,0 -0.385,-0.922 -0.856,-2.36 0.374,-0.132 0.571,-0.209 0.571,-0.209 0,0 -0.081,-0.901 -0.081,-2.212 0,-1.894 0.168,-4.646 0.992,-6.78 0.023,-0.038 0.046,-0.075 0.07,-0.112 0.003,-0.005 0.006,-0.01 0.009,-0.014 0.015,-0.024 0.031,-0.047 0.047,-0.071 1.19,-1.811 2.967,-2.649 4.613,-3.014 0.093,2.564 0.117,5.059 -0.057,6.287 0,0 5.591,4.884 10.856,5.505 0.195,0.023 0.394,0.034 0.597,0.034 5.261,0 12.804,-7.481 12.804,-7.481 l 0.981,-4.804 c 1.479,0.102 2.666,0.306 3.346,1.101 1.13,1.329 1.033,5.248 0.845,7.653 l -0.626,3.908 -2.587,3.518 c -4.201,4.803 -11.169,10.545 -11.169,10.545 z"
       fill="#da1c49"
       id="path111" />
    <path
       d="m 248.909,220.888 c -0.203,0 -0.402,-0.011 -0.597,-0.034 -5.265,-0.621 -10.856,-5.505 -10.856,-5.505 0.174,-1.228 0.151,-3.723 0.057,-6.287 0.892,-0.198 1.746,-0.257 2.448,-0.257 1.042,0 1.749,0.131 1.749,0.131 0,0 5.251,-2.327 9.762,-2.327 1.261,0 2.465,0.182 3.479,0.647 2.763,1.267 5.57,1.197 7.743,1.347 l -0.981,4.803 c 0,0 -7.543,7.482 -12.804,7.482 z"
       fill="#ffc3ad"
       id="path113" />
    <path
       d="m 281.147,327.289 -6.873,-7.137 2.273,-26.986 5.557,-47.521 c 0.584,-4.993 -1.961,-9.817 -6.391,-12.188 -6.372,-3.411 -13.91,-6.132 -13.91,-6.132 l 1.869,-2.541 c 1.121,-1.283 2.046,-2.499 2.587,-3.519 0.297,-0.56 0.561,-1.163 0.802,-1.8 l 30.148,11.472 c 17.324,18.511 30.532,61.834 30.532,61.834 -13.635,22.605 -39.348,32.19 -46.594,34.518 z m 10.232,-25.956 c 0,0.183 0.034,0.284 0.111,0.284 0.018,0 0.04,-0.006 0.064,-0.019 -0.01,0 -0.015,-0.003 -0.015,-0.011 -0.006,-0.384 12.28,-10.222 12.28,-10.222 -2.098,-7.081 -13.823,-27.183 -13.823,-27.183 l -1.131,1.35 c 0,0 -0.443,2.272 -1.01,5.18 -0.07,0.358 -0.141,0.726 -0.214,1.099 -0.964,4.942 -2.151,11.031 -2.19,11.233 l -0.494,3.062 c 0,0 0.158,-0.007 0.43,-0.007 1.37,0 5.64,0.176 7.243,2.302 0.38,0.501 0.527,1.339 0.527,2.358 -0.002,3.534 -1.777,9.243 -1.778,10.574 z"
       fill="#ef2955"
       id="path115" />
    <path
       d="m 218.743,308.13 c 0,0 -13.527,-10.792 -19.103,-10.792 -5.567,0 -4.578,-1.79 0,-8.937 4.577,-7.159 9.523,-31.244 9.523,-31.244 l -1.515,-20.162 c 4.296,5.27 10.058,22.535 12.716,30.989 l -1.11,2.728 -0.447,1.099 -7.86,19.324 3.777,3.326 c 0,0 -0.316,-1.626 -0.316,-3.414 0,-1.674 0.276,-3.49 1.348,-4.249 1.37,-0.963 4.367,-1.147 6.46,-1.147 1.297,0 2.247,0.071 2.247,0.071 l -3.765,-16.666 c 0.706,2.269 1.119,3.678 1.119,3.678 l 4.688,15.667 -8.806,10.726 z"
       fill="#ef2955"
       id="path117" />
    <path
       d="m 220.698,269.056 c -0.106,-0.339 -0.217,-0.696 -0.335,-1.072 l 0.06,-0.146 z"
       fill="#cecdcc"
       id="path119" />
    <path
       d="m 236.527,201.156 c 0,0.001 0.023,0.23 0.058,0.636 0.108,1.217 0.323,4.002 0.323,6.709 0.001,1.801 -0.099,3.577 -0.371,4.785 -0.067,0.297 0.119,0.59 0.416,0.656 0.295,0.067 0.589,-0.119 0.655,-0.415 0.304,-1.365 0.397,-3.182 0.398,-5.026 0,-3.684 -0.386,-7.447 -0.387,-7.457 -0.031,-0.301 -0.301,-0.521 -0.603,-0.49 -0.301,0.03 -0.521,0.3 -0.489,0.602 z"
       fill="#1d2a30"
       fill-opacity="0.05"
       id="path121" />
    <path
       d="m 263.123,212.269 -10e-4,-0.093 c -0.001,-0.625 0.044,-4.324 0.925,-7.838 0.074,-0.295 -0.106,-0.592 -0.4,-0.666 -0.294,-0.074 -0.592,0.105 -0.665,0.399 -0.919,3.676 -0.956,7.432 -0.957,8.105 l 0.001,0.106 c 0.003,0.304 0.251,0.546 0.555,0.542 0.303,-0.004 0.545,-0.252 0.542,-0.555 z"
       fill="#1d2a30"
       fill-opacity="0.05"
       id="path123" />
    <path
       d="m 264.407,164.914 0.051,0.064 c 0.256,0.329 1.442,1.895 2.555,3.916 1.117,2.017 2.141,4.503 2.134,6.581 0,0.113 -0.003,0.226 -0.009,0.337 -0.225,4.181 -0.551,9.062 -0.551,13.965 0,0.776 0.008,1.553 0.026,2.329 l 10e-4,0.107 c 0.005,1.277 -0.53,3.018 -1.436,4.88 -1.355,2.797 -3.522,5.882 -5.77,8.34 -1.122,1.23 -2.266,2.303 -3.329,3.107 -1.06,0.805 -2.047,1.332 -2.796,1.496 -1.896,0.422 -3.668,0.708 -5.276,0.707 -2.36,-0.006 -4.333,-0.592 -6.012,-2.263 -2.965,-2.963 -5.973,-7.142 -9.906,-12.518 -1.258,-1.712 -2.029,-4.222 -2.46,-6.779 -0.435,-2.558 -0.541,-5.159 -0.54,-7.069 0,-0.891 0.022,-1.632 0.045,-2.149 0.023,-0.517 0.046,-0.803 0.045,-0.804 0.024,-0.302 -0.202,-0.566 -0.504,-0.59 -0.302,-0.024 -0.567,0.202 -0.59,0.505 -0.001,0.011 -0.094,1.218 -0.094,3.038 0,1.951 0.106,4.604 0.555,7.252 0.453,2.648 1.235,5.295 2.658,7.245 3.93,5.371 6.95,9.579 10.015,12.645 1.902,1.91 4.251,2.592 6.788,2.586 1.737,-0.001 3.58,-0.306 5.513,-0.735 1.34,-0.305 2.819,-1.277 4.37,-2.632 2.317,-2.035 4.747,-4.961 6.619,-7.938 0.935,-1.489 1.73,-2.99 2.295,-4.405 0.565,-1.417 0.906,-2.744 0.908,-3.919 l -10e-4,-0.133 c -0.018,-0.765 -0.026,-1.534 -0.026,-2.303 0,-4.855 0.323,-9.714 0.549,-13.905 0.008,-0.132 0.011,-0.264 0.011,-0.397 -0.008,-2.582 -1.269,-5.356 -2.502,-7.523 -1.237,-2.164 -2.466,-3.708 -2.477,-3.722 -0.189,-0.238 -0.534,-0.277 -0.771,-0.087 -0.237,0.188 -0.277,0.533 -0.088,0.771 z"
       fill="#ffc3ad"
       id="path125" />
    <path
       d="m 251.994,183.517 c -0.276,1.56 -0.416,3.146 -0.416,4.73 0,0.241 0.003,0.482 0.01,0.722 0.046,1.532 0.25,3.297 1.468,4.554 0.325,0.329 0.672,0.589 0.923,0.839 0.256,0.255 0.389,0.465 0.418,0.686 l 0.006,0.091 c 0,0.175 -0.07,0.37 -0.217,0.573 -0.145,0.2 -0.362,0.394 -0.591,0.54 h -0.001 c -0.523,0.345 -1.253,0.586 -1.906,1.143 -0.229,0.199 -0.253,0.546 -0.054,0.774 0.199,0.229 0.545,0.253 0.774,0.054 0.426,-0.381 1.095,-0.618 1.778,-1.046 0.327,-0.21 0.641,-0.482 0.888,-0.819 0.243,-0.336 0.426,-0.751 0.427,-1.219 l -0.016,-0.237 c -0.08,-0.579 -0.41,-0.999 -0.733,-1.318 -0.327,-0.323 -0.672,-0.582 -0.913,-0.829 -0.879,-0.882 -1.12,-2.353 -1.154,-3.815 -0.006,-0.231 -0.009,-0.462 -0.009,-0.693 0,-1.52 0.133,-3.041 0.399,-4.538 0.054,-0.299 -0.145,-0.583 -0.444,-0.636 -0.298,-0.054 -0.583,0.145 -0.637,0.444 z"
       fill="#1d2a30"
       id="path127" />
    <path
       d="m 243.876,198.517 c 0.01,0.055 0.175,1.093 1.037,2.248 0.857,1.155 2.436,2.402 5.121,2.816 0.299,0.046 0.58,-0.159 0.627,-0.458 0.046,-0.3 -0.159,-0.581 -0.458,-0.627 -2.425,-0.384 -3.696,-1.44 -4.411,-2.388 -0.356,-0.476 -0.566,-0.929 -0.686,-1.257 -0.06,-0.164 -0.098,-0.297 -0.12,-0.385 l -0.021,-0.098 -0.004,-0.02 -0.007,10e-4 0.007,-10e-4 -0.007,10e-4 0.007,-10e-4 c -0.047,-0.299 -0.328,-0.505 -0.627,-0.458 -0.3,0.046 -0.505,0.327 -0.458,0.627 z"
       fill="#1d2a30"
       id="path129" />
    <path
       d="m 244.95,186.518 c 0,1.1 -0.476,1.992 -1.063,1.992 -0.587,0 -1.063,-0.892 -1.063,-1.992 0,-1.101 0.476,-1.994 1.063,-1.994 0.587,0 1.063,0.893 1.063,1.994 z"
       fill="#1d2a30"
       id="path131" />
    <path
       d="m 260.187,186.996 c 0,1.101 -0.476,1.994 -1.064,1.994 -0.586,0 -1.063,-0.893 -1.063,-1.994 0,-1.101 0.477,-1.992 1.063,-1.992 0.588,0 1.064,0.891 1.064,1.992 z"
       fill="#1d2a30"
       id="path133" />
    <path
       d="m 257.889,182.947 -0.19,-0.19 0.188,0.192 0.002,-0.002 -0.19,-0.19 0.188,0.192 c 0.019,-0.019 0.493,-0.476 1.21,-0.905 0.72,-0.434 1.67,-0.821 2.628,-0.817 0.556,0.002 1.122,0.117 1.728,0.437 0.605,0.321 1.259,0.857 1.932,1.742 0.366,0.483 1.055,0.578 1.537,0.211 0.483,-0.366 0.578,-1.055 0.211,-1.538 -0.828,-1.093 -1.724,-1.864 -2.652,-2.355 -0.927,-0.493 -1.877,-0.695 -2.756,-0.693 -1.582,0.005 -2.907,0.611 -3.844,1.183 -0.938,0.577 -1.503,1.14 -1.544,1.18 -0.429,0.429 -0.429,1.125 0,1.553 0.429,0.429 1.123,0.429 1.552,0 z"
       fill="#1d2a30"
       id="path135" />
    <path
       d="m 247.452,181.535 c -0.053,-0.058 -0.474,-0.523 -1.251,-0.992 -0.774,-0.469 -1.922,-0.942 -3.365,-0.942 -1.442,-0.003 -3.137,0.484 -4.938,1.77 -0.494,0.351 -0.61,1.037 -0.259,1.531 0.352,0.494 1.037,0.61 1.531,0.258 1.503,-1.064 2.708,-1.36 3.666,-1.363 0.956,0 1.707,0.31 2.231,0.626 0.26,0.156 0.46,0.313 0.588,0.426 l 0.137,0.126 0.026,0.026 10e-4,0.002 0.48,-0.44 -0.486,0.433 0.006,0.007 0.48,-0.44 -0.486,0.433 c 0.404,0.453 1.097,0.493 1.55,0.089 0.453,-0.403 0.492,-1.097 0.089,-1.55 z"
       fill="#1d2a30"
       id="path137" />
    <path
       d="m 237.456,205.742 c 0,0 3.035,8.365 9.812,10.736 6.777,2.373 15.776,-9.938 15.776,-9.938 l -0.471,-1.602 c 0,0 -5.896,7.662 -12.455,6.355 -6.56,-1.306 -13.046,-10.193 -13.046,-10.193 z"
       fill="#f5b9a3"
       id="path139" />
    <path
       d="m 231.193,190.193 -0.029,0.01 c -0.156,0.053 -0.93,0.284 -1.774,0.282 -0.534,10e-4 -1.085,-0.092 -1.536,-0.337 -0.451,-0.249 -0.826,-0.629 -1.072,-1.335 -0.39,-1.14 -1.091,-2.884 -1.696,-4.79 -0.605,-1.903 -1.106,-3.966 -1.103,-5.66 -0.001,-0.699 0.084,-1.331 0.264,-1.862 0.182,-0.532 0.452,-0.959 0.838,-1.291 0.5,-0.424 0.911,-0.556 1.286,-0.559 0.434,-0.001 0.881,0.198 1.326,0.556 0.665,0.534 1.269,1.403 1.684,2.133 0.209,0.365 0.373,0.696 0.484,0.933 0.055,0.118 0.098,0.214 0.126,0.278 l 0.04,0.095 c 0.114,0.281 0.433,0.417 0.714,0.304 0.282,-0.114 0.417,-0.434 0.304,-0.715 -0.009,-0.021 -0.456,-1.132 -1.234,-2.273 -0.391,-0.571 -0.863,-1.152 -1.429,-1.609 -0.563,-0.454 -1.241,-0.798 -2.015,-0.8 -0.666,-0.002 -1.358,0.269 -2.001,0.823 -0.555,0.476 -0.932,1.092 -1.162,1.772 -0.231,0.682 -0.323,1.43 -0.324,2.215 0.003,1.901 0.537,4.037 1.155,5.992 0.62,1.951 1.333,3.723 1.704,4.812 0.317,0.945 0.914,1.586 1.588,1.947 0.676,0.363 1.407,0.468 2.059,0.469 1.181,-0.002 2.135,-0.345 2.168,-0.355 0.286,-0.1 0.436,-0.414 0.336,-0.699 -0.102,-0.287 -0.415,-0.436 -0.701,-0.336 z"
       fill="#ffc3ad"
       id="path141" />
    <path
       d="m 269.046,192.966 c 0.025,0.005 0.452,0.089 1.073,0.089 0.646,-0.001 1.509,-0.089 2.345,-0.492 0.835,-0.399 1.634,-1.15 2.039,-2.351 0.372,-1.089 1.084,-2.861 1.703,-4.812 0.618,-1.955 1.152,-4.091 1.155,-5.992 -10e-4,-0.785 -0.093,-1.533 -0.324,-2.215 -0.23,-0.681 -0.607,-1.296 -1.162,-1.772 -0.643,-0.554 -1.335,-0.825 -2.001,-0.823 -0.774,10e-4 -1.452,0.345 -2.014,0.799 -0.847,0.688 -1.492,1.649 -1.949,2.444 -0.453,0.794 -0.708,1.423 -0.714,1.438 -0.113,0.282 0.022,0.601 0.304,0.714 0.281,0.115 0.601,-0.021 0.715,-0.302 l 0.017,-0.041 c 0.09,-0.217 0.551,-1.261 1.24,-2.216 0.342,-0.478 0.742,-0.931 1.159,-1.246 0.419,-0.319 0.835,-0.492 1.242,-0.492 0.375,0.003 0.787,0.135 1.286,0.559 0.386,0.332 0.656,0.759 0.838,1.291 0.18,0.531 0.265,1.163 0.264,1.862 0.003,1.694 -0.498,3.757 -1.103,5.66 -0.604,1.906 -1.306,3.65 -1.695,4.79 -0.321,0.925 -0.861,1.411 -1.479,1.716 -0.617,0.301 -1.324,0.385 -1.866,0.384 -0.26,0 -0.48,-0.018 -0.633,-0.036 l -0.173,-0.024 -0.042,-0.007 -0.009,-0.002 c -0.296,-0.06 -0.586,0.133 -0.646,0.43 -0.059,0.298 0.133,0.587 0.43,0.647 z"
       fill="#ffc3ad"
       id="path143" />
    <path
       d="m 230.54,186.518 c 1.119,-0.051 2.954,-1.142 3.544,-2.094 0.589,-0.954 0.839,-2.075 1.03,-3.177 0.367,-2.114 0.555,-4.259 0.563,-6.405 0.003,-0.838 -0.02,-1.693 0.224,-2.495 0.255,-0.835 0.784,-1.558 1.351,-2.222 1.411,-1.652 3.107,-3.048 4.449,-4.757 1.34,-1.709 2.324,-3.874 1.963,-6.014 0,0 9.161,8.374 22.367,5.784 7.11,-1.394 13.934,-7.634 13.103,-15.475 -0.295,-2.791 -2.347,-4.798 -5.009,-5.46 -3.515,-0.874 -6.672,1 -9.857,2.2 -5.806,2.19 -11.486,-1.569 -17.35,-2.2 -5.016,-0.54 -11.173,0.082 -13.784,5.07 0,0 -9.01,1.058 -12.956,8.457 -3.947,7.4 3.555,17.645 3.555,17.645 0,0 3.019,-3.656 6.9,3.744 z"
       fill="#373365"
       id="path145" />
    <path
       d="m 265.404,162.68 c 0,0 -2.329,12.14 3.751,18.019 0,0 1.329,-3.65 2.679,-4.54 0,0 3.383,-6.415 -1.065,-13.479 -4.448,-7.066 -5.365,0 -5.365,0 z"
       fill="#373365"
       id="path147" />
    <path
       d="m 236.964,208.402 c -0.039,0.008 -0.77,0.16 -1.714,0.681 -0.944,0.522 -2.105,1.423 -2.956,2.921 -0.419,0.747 -0.646,1.734 -0.792,2.845 -0.144,1.109 -0.193,2.338 -0.193,3.527 0,2.867 0.288,5.502 0.289,5.513 0.014,0.126 0.069,0.242 0.159,0.331 0.007,0.007 2.059,2.037 4.987,4.498 2.931,2.462 6.73,5.355 10.283,7.099 0.154,0.076 0.335,0.075 0.489,-0.004 0.154,-0.077 0.262,-0.223 0.292,-0.393 l 1.627,-9.151 2.54,9.201 c 0.048,0.172 0.177,0.311 0.346,0.371 0.167,0.06 0.355,0.034 0.501,-0.069 0.01,-0.008 2.715,-1.92 5.805,-4.651 3.089,-2.737 6.564,-6.261 8.13,-9.624 l 0.046,-0.16 c 10e-4,-0.012 0.437,-3.357 0.437,-6.363 -0.005,-1.51 -0.096,-2.913 -0.471,-3.882 -0.491,-1.258 -1.325,-1.966 -2.07,-2.317 -0.747,-0.356 -1.395,-0.384 -1.61,-0.385 l -0.073,0.002 c -0.304,0.016 -0.537,0.274 -0.521,0.577 0.016,0.302 0.274,0.535 0.577,0.52 l -0.004,-0.075 0.002,0.075 h 0.002 l -0.004,-0.075 0.002,0.075 h 0.019 c 0.11,-0.001 0.602,0.019 1.136,0.276 0.536,0.261 1.125,0.729 1.523,1.729 0.275,0.675 0.399,2.035 0.394,3.48 0,1.452 -0.107,3.013 -0.214,4.206 -0.054,0.596 -0.107,1.102 -0.147,1.457 -0.04,0.357 -0.067,0.559 -0.067,0.56 l 0.544,0.07 -0.497,-0.231 c -1.417,3.077 -4.818,6.581 -7.861,9.262 -1.521,1.345 -2.952,2.492 -4.001,3.301 -0.524,0.404 -0.953,0.724 -1.251,0.943 -0.298,0.218 -0.46,0.334 -0.46,0.334 l 0.317,0.449 0.529,-0.147 -3.185,-11.539 c -0.068,-0.248 -0.298,-0.414 -0.555,-0.402 -0.257,0.012 -0.47,0.199 -0.515,0.452 l -2.052,11.539 0.541,0.097 0.241,-0.494 c -3.403,-1.667 -7.166,-4.521 -10.059,-6.953 -1.447,-1.216 -2.679,-2.328 -3.548,-3.134 -0.435,-0.403 -0.779,-0.731 -1.013,-0.956 -0.235,-0.226 -0.359,-0.348 -0.359,-0.348 l -0.387,0.39 0.546,-0.06 c 0,0 -0.017,-0.158 -0.044,-0.444 -0.079,-0.86 -0.238,-2.853 -0.238,-4.95 0,-1.157 0.049,-2.348 0.183,-3.387 0.132,-1.037 0.362,-1.927 0.658,-2.442 0.732,-1.287 1.721,-2.053 2.533,-2.503 0.405,-0.224 0.765,-0.368 1.018,-0.454 0.128,-0.043 0.227,-0.072 0.294,-0.09 l 0.073,-0.018 0.016,-0.004 c 0.296,-0.059 0.488,-0.349 0.428,-0.647 -0.06,-0.296 -0.35,-0.488 -0.646,-0.429 z"
       fill="#da1c49"
       id="path149" />
    <path
       d="m 224.816,286.029 c -0.001,-0.007 -0.799,-5.363 -2.131,-11.818 -1.335,-6.461 -3.187,-13.999 -5.357,-18.463 -0.132,-0.273 -0.461,-0.387 -0.734,-0.254 -0.272,0.133 -0.386,0.462 -0.253,0.734 2.081,4.264 3.948,11.786 5.27,18.205 0.662,3.211 1.192,6.153 1.557,8.289 0.182,1.069 0.323,1.937 0.418,2.537 0.096,0.601 0.144,0.93 0.144,0.931 0.045,0.301 0.325,0.507 0.625,0.463 0.299,-0.045 0.506,-0.325 0.461,-0.624 z"
       fill="#da1c49"
       id="path151" />
    <path
       d="m 207.201,237.315 c 0,0.001 0.248,0.348 0.664,0.959 1.247,1.831 3.99,6.014 5.895,10.017 0.13,0.274 0.458,0.39 0.732,0.26 0.274,-0.131 0.39,-0.458 0.259,-0.733 -2.603,-5.462 -6.648,-11.127 -6.656,-11.141 -0.176,-0.247 -0.52,-0.304 -0.767,-0.128 -0.246,0.176 -0.303,0.519 -0.127,0.766 z"
       fill="#da1c49"
       id="path153" />
    <path
       d="m 292.087,253.108 c 1.117,-4.244 2.311,-7.966 3.473,-10.342 0.134,-0.272 0.021,-0.601 -0.252,-0.734 -0.272,-0.133 -0.601,-0.02 -0.734,0.252 -1.224,2.508 -2.42,6.264 -3.549,10.544 -0.078,0.293 0.097,0.594 0.391,0.67 0.293,0.078 0.593,-0.097 0.671,-0.39 z"
       fill="#da1c49"
       id="path155" />
    <path
       d="m 285.497,286.195 c 10e-4,-0.003 0.144,-0.915 0.402,-2.477 0.775,-4.685 2.585,-15.195 4.637,-24.241 0.067,-0.296 -0.118,-0.59 -0.414,-0.657 -0.296,-0.067 -0.59,0.118 -0.657,0.414 -2.748,12.114 -5.051,26.784 -5.052,26.79 -0.048,0.299 0.157,0.581 0.457,0.628 0.3,0.046 0.58,-0.159 0.627,-0.457 z"
       fill="#da1c49"
       id="path157" />
    <path
       d="m 289.301,265.857 c 2.119,-2.83 5.202,-4.939 8.608,-5.886 0.292,-0.081 0.463,-0.384 0.381,-0.676 -0.081,-0.292 -0.384,-0.463 -0.676,-0.381 -3.644,1.015 -6.923,3.257 -9.192,6.285 -0.182,0.242 -0.132,0.586 0.111,0.768 0.241,0.181 0.586,0.132 0.768,-0.11 z"
       fill="#da1c49"
       id="path159" />
    <path
       d="m 266.487,219.831 c 0.004,0.001 18.553,7.411 30.545,11.627 l 0.182,-0.519 -0.376,0.4 0.036,0.034 c 0.802,0.784 15.062,15.153 30.341,61.571 l 0.521,-0.172 -0.471,-0.281 c 0,0.001 -0.053,0.088 -0.164,0.265 -1.654,2.657 -15.94,24.397 -41.515,31.636 -0.292,0.084 -0.461,0.386 -0.379,0.679 0.083,0.292 0.387,0.461 0.678,0.378 27.768,-7.889 42.287,-32.351 42.323,-32.397 0.082,-0.136 0.1,-0.301 0.05,-0.452 -15.814,-48.045 -30.587,-61.984 -30.667,-62.06 l -0.195,-0.118 c -5.975,-2.1 -13.603,-5.005 -19.735,-7.382 -3.065,-1.189 -5.757,-2.246 -7.682,-3.006 -1.926,-0.76 -3.081,-1.221 -3.084,-1.223 -0.281,-0.113 -0.601,0.025 -0.713,0.306 -0.113,0.282 0.024,0.602 0.305,0.714 z"
       fill="#ef2955"
       id="path161" />
    <path
       d="m 290.869,302.891 13.298,-11.105 -0.351,-0.422 0.331,0.437 0.037,-0.026 c 0.4,-0.298 4.057,-2.838 8.556,-2.83 1.643,0.001 3.399,0.331 5.183,1.222 0.271,0.136 0.601,0.026 0.736,-0.245 0.136,-0.272 0.026,-0.601 -0.245,-0.736 -1.946,-0.975 -3.884,-1.339 -5.674,-1.339 -5.238,0.011 -9.21,3.053 -9.256,3.08 l -0.02,0.016 -13.299,11.105 c -0.233,0.194 -0.264,0.54 -0.07,0.773 0.194,0.233 0.541,0.264 0.774,0.07 z"
       fill="#1d2a30"
       fill-opacity="0.05"
       id="path163" />
    <path
       d="m 289.547,264.493 c 0,0.001 0.169,0.25 0.474,0.712 1.066,1.618 3.779,5.822 6.527,10.811 2.747,4.987 5.529,10.77 6.736,15.485 0.075,0.293 0.375,0.471 0.668,0.396 0.294,-0.076 0.471,-0.375 0.395,-0.669 -1.435,-5.584 -4.905,-12.396 -8.017,-17.841 -3.114,-5.442 -5.871,-9.503 -5.876,-9.51 -0.17,-0.251 -0.511,-0.316 -0.762,-0.146 -0.251,0.17 -0.316,0.511 -0.145,0.762 z"
       fill="#1d2a30"
       fill-opacity="0.05"
       id="path165" />
    <path
       d="m 215.223,294.679 -3.892,-3.712 c -0.079,-0.075 -0.176,-0.124 -0.284,-0.143 -0.026,-0.005 -0.632,-0.108 -1.661,-0.108 -2.232,-0.001 -6.471,0.492 -11.059,3.569 -0.253,0.168 -0.319,0.509 -0.151,0.761 0.169,0.252 0.51,0.319 0.762,0.15 4.369,-2.929 8.372,-3.382 10.448,-3.383 0.477,0 0.852,0.024 1.103,0.048 0.127,0.012 0.222,0.024 0.284,0.032 l 0.068,0.01 0.017,0.003 0.094,-0.542 -0.379,0.398 3.892,3.711 c 0.219,0.209 0.567,0.201 0.776,-0.019 0.21,-0.219 0.201,-0.566 -0.018,-0.775 z"
       fill="#1d2a30"
       fill-opacity="0.05"
       id="path167" />
    <path
       d="m 211.478,291.525 c 0,-10e-4 0.074,-0.245 0.215,-0.694 0.493,-1.569 1.794,-5.613 3.49,-10.154 1.694,-4.538 3.789,-9.579 5.845,-13.112 0.153,-0.262 0.064,-0.599 -0.198,-0.751 -0.261,-0.152 -0.598,-0.064 -0.75,0.198 -2.418,4.159 -4.82,10.192 -6.632,15.202 -1.808,5.008 -3.019,8.985 -3.021,8.991 -0.088,0.29 0.075,0.596 0.365,0.685 0.291,0.089 0.597,-0.076 0.686,-0.365 z"
       fill="#1d2a30"
       fill-opacity="0.05"
       id="path169" />
    <path
       d="m 231.666,220.753 c -0.003,0.001 -6.677,2.505 -13.685,5.376 -3.504,1.436 -7.09,2.963 -9.975,4.319 -1.442,0.678 -2.709,1.313 -3.708,1.876 -1.002,0.57 -1.724,1.04 -2.149,1.504 -0.264,0.307 -0.444,0.716 -0.677,1.316 -0.838,2.217 -1.987,6.918 -3.273,12.881 -1.925,8.937 -4.13,20.659 -5.877,30.716 -0.873,5.028 -1.633,9.64 -2.186,13.278 -0.552,3.646 -0.899,6.293 -0.948,7.48 l -0.002,0.119 c 0.004,0.888 0.379,1.799 0.991,2.761 1.078,1.68 2.929,3.543 5.249,5.507 6.955,5.877 18.141,12.589 24.872,16.147 0.268,0.141 0.6,0.039 0.741,-0.229 0.142,-0.268 0.04,-0.6 -0.229,-0.741 -5.082,-2.687 -12.777,-7.219 -19.176,-11.784 -3.199,-2.282 -6.077,-4.575 -8.132,-6.632 -1.027,-1.028 -1.849,-1.997 -2.399,-2.859 -0.556,-0.863 -0.824,-1.614 -0.82,-2.17 l 0.001,-0.074 c 0.03,-0.755 0.213,-2.333 0.514,-4.474 1.055,-7.508 3.558,-22.069 6.081,-35.059 1.262,-6.495 2.529,-12.6 3.622,-17.231 0.546,-2.315 1.049,-4.263 1.483,-5.699 0.217,-0.717 0.416,-1.308 0.591,-1.744 0.169,-0.433 0.338,-0.726 0.391,-0.776 0.229,-0.264 0.914,-0.745 1.871,-1.281 3.373,-1.904 10.2,-4.793 16.154,-7.188 2.979,-1.198 5.745,-2.277 7.766,-3.055 2.02,-0.778 3.291,-1.255 3.295,-1.256 0.284,-0.107 0.427,-0.423 0.32,-0.707 -0.106,-0.283 -0.423,-0.428 -0.706,-0.321 z"
       fill="#ef2955"
       id="path171" />
    <path
       d="m 251.813,240.186 c 0,0.97 -0.785,1.755 -1.756,1.755 -0.969,0 -1.754,-0.785 -1.754,-1.755 0,-0.969 0.785,-1.754 1.754,-1.754 0.971,0 1.756,0.785 1.756,1.754 z"
       fill="#da1c49"
       id="path181" />
    <path
       d="m 282.69,333.961 h -60.729 c -0.785,0 -1.423,-0.638 -1.423,-1.424 0,-0.786 0.638,-1.423 1.423,-1.423 h 60.729 c 0.787,0 1.424,0.637 1.424,1.423 0,0.786 -0.637,1.424 -1.424,1.424 z"
       fill="#1d2a30"
       fill-opacity="0.05"
       id="path183" />
    <path
       d="m 225.214,331.688 v 0 c -2.141,-0.049 -3.961,-1.58 -4.376,-3.682 l -7.296,-36.945 c 0,0 0,0 0,0 -0.558,-2.822 1.603,-5.452 4.481,-5.452 h 70.954 c 2.904,0 5.071,2.677 4.467,5.518 l -8.139,38.218 c -0.457,2.148 -2.377,3.664 -4.572,3.614 l 0.012,-0.5 -0.012,0.5 z"
       fill="#ffffff"
       stroke="#ffffff"
       id="path185" />
    <path
       d="m 258.922,308.134 c 0,3.128 -2.537,5.664 -5.665,5.664 -3.128,0 -5.664,-2.536 -5.664,-5.664 0,-3.129 2.536,-5.665 5.664,-5.665 3.128,0 5.665,2.536 5.665,5.665 z"
       fill="#abbade"
       id="path187" />
    <path
       d="m 270.055,290.285 h 8.431 c 0.303,0 0.549,-0.245 0.549,-0.548 0,-0.304 -0.246,-0.549 -0.549,-0.549 h -8.431 c -0.303,0 -0.549,0.245 -0.549,0.549 0,0.303 0.246,0.548 0.549,0.548 z"
       fill="#1d2a30"
       fill-opacity="0.05"
       id="path189" />
    <path
       d="m 229.798,290.285 h 32 c 0.303,0 0.549,-0.245 0.549,-0.548 0,-0.304 -0.246,-0.549 -0.549,-0.549 h -32 c -0.304,0 -0.55,0.245 -0.55,0.549 0,0.303 0.246,0.548 0.55,0.548 z"
       fill="#1d2a30"
       fill-opacity="0.05"
       id="path191" />
    <path
       d="m 284.956,369.785 -6.47,16.978 c 0,0 -16.494,-4.158 -37.629,-8.489 -22.099,-4.528 -45.18,-10.391 -57.152,-31.395 -1.46,-2.562 -2.432,-5.588 -1.748,-8.455 1.728,-7.256 11.166,-9.224 17.386,-9.951 3.906,-0.456 7.847,-0.607 11.775,-0.662 2.004,-0.028 8.611,-1.078 10.211,0.099 0,10e-4 4.146,3.051 7.679,4.551 3.533,1.5 55.106,-1.347 55.106,-1.347 0,0 1.533,-3.238 1.622,-6.193 8.106,-4.12 26.879,-7.61 34.811,-6.069 12.473,2.426 19.749,9.702 18.362,17.324 -1.385,7.623 -28.91,28.065 -53.953,33.609 z"
       fill="#373365"
       id="path193" />
    <path
       d="m 285.096,369.255 c -10e-4,0 -0.238,-0.063 -0.688,-0.193 -3.149,-0.903 -16.525,-5.03 -27.652,-12.552 -5.809,-3.922 -11.067,-8.157 -16.792,-11.43 -5.721,-3.272 -11.927,-5.573 -19.559,-5.571 -1.514,0 -3.083,0.09 -4.715,0.28 -0.302,0.035 -0.518,0.308 -0.483,0.609 0.036,0.301 0.307,0.516 0.609,0.481 1.591,-0.185 3.118,-0.272 4.589,-0.272 7.407,0.002 13.391,2.214 19.015,5.426 5.622,3.211 10.865,7.429 16.72,11.387 12.923,8.726 28.645,12.885 28.674,12.895 0.294,0.078 0.594,-0.096 0.672,-0.389 0.078,-0.293 -0.097,-0.594 -0.39,-0.671 z"
       fill="#ffffff"
       id="path195" />
    <path
       d="m 253.651,355.45 c 8.244,-2.378 14.244,-7.681 20.722,-12.691 6.87,-5.319 14.123,-10.459 21.901,-14.393 0.27,-0.138 0.378,-0.467 0.242,-0.737 -0.138,-0.271 -0.468,-0.38 -0.738,-0.243 -7.876,3.984 -15.182,9.166 -22.077,14.504 -6.516,5.051 -12.403,10.22 -20.353,12.505 -0.292,0.084 -0.46,0.387 -0.376,0.679 0.083,0.291 0.388,0.46 0.679,0.376 z"
       fill="#ffffff"
       id="path197" />
    <path
       d="m 250.653,188.481 h 2.374 c 0.304,0 0.55,-0.246 0.55,-0.549 0,-0.303 -0.246,-0.549 -0.55,-0.549 h -2.374 c -0.304,0 -0.55,0.246 -0.55,0.549 0,0.303 0.246,0.549 0.55,0.549 z"
       fill="#1d2a30"
       fill-opacity="0.05"
       id="path199" />
  </g>
  <g
     aria-label="EXPORT  CUSTOMER"
     transform="matrix(11.833691,0,0,11.833691,-1955.7926,-326.03076)"
     id="text310"
     style="font-size:5.33333px;line-height:1.25;font-family:Impact;-inkscape-font-specification:Impact;text-align:center;letter-spacing:0px;word-spacing:0px;writing-mode:lr-tb;text-anchor:middle;white-space:pre;shape-inside:url(#rect312);fill:#000000">
    <path
       d="m 173.65398,28.208896 h 1.82812 v 0.84375 h -0.73177 v 0.799479 h 0.6849 v 0.802082 h -0.6849 v 0.927083 h 0.80469 v 0.84375 h -1.90104 z"
       style="fill:#000000"
       id="path349" />
    <path
       d="m 178.09147,28.208896 -0.38281,1.864583 0.57813,2.351561 h -1.01563 q -0.18229,-0.630208 -0.33333,-1.533854 -0.0417,0.398438 -0.11458,0.846354 l -0.10417,0.6875 h -1.06771 l 0.39583,-2.351561 -0.39583,-1.864583 h 1.0599 q 0.0286,0.174479 0.11458,0.580729 0.0677,0.309896 0.11198,0.567708 l 0.23437,-1.148437 z"
       style="fill:#000000"
       id="path351" />
    <path
       d="m 178.44304,28.208896 h 1.10416 q 0.44792,0 0.6875,0.07031 0.24219,0.07031 0.36198,0.203125 0.1224,0.132812 0.16406,0.322916 0.0443,0.1875 0.0443,0.583333 v 0.367187 q 0,0.403646 -0.0833,0.588542 -0.0833,0.184895 -0.30729,0.283854 -0.22136,0.09896 -0.58073,0.09896 h -0.29427 v 1.697916 h -1.09635 z m 1.09635,0.721354 v 1.072916 q 0.0469,0.0026 0.0807,0.0026 0.15104,0 0.20833,-0.07292 0.0599,-0.07552 0.0599,-0.309896 v -0.346354 q 0,-0.216146 -0.0677,-0.28125 -0.0677,-0.0651 -0.28125,-0.0651 z"
       style="fill:#000000"
       id="path353" />
    <path
       d="m 183.62532,30.677645 q 0,0.635416 -0.0312,0.901041 -0.0286,0.263021 -0.1875,0.481771 -0.15625,0.218749 -0.42447,0.335937 -0.26823,0.117187 -0.625,0.117187 -0.33855,0 -0.60938,-0.109375 -0.26823,-0.111979 -0.43229,-0.333333 -0.16406,-0.221354 -0.19531,-0.48177 -0.0312,-0.260417 -0.0312,-0.911458 v -0.721354 q 0,-0.635416 0.0286,-0.898437 0.0312,-0.265625 0.1875,-0.484375 0.15886,-0.218749 0.42709,-0.335937 0.26823,-0.117187 0.625,-0.117187 0.33854,0 0.60677,0.111979 0.27083,0.109375 0.43489,0.330729 0.16406,0.221354 0.19531,0.48177 0.0312,0.260417 0.0312,0.911458 z m -1.09635,-1.385416 q 0,-0.294271 -0.0339,-0.375 -0.0312,-0.08333 -0.13282,-0.08333 -0.0859,0 -0.13281,0.06771 -0.0443,0.0651 -0.0443,0.390625 v 1.968749 q 0,0.367187 0.0286,0.453125 0.0312,0.08594 0.14062,0.08594 0.11198,0 0.14323,-0.09896 0.0312,-0.09896 0.0312,-0.471354 z"
       style="fill:#000000"
       id="path355" />
    <path
       d="m 184.03418,28.208896 h 0.77604 q 0.77604,0 1.04948,0.0599 0.27604,0.0599 0.44791,0.307292 0.17448,0.244791 0.17448,0.783853 0,0.492188 -0.12239,0.661458 -0.1224,0.169271 -0.48177,0.203125 0.32552,0.08073 0.4375,0.216146 0.11198,0.135416 0.13802,0.25 0.0286,0.111979 0.0286,0.622395 v 1.111979 h -1.01822 v -1.401041 q 0,-0.338542 -0.0547,-0.419271 -0.0521,-0.08073 -0.27865,-0.08073 v 1.901041 h -1.09635 z m 1.09635,0.721354 v 0.9375 q 0.1849,0 0.25781,-0.04948 0.0755,-0.05208 0.0755,-0.330729 v -0.23177 q 0,-0.200521 -0.0729,-0.263021 -0.0703,-0.0625 -0.26042,-0.0625 z"
       style="fill:#000000"
       id="path357" />
    <path
       d="m 189.1149,28.208896 v 0.84375 h -0.65104 v 3.372394 h -1.09635 v -3.372394 h -0.64844 v -0.84375 z"
       style="fill:#000000"
       id="path359" />
    <path
       d="m 173.08366,36.714101 h -1.09635 v -0.734375 q 0,-0.320312 -0.0365,-0.398437 -0.0339,-0.08073 -0.15364,-0.08073 -0.13542,0 -0.17188,0.09635 -0.0365,0.09635 -0.0365,0.416667 v 1.958332 q 0,0.307291 0.0365,0.401041 0.0365,0.09375 0.16406,0.09375 0.1224,0 0.15886,-0.09375 0.0391,-0.09375 0.0391,-0.440104 v -0.528645 h 1.09635 v 0.164062 q 0,0.653646 -0.0937,0.927083 -0.0911,0.273437 -0.40885,0.479166 -0.3151,0.205729 -0.77865,0.205729 -0.48177,0 -0.79427,-0.174479 -0.3125,-0.174479 -0.41406,-0.48177 -0.10156,-0.309896 -0.10156,-0.929687 v -1.23177 q 0,-0.455729 0.0312,-0.682292 0.0312,-0.229166 0.1849,-0.440103 0.15625,-0.210938 0.42968,-0.330729 0.27604,-0.122396 0.63281,-0.122396 0.48438,0 0.79948,0.1875 0.31511,0.1875 0.41407,0.468749 0.099,0.278646 0.099,0.869792 z"
       style="fill:#000000"
       id="path361" />
    <path
       d="m 175.96908,34.87556 v 2.817707 q 0,0.479166 -0.0312,0.674479 -0.0312,0.192708 -0.1849,0.398437 -0.15364,0.203125 -0.40625,0.309896 -0.25,0.104166 -0.59114,0.104166 -0.37761,0 -0.66667,-0.125 -0.28906,-0.124999 -0.43229,-0.32552 -0.14323,-0.200521 -0.16927,-0.421875 -0.026,-0.223958 -0.026,-0.937499 V 34.87556 h 1.09635 v 3.161457 q 0,0.276041 0.0287,0.354166 0.0312,0.07552 0.12239,0.07552 0.10417,0 0.13282,-0.08333 0.0312,-0.08594 0.0312,-0.401042 V 34.87556 Z"
       style="fill:#000000"
       id="path363" />
    <path
       d="m 178.71647,36.151601 h -1.01823 v -0.312499 q 0,-0.21875 -0.0391,-0.278646 -0.0391,-0.0599 -0.13021,-0.0599 -0.0989,0 -0.15104,0.08073 -0.0495,0.08073 -0.0495,0.244792 0,0.210937 0.0573,0.317708 0.0547,0.106771 0.3099,0.257812 0.73177,0.434896 0.92187,0.713541 0.19011,0.278646 0.19011,0.898437 0,0.450521 -0.10677,0.664063 -0.10417,0.213541 -0.40625,0.359374 -0.30208,0.143229 -0.70313,0.143229 -0.4401,0 -0.7526,-0.166666 -0.3099,-0.166667 -0.40625,-0.424479 -0.0963,-0.257812 -0.0963,-0.73177 v -0.276042 h 1.01822 v 0.513021 q 0,0.236979 0.0417,0.304687 0.0443,0.06771 0.15365,0.06771 0.10937,0 0.16146,-0.08594 0.0547,-0.08594 0.0547,-0.255208 0,-0.372396 -0.10156,-0.486979 -0.10417,-0.114584 -0.51302,-0.382813 -0.40885,-0.270833 -0.54167,-0.393229 -0.13281,-0.122395 -0.22135,-0.338541 -0.0859,-0.216146 -0.0859,-0.552083 0,-0.484375 0.1224,-0.708333 0.125,-0.223958 0.40104,-0.348958 0.27604,-0.127604 0.66667,-0.127604 0.42708,0 0.72656,0.138021 0.30208,0.13802 0.39843,0.348958 0.099,0.208333 0.099,0.710937 z"
       style="fill:#000000"
       id="path365" />
    <path
       d="m 181.3597,34.87556 v 0.84375 h -0.65104 v 3.372394 h -1.09635 V 35.71931 h -0.64844 v -0.84375 z"
       style="fill:#000000"
       id="path367" />
    <path
       d="m 184.11491,37.344309 q 0,0.635416 -0.0312,0.901041 -0.0286,0.263021 -0.1875,0.481771 -0.15625,0.21875 -0.42448,0.335937 -0.26823,0.117187 -0.625,0.117187 -0.33854,0 -0.60938,-0.109375 -0.26822,-0.111979 -0.43229,-0.333333 -0.16406,-0.221354 -0.19531,-0.48177 -0.0312,-0.260417 -0.0312,-0.911458 v -0.721354 q 0,-0.635416 0.0286,-0.898437 0.0312,-0.265625 0.1875,-0.484374 0.15885,-0.21875 0.42708,-0.335938 0.26823,-0.117187 0.625,-0.117187 0.33854,0 0.60677,0.111979 0.27083,0.109375 0.4349,0.330729 0.16406,0.221354 0.19531,0.48177 0.0312,0.260417 0.0312,0.911458 z m -1.09636,-1.385416 q 0,-0.294271 -0.0339,-0.375 -0.0312,-0.08333 -0.13281,-0.08333 -0.0859,0 -0.13282,0.06771 -0.0443,0.0651 -0.0443,0.390625 v 1.968749 q 0,0.367187 0.0286,0.453125 0.0312,0.08594 0.14062,0.08594 0.11198,0 0.14323,-0.09896 0.0312,-0.09896 0.0312,-0.471354 z"
       style="fill:#000000"
       id="path369" />
    <path
       d="m 187.90657,34.87556 v 4.216144 h -0.95833 v -2.846353 l -0.38281,2.846353 h -0.67969 l -0.40365,-2.781249 v 2.781249 h -0.95833 V 34.87556 h 1.41927 q 0.0625,0.380209 0.13281,0.895833 l 0.15105,1.072916 0.24999,-1.968749 z"
       style="fill:#000000"
       id="path371" />
    <path
       d="m 188.34668,34.87556 h 1.82812 v 0.84375 h -0.73177 v 0.799479 h 0.6849 v 0.802083 h -0.6849 v 0.927082 h 0.80469 v 0.84375 h -1.90104 z"
       style="fill:#000000"
       id="path373" />
    <path
       d="m 190.56282,34.87556 h 0.77604 q 0.77604,0 1.04948,0.0599 0.27604,0.0599 0.44792,0.307292 0.17448,0.244791 0.17448,0.783853 0,0.492188 -0.1224,0.661458 -0.1224,0.169271 -0.48177,0.203125 0.32552,0.08073 0.4375,0.216146 0.11198,0.135417 0.13802,0.25 0.0286,0.111979 0.0286,0.622395 v 1.111979 h -1.01823 v -1.401041 q 0,-0.338542 -0.0547,-0.419271 -0.0521,-0.08073 -0.27865,-0.08073 v 1.901041 h -1.09635 z m 1.09635,0.721354 v 0.9375 q 0.1849,0 0.25782,-0.04948 0.0755,-0.05208 0.0755,-0.330729 v -0.231771 q 0,-0.200521 -0.0729,-0.263021 -0.0703,-0.0625 -0.26042,-0.0625 z"
       style="fill:#000000"
       id="path375" />
  </g>
  <g
     id="g347"
     transform="matrix(0.01638131,0,0,0.01638131,158.49424,292.70628)">
    <path
       d="M 392,488 H 120 A 48,48 0 0 1 72,440 V 72 a 48,48 0 0 1 48,-48 h 224 l 96,96 v 320 a 48,48 0 0 1 -48,48 z"
       fill="#cfd2fc"
       id="path316" />
    <path
       d="m 72,360 h 368 v 80 a 48,48 0 0 1 -48,48 H 120 A 48,48 0 0 1 72,440 Z"
       fill="#5153ff"
       id="path318" />
    <path
       d="M 440,120 H 392 A 48,48 0 0 1 344,72 V 24 Z"
       fill="#8690fa"
       id="path320" />
    <path
       d="m 352,224 a 8,8 0 0 0 0,-16 h -24 v -32 h 24 a 8,8 0 0 0 0,-16 h -24 v -24 a 8,8 0 0 0 -16,0 v 24 h -48 v -24 a 8,8 0 0 0 -16,0 v 24 h -48 v -24 a 8,8 0 0 0 -16,0 v 24 h -24 a 8,8 0 0 0 0,16 h 24 v 32 h -24 a 8,8 0 0 0 0,16 h 24 v 32 h -24 a 8,8 0 0 0 0,16 h 24 v 24 a 8,8 0 0 0 16,0 v -24 h 48 v 24 a 8,8 0 0 0 16,0 v -24 h 48 v 24 a 8,8 0 0 0 16,0 v -24 h 24 a 8,8 0 0 0 0,-16 h -24 v -32 z m -40,-48 v 32 h -48 v -32 z m -112,0 h 48 v 32 h -48 z m 0,80 v -32 h 48 v 32 z m 112,0 h -48 v -32 h 48 z"
       fill="#8690fa"
       id="path322" />
    <g
       fill="#ffffff"
       id="g330">
      <path
         d="m 256,400 h 16 a 8,8 0 0 0 0,-16 h -16 a 24,24 0 0 0 0,48 8,8 0 0 1 0,16 h -16 a 8,8 0 0 0 0,16 h 16 a 24,24 0 0 0 0,-48 8,8 0 0 1 0,-16 z"
         id="path324" />
      <path
         d="m 337.94,384.239 a 8,8 0 0 0 -9.7,5.821 L 320,423.016 311.761,390.06 a 8,8 0 1 0 -15.522,3.88 l 16,64 a 8,8 0 0 0 15.522,0 l 16,-64 a 8,8 0 0 0 -5.821,-9.701 z"
         id="path326" />
      <path
         d="m 200,400 a 10.675,10.675 0 0 1 4.588,1.058 8.0005422,8.0005422 0 0 0 6.824,-14.473 A 26.587,26.587 0 0 0 200,384 c -17.645,0 -32,17.944 -32,40 0,22.056 14.355,40 32,40 a 26.587,26.587 0 0 0 11.412,-2.585 8.0005422,8.0005422 0 0 0 -6.824,-14.473 A 10.675,10.675 0 0 1 200,448 c -8.673,0 -16,-10.99 -16,-24 0,-13.01 7.327,-24 16,-24 z"
         id="path328" />
    </g>
  </g>
  <g
     id="g172"
     transform="matrix(0.12145155,0,0,0.12145155,208.65277,294.89142)">
    <g
       id="g109">
	<path
   style="fill:#e9e9e0"
   d="M 36.985,0 H 7.963 C 7.155,0 6.5,0.655 6.5,1.926 V 55 c 0,0.345 0.655,1 1.463,1 H 48.037 C 48.845,56 49.5,55.345 49.5,55 V 12.978 c 0,-0.696 -0.093,-0.92 -0.257,-1.085 L 37.607,0.257 C 37.442,0.093 37.218,0 36.985,0 Z"
   id="path93-0" />

	<polygon
   style="fill:#d9d7ca"
   points="37.5,12 49.349,12 37.5,0.151 "
   id="polygon95" />

	<path
   style="fill:#f36fa0"
   d="M 48.037,56 H 7.963 C 7.155,56 6.5,55.345 6.5,54.537 V 39 h 43 V 54.537 C 49.5,55.345 48.845,56 48.037,56 Z"
   id="path97-9" />

	<g
   id="g105">
		<path
   style="fill:#ffffff"
   d="m 21.58,51.975 c -0.374,0.364 -0.798,0.638 -1.271,0.82 -0.474,0.183 -0.984,0.273 -1.531,0.273 -0.602,0 -1.155,-0.109 -1.661,-0.328 -0.506,-0.219 -0.948,-0.542 -1.326,-0.971 -0.378,-0.429 -0.675,-0.966 -0.889,-1.613 -0.214,-0.647 -0.321,-1.395 -0.321,-2.242 0,-0.847 0.107,-1.593 0.321,-2.235 0.214,-0.643 0.51,-1.178 0.889,-1.606 0.378,-0.429 0.822,-0.754 1.333,-0.978 0.51,-0.224 1.062,-0.335 1.654,-0.335 0.547,0 1.057,0.091 1.531,0.273 0.474,0.183 0.897,0.456 1.271,0.82 l -1.135,1.012 c -0.228,-0.265 -0.481,-0.456 -0.759,-0.574 -0.278,-0.118 -0.567,-0.178 -0.868,-0.178 -0.337,0 -0.659,0.063 -0.964,0.191 -0.306,0.128 -0.579,0.344 -0.82,0.649 -0.242,0.306 -0.431,0.699 -0.567,1.183 -0.136,0.484 -0.21,1.075 -0.219,1.777 0.009,0.684 0.08,1.267 0.212,1.75 0.132,0.483 0.314,0.877 0.547,1.183 0.233,0.306 0.497,0.528 0.793,0.67 0.296,0.142 0.608,0.212 0.937,0.212 0.329,0 0.636,-0.06 0.923,-0.178 0.287,-0.118 0.549,-0.31 0.786,-0.574 z"
   id="path99-7" />

		<path
   style="fill:#ffffff"
   d="m 29.633,50.238 c 0,0.364 -0.075,0.718 -0.226,1.06 -0.151,0.342 -0.362,0.643 -0.636,0.902 -0.274,0.259 -0.611,0.467 -1.012,0.622 -0.401,0.155 -0.857,0.232 -1.367,0.232 -0.219,0 -0.444,-0.012 -0.677,-0.034 -0.233,-0.022 -0.467,-0.062 -0.704,-0.116 -0.237,-0.055 -0.463,-0.13 -0.677,-0.226 -0.214,-0.096 -0.399,-0.212 -0.554,-0.349 l 0.287,-1.176 c 0.127,0.073 0.289,0.144 0.485,0.212 0.196,0.068 0.398,0.132 0.608,0.191 0.209,0.06 0.419,0.107 0.629,0.144 0.209,0.036 0.405,0.055 0.588,0.055 0.556,0 0.982,-0.13 1.278,-0.39 0.296,-0.26 0.444,-0.645 0.444,-1.155 0,-0.31 -0.105,-0.574 -0.314,-0.793 C 27.575,49.198 27.313,49 26.999,48.822 26.685,48.644 26.345,48.467 25.98,48.289 25.615,48.111 25.273,47.901 24.955,47.66 c -0.319,-0.241 -0.583,-0.526 -0.793,-0.854 -0.21,-0.328 -0.314,-0.738 -0.314,-1.23 0,-0.446 0.082,-0.843 0.246,-1.189 0.164,-0.346 0.385,-0.641 0.663,-0.882 0.278,-0.241 0.602,-0.426 0.971,-0.554 0.369,-0.128 0.759,-0.191 1.169,-0.191 0.419,0 0.843,0.039 1.271,0.116 0.428,0.077 0.774,0.203 1.039,0.376 -0.055,0.118 -0.119,0.248 -0.191,0.39 -0.073,0.142 -0.142,0.273 -0.205,0.396 -0.064,0.123 -0.119,0.226 -0.164,0.308 -0.046,0.082 -0.073,0.128 -0.082,0.137 C 28.51,44.456 28.449,44.42 28.38,44.374 28.311,44.328 28.213,44.283 28.086,44.237 27.958,44.191 27.79,44.16 27.58,44.141 c -0.21,-0.019 -0.479,-0.014 -0.807,0.014 -0.183,0.019 -0.355,0.07 -0.52,0.157 -0.165,0.087 -0.31,0.193 -0.438,0.321 -0.128,0.128 -0.228,0.271 -0.301,0.431 -0.073,0.159 -0.109,0.313 -0.109,0.458 0,0.364 0.104,0.658 0.314,0.882 0.209,0.224 0.469,0.419 0.779,0.588 0.31,0.169 0.647,0.333 1.012,0.492 0.364,0.159 0.704,0.354 1.019,0.581 0.315,0.227 0.576,0.513 0.786,0.854 0.213,0.342 0.318,0.781 0.318,1.319 z"
   id="path101-3" />

		<path
   style="fill:#ffffff"
   d="M 34.035,53.055 30.904,42.924 h 1.873 l 2.338,8.695 2.475,-8.695 h 1.859 l -3.281,10.131 z"
   id="path103-4" />

	</g>

	<path
   style="fill:#c8bdb8"
   d="m 23.5,16 v -4 h -12 v 4 2 2 2 2 2 2 2 4 h 10 2 21 v -4 -2 -2 -2 -2 -2 -4 z m -10,-2 h 8 v 2 h -8 z m 0,4 h 8 v 2 h -8 z m 0,4 h 8 v 2 h -8 z m 0,4 h 8 v 2 h -8 z m 8,6 h -8 v -2 h 8 z m 21,0 h -19 v -2 h 19 z m 0,-4 h -19 v -2 h 19 z m 0,-4 h -19 v -2 h 19 z m -19,-4 v -2 h 19 v 2 z"
   id="path107-7" />

</g>
    <g
       id="g111">
</g>
    <g
       id="g113">
</g>
    <g
       id="g115">
</g>
    <g
       id="g117">
</g>
    <g
       id="g119">
</g>
    <g
       id="g121">
</g>
    <g
       id="g123">
</g>
    <g
       id="g125">
</g>
    <g
       id="g127">
</g>
    <g
       id="g129">
</g>
    <g
       id="g131">
</g>
    <g
       id="g133">
</g>
    <g
       id="g135">
</g>
    <g
       id="g137">
</g>
    <g
       id="g139">
</g>
  </g>
</svg>
