<?xml version="1.0" encoding="UTF-8" standalone="no"?>
<svg
   viewBox="0 0 225 150"
   version="1.1"
   id="svg280"
   sodipodi:docname="custom-export-plugin-woocommerce.svg"
   width="225"
   height="150"
   inkscape:version="1.3.2 (091e20e, 2023-11-25, custom)"
   xmlns:inkscape="http://www.inkscape.org/namespaces/inkscape"
   xmlns:sodipodi="http://sodipodi.sourceforge.net/DTD/sodipodi-0.dtd"
   xmlns="http://www.w3.org/2000/svg"
   xmlns:svg="http://www.w3.org/2000/svg" xmlns:xlink="http://www.w3.org/1999/xlink">
   <defs>
    <animate xlink:href="#polygon216" attributeName="fill" values="#000000;#FF725E" dur="3s" repeatCount="indefinite"></animate>
  </defs>
  <defs
     id="defs280" />
  <sodipodi:namedview
     id="namedview280"
     pagecolor="#ffffff"
     bordercolor="#111111"
     borderopacity="1"
     inkscape:showpageshadow="0"
     inkscape:pageopacity="0"
     inkscape:pagecheckerboard="1"
     inkscape:deskcolor="#d1d1d1"
     inkscape:zoom="9.368"
     inkscape:cx="87.959009"
     inkscape:cy="55.027754"
     inkscape:window-width="2560"
     inkscape:window-height="1406"
     inkscape:window-x="-11"
     inkscape:window-y="-11"
     inkscape:window-maximized="1"
     inkscape:current-layer="freepik--Screen--inject-349" />
  <g
     id="g280"
     transform="matrix(0.33539268,0,0,0.33539268,29.13366,-10.420406)">
    <g
       id="freepik--background-complete--inject-349">
      <path
         d="M 448.47,299.55 C 448.47,299.55 439.47,296.55 435.15,317.37 430.83,338.19 430.15,349.64 430.15,349.64 430.15,349.64 428.74,354.13 425.43,352.35 422.12,350.57 416.59,344.46 412.43,346.96 408.27,349.46 408.05,355.13 411.01,362.48 413.97,369.83 419.85,386.17 420.38,387.65 420.91,389.13 420.64,391.52 418.19,390.65 415.74,389.78 400.28,379.83 395.99,387.45 391.7,395.07 403.3,414.2 404.52,416.31 405.74,418.42 405.52,419.52 404.64,420.38 403.76,421.24 398.83,417.38 394.32,414.75 389.81,412.12 384.1,409.81 382,414.41 379.9,419.01 383.14,434.85 404.85,456.09 L 415.56,465.27 429,460.78 C 457.17,449.44 466.21,436.03 466,430.97 465.79,425.91 459.67,425.85 454.48,426.59 449.29,427.33 443.32,429.01 442.79,427.86 442.26,426.71 442.51,425.63 444.45,424.14 446.39,422.65 464.4,409.4 463.34,400.72 462.28,392.04 444.19,395.35 441.6,395.21 439.01,395.07 439.7,392.73 440.73,391.59 441.76,390.45 453.45,377.59 458.99,371.89 464.53,366.19 466.55,361.02 463.59,357 460.63,352.98 453.3,356.66 449.59,357.05 445.88,357.44 446.26,352.74 446.26,352.74 446.26,352.74 450.11,341.89 454,321 457.89,300.11 448.25,299.47 448.25,299.47"
         style="fill:#ebebeb"
         id="path1" />
      <path
         d="M 415.56,462.31 C 418.51,447 422.76,425.89 427.56,402.58 432.36,379.27 436.64,358.19 439.67,342.9 L 443.25,324.79 C 443.67,322.67 444,321.01 444.25,319.87 444.37,319.32 444.46,318.87 444.52,318.59 A 3.59,3.59 0 0 1 444.63,318.16 C 444.63,318.16 444.63,318.31 444.57,318.6 444.51,318.89 444.44,319.34 444.35,319.88 444.14,321.04 443.84,322.7 443.46,324.82 442.68,329.11 441.46,335.31 440.04,342.97 437.09,358.27 432.84,379.38 428.04,402.68 423.24,425.98 418.96,447.09 415.93,462.38"
         style="fill:#e0e0e0"
         id="path2" />
      <path
         d="M 419.91,355.81 A 4.07,4.07 0 0 1 420.51,356.64 C 420.88,357.18 421.38,357.99 421.99,358.99 423.2,360.99 424.8,363.81 426.51,366.94 L 430.86,375 432.18,377.43 A 3.75,3.75 0 0 1 432.63,378.35 4.77,4.77 0 0 1 432.02,377.52 C 431.66,376.98 431.16,376.17 430.56,375.16 429.36,373.16 427.8,370.31 426.09,367.16 L 421.69,359.16 C 421.16,358.16 420.69,357.4 420.35,356.73 A 3.9,3.9 0 0 1 419.91,355.81 Z"
         style="fill:#e0e0e0"
         id="path3" />
      <path
         d="M 434,378.25 C 433.93,378.13 439.58,374.57 446.62,370.25 453.66,365.93 459.42,362.59 459.49,362.71 459.56,362.83 453.91,366.38 446.87,370.71 439.83,375.04 434,378.36 434,378.25 Z"
         style="fill:#e0e0e0"
         id="path4" />
      <path
         d="M 425,413.7 A 4.45,4.45 0 0 1 426,413.37 L 428.73,412.63 C 431.03,412 434.21,411.12 437.73,410.03 441.25,408.94 444.32,407.85 446.57,407.03 L 449.23,406.03 A 4.77,4.77 0 0 1 450.23,405.73 4,4 0 0 1 449.3,406.2 C 448.69,406.48 447.8,406.86 446.69,407.3 444.47,408.19 441.36,409.3 437.87,410.43 434.38,411.56 431.18,412.35 428.87,412.9 427.71,413.17 426.76,413.37 426.1,413.49 A 4.32,4.32 0 0 1 425,413.7 Z"
         style="fill:#e0e0e0"
         id="path5" />
      <path
         d="M 407.84,396.2 A 4.1,4.1 0 0 1 408.58,396.81 C 409.04,397.23 409.7,397.81 410.49,398.6 412.09,400.13 414.28,402.26 416.67,404.6 419.06,406.94 421.2,409.14 422.74,410.73 423.51,411.52 424.12,412.17 424.54,412.63 424.96,413.09 425.18,413.35 425.15,413.37 A 4,4 0 0 1 424.41,412.76 C 423.95,412.35 423.3,411.76 422.5,410.97 420.9,409.45 418.72,407.31 416.33,404.97 413.94,402.63 411.79,400.42 410.25,398.83 L 408.45,396.94 C 408,396.49 407.81,396.23 407.84,396.2 Z"
         style="fill:#e0e0e0"
         id="path6" />
      <path
         d="M 396,426.5 A 5.43,5.43 0 0 1 397,427.29 L 399.45,429.58 C 401.51,431.52 404.33,434.23 407.45,437.25 410.57,440.27 413.33,443.01 415.33,445.02 L 417.67,447.42 A 6.55,6.55 0 0 1 418.49,448.34 5.92,5.92 0 0 1 417.54,447.55 L 415,445.27 C 412.94,443.32 410.12,440.61 407,437.59 403.88,434.57 401.12,431.83 399.13,429.82 L 396.78,427.42 A 6.55,6.55 0 0 1 396,426.5 Z"
         style="fill:#e0e0e0"
         id="path7" />
      <path
         d="M 418,447.67 A 7,7 0 0 1 419.24,447.22 L 422.67,446.16 C 425.57,445.26 429.56,444 433.93,442.49 438.3,440.98 442.23,439.49 445.06,438.49 L 448.42,437.22 A 7.65,7.65 0 0 1 449.67,436.81 6.2,6.2 0 0 1 448.49,437.4 C 447.72,437.75 446.59,438.23 445.19,438.81 442.38,439.97 438.47,441.48 434.09,442.99 429.71,444.5 425.69,445.71 422.77,446.53 421.31,446.93 420.12,447.25 419.29,447.44 A 6.49,6.49 0 0 1 418,447.67 Z"
         style="fill:#e0e0e0"
         id="path8" />
      <path
         d="M 215.07,125 177.65,107.14 A 5.19,5.19 0 0 1 175.21,100.22 L 199.93,48.43 A 5.19,5.19 0 0 1 206.85,46 L 230.58,57.32 239.91,85 222,122.58 A 5.19,5.19 0 0 1 215.07,125 Z"
         style="fill:#ebebeb"
         id="path9" />
      <path
         d="M 230.58,57.33 223.58,71.91 A 4.82,4.82 0 0 0 225.86,78.34 L 239.86,85.04 Z"
         style="fill:#f5f5f5"
         id="path10" />
      <path
         d="M 223.2,73.28 A 5.37,5.37 0 0 0 224.8,79.81 C 224.93,79.93 225.07,80.03 225.21,80.14 226.89,81.34 237.91,89.23 238.04,88.95 L 239.91,85 225.91,78.31 C 225.91,78.31 222.45,76.56 223.2,73.28 Z"
         style="fill:#e0e0e0"
         id="path11" />
      <path
         d="M 220.77,69.82 C 220.68,70 216.77,68.31 211.95,66.02 207.13,63.73 203.37,61.74 203.46,61.55 203.55,61.36 207.46,63.06 212.28,65.35 217.1,67.64 220.86,69.63 220.77,69.82 Z"
         style="fill:#fafafa"
         id="path12" />
      <path
         d="M 228,83.4 C 227.91,83.58 221.46,80.69 213.6,76.93 205.74,73.17 199.42,69.93 199.51,69.79 199.6,69.65 206.05,72.5 213.92,76.26 221.79,80.02 228.1,83.21 228,83.4 Z"
         style="fill:#fafafa"
         id="path13" />
      <path
         d="M 227.29,91.5 C 227.21,91.69 220.18,88.5 211.6,84.43 203.02,80.36 196.15,76.86 196.24,76.68 196.33,76.5 203.35,79.68 211.93,83.75 220.51,87.82 227.38,91.32 227.29,91.5 Z"
         style="fill:#fafafa"
         id="path14" />
      <path
         d="M 224.2,98 C 224.11,98.18 217.08,95 208.51,90.92 199.94,86.84 193.05,83.36 193.14,83.17 193.23,82.98 200.25,86.17 208.83,90.24 217.41,94.31 224.28,97.81 224.2,98 Z"
         style="fill:#fafafa"
         id="path15" />
      <path
         d="M 221.1,104.49 C 221.01,104.68 213.98,101.49 205.41,97.41 196.84,93.33 190,89.85 190,89.66 190,89.47 197.11,92.66 205.69,96.74 214.27,100.82 221.18,104.3 221.1,104.49 Z"
         style="fill:#fafafa"
         id="path16" />
      <path
         d="M 218,111 C 217.91,111.19 210.88,108 202.31,103.93 193.74,99.86 186.85,96.36 186.94,96.18 187.03,96 194.05,99.18 202.63,103.25 211.21,107.32 218.09,110.79 218,111 Z"
         style="fill:#fafafa"
         id="path17" />
      <path
         d="M 425.23,387.39 H 349.76 C 349.76,387.39 348.87,369.63 364.55,368.44 364.55,368.44 367.16,353.44 384.68,353.35 405.68,353.25 405.95,371.55 405.95,371.55 405.95,371.55 423.16,369.92 425.23,387.39"
         style="fill:#fafafa"
         id="path18" />
      <polygon
         points="60.69,392.37 66.1,392.37 66.76,392.37 72.18,392.37 72.18,373.77 80.94,373.77 66.43,360.63 51.93,373.77 60.69,373.77 "
         style="fill:#ebebeb"
         id="polygon18" />
      <polygon
         points="433.15,144.93 439.77,144.93 440.58,144.93 447.2,144.93 447.2,122.2 457.9,122.2 440.17,106.13 422.44,122.2 433.15,122.2 "
         style="fill:#ebebeb"
         id="polygon19" />
      <rect
         x="54.16"
         y="103.69"
         width="53.560001"
         height="66.989998"
         transform="rotate(-77.39,80.942307,137.19073)"
         style="fill:#ebebeb"
         id="rect19" />
      <rect
         x="57.48"
         y="106.04"
         width="46.82"
         height="62.290001"
         transform="rotate(-77.39,80.896096,137.18445)"
         style="fill:#f5f5f5"
         id="rect20" />
      <polygon
         points="45.39,153.23 72.97,129.58 82.15,150.28 93.19,142.78 106.18,166.82 "
         style="fill:#e0e0e0"
         id="polygon20" />
      <path
         d="M 92.49,130.29 A 4.91,4.91 0 1 1 88.77,124.43 4.91,4.91 0 0 1 92.49,130.29 Z"
         style="fill:#e0e0e0"
         id="path20" />
    </g>
    <g
       id="freepik--Floor--inject-349">
      <path
         d="M 483.79,464.92 C 483.79,465.07 379.11,465.18 250.01,465.18 120.91,465.18 16.21,465.07 16.21,464.92 16.21,464.77 120.87,464.66 250.01,464.66 379.15,464.66 483.79,464.78 483.79,464.92 Z"
         style="fill:#263238"
         id="path21" />
    </g>
    <g
       id="freepik--Plant--inject-349">
      <path
         d="M 415.8,428.1 C 414.09,430.54 410.8,429.73 409.23,428.24 407.66,426.75 407.03,424.59 406.44,422.53 405.09,417.83 403.72,412.89 404.73,408.1 A 8.05,8.05 0 0 1 406.57,404.18 4.17,4.17 0 0 1 410.57,402.86 C 412.25,403.3 413.29,404.94 414.04,406.5 A 34.46,34.46 0 0 1 417.44,421.26 11.93,11.93 0 0 1 415.83,428.1"
         style="fill:#ff725e"
         id="path22" />
      <g
         style="opacity:0.2"
         id="g23">
        <path
           d="M 415.8,428.1 C 414.09,430.54 410.8,429.73 409.23,428.24 407.66,426.75 407.03,424.59 406.44,422.53 405.09,417.83 403.72,412.89 404.73,408.1 A 8.05,8.05 0 0 1 406.57,404.18 4.17,4.17 0 0 1 410.57,402.86 C 412.25,403.3 413.29,404.94 414.04,406.5 A 34.46,34.46 0 0 1 417.44,421.26 11.93,11.93 0 0 1 415.83,428.1"
           id="path23" />
      </g>
      <path
         d="M 409.39,440.46 A 14.77,14.77 0 0 0 400.2,439.35 7.64,7.64 0 0 0 395.66,441.35 C 394.53,442.6 394.31,444.81 395.66,445.88 A 4.34,4.34 0 0 0 398.52,446.61 C 400.95,446.61 403.64,446.15 405.58,447.61 406.69,448.44 407.43,449.83 408.75,450.24 A 3.14,3.14 0 0 0 412.2,448.7 5.36,5.36 0 0 0 412.59,444.76 6.05,6.05 0 0 0 409.39,440.46 Z"
         style="fill:#ff725e"
         id="path24" />
      <path
         d="M 420.49,431.6 A 8.85,8.85 0 0 1 419.11,423.43 15.66,15.66 0 0 1 423.95,416.43 26,26 0 0 1 432.62,411.31 9.17,9.17 0 0 1 436.52,410.65 4.1,4.1 0 0 1 439.79,412.65 C 440.7,414.39 439.79,416.5 438.88,418.22 A 66.39,66.39 0 0 1 433.19,426.89 C 431.48,429.09 429.52,431.26 426.92,432.26 424.32,433.26 421.62,433.13 420.24,431.33"
         style="fill:#ff725e"
         id="path25" />
      <path
         d="M 415.91,464.92 A 5.5,5.5 0 0 1 415.76,463.81 L 415.46,460.81 A 41.5,41.5 0 0 0 414.78,456.37 33.72,33.72 0 0 0 413.17,451.13 19.48,19.48 0 0 0 410.49,446.38 10.1,10.1 0 0 0 407.11,443.57 9.73,9.73 0 0 0 404.26,442.68 5.64,5.64 0 0 1 403.16,442.53 4.39,4.39 0 0 1 404.28,442.53 8.7,8.7 0 0 1 407.28,443.3 10,10 0 0 1 410.85,446.14 18.41,18.41 0 0 1 413.62,450.98 32.47,32.47 0 0 1 415.23,456.3 40.85,40.85 0 0 1 415.82,460.8 C 415.91,462.08 415.95,463.12 415.97,463.8 A 5.44,5.44 0 0 1 415.91,464.92 Z"
         style="fill:#263238"
         id="path26" />
      <path
         d="M 415.7,462.59 A 3.28,3.28 0 0 1 415.7,462.08 C 415.7,461.69 415.7,461.21 415.7,460.61 415.7,459.33 415.7,457.48 415.63,455.2 415.52,450.63 415.13,444.33 414.37,437.41 413.61,430.49 412.59,424.25 411.66,419.77 411.45,418.65 411.23,417.64 411.02,416.77 410.81,415.9 410.65,415.12 410.49,414.51 L 410.15,413.07 A 1.58,1.58 0 0 1 410.06,412.57 3,3 0 0 1 410.24,413.05 L 410.66,414.46 C 410.85,415.07 411.05,415.83 411.27,416.71 411.49,417.59 411.74,418.6 411.98,419.71 A 164.25,164.25 0 0 1 414.82,437.36 C 415.58,444.3 415.93,450.62 415.96,455.19 415.96,457.48 415.96,459.33 415.88,460.61 Q 415.82,461.51 415.79,462.08 A 1.75,1.75 0 0 1 415.7,462.59 Z"
         style="fill:#263238"
         id="path27" />
      <path
         d="M 415.67,450.41 A 11.4,11.4 0 0 1 415.67,448.87 C 415.73,447.87 415.87,446.45 416.14,444.7 A 55.85,55.85 0 0 1 417.5,438.63 53.66,53.66 0 0 1 420.04,431.45 38.15,38.15 0 0 1 427.49,419.85 18,18 0 0 1 429.24,418.22 C 429.51,417.99 429.75,417.76 429.99,417.58 430.23,417.4 430.46,417.26 430.67,417.11 A 8.37,8.37 0 0 1 431.97,416.29 44.81,44.81 0 0 0 427.72,420.07 40.59,40.59 0 0 0 420.46,431.63 56.06,56.06 0 0 0 417.91,438.75 C 417.24,440.98 416.8,443.03 416.46,444.75 416.12,446.47 415.96,447.89 415.85,448.87 A 10,10 0 0 1 415.67,450.41 Z"
         style="fill:#263238"
         id="path28" />
    </g>
    <g
       id="freepik--Files--inject-349">
      <rect
         x="288.03"
         y="42.740002"
         width="63.959999"
         height="80"
         transform="rotate(-79.98,319.98592,82.753183)"
         style="fill:#ebebeb"
         id="rect28" />
      <path
         d="M 365,58.22 364.61,58.16 363.47,58 359.19,57.26 343.05,54.47 286.15,44.47 286.39,44.31 C 283.08,63.05 279.29,84.55 275.28,107.31 V 107.31 L 275.09,107.05 353.87,121.05 353.64,121.21 C 357.04,102.21 359.85,86.53 361.82,75.54 362.82,70.05 363.59,65.74 364.12,62.79 L 364.74,59.42 C 364.88,58.66 364.97,58.26 364.97,58.26 L 364.79,59.39 C 364.66,60.15 364.47,61.27 364.22,62.72 363.71,65.67 362.97,69.97 362.02,75.46 360.1,86.46 357.34,102.25 354.02,121.27 V 121.46 H 353.83 L 275,107.5 H 274.77 V 107.27 107.27 C 278.77,84.53 282.61,63.04 285.93,44.27 V 44.07 H 286.13 L 343.13,54.25 359.2,57.14 363.44,57.92 364.52,58.12 Z"
         style="fill:#263238"
         id="path29" />
      <rect
         x="292"
         y="45.540001"
         width="55.91"
         height="74.379997"
         transform="rotate(-79.98,319.94112,82.746065)"
         style="fill:#ff725e"
         id="rect29" />
      <polygon
         points="278.47,103.79 310.1,74.09 322.16,98.3 334.94,88.76 351.71,116.74 "
         style="fill:#ff725e"
         id="polygon29" />
      <path
         d="M 333.42,73.89 A 5.86,5.86 0 1 1 328.67,67.1 5.87,5.87 0 0 1 333.42,73.89 Z"
         style="fill:#ff725e"
         id="path30" />
      <g
         style="opacity:0.2"
         id="g30">
        <polygon
           points="278.47,103.79 310.1,74.09 322.16,98.3 334.94,88.76 351.71,116.74 "
           id="polygon30" />
      </g>
      <g
         style="opacity:0.2"
         id="g31">
        <path
           d="M 333.42,73.89 A 5.86,5.86 0 1 1 328.67,67.1 5.87,5.87 0 0 1 333.42,73.89 Z"
           id="path31" />
      </g>
      <path
         d="M 430.47,272.14 384.93,258.77 A 5.94,5.94 0 0 1 380.93,251.4 L 399.43,188.4 A 6,6 0 0 1 406.81,184.4 L 435.69,192.88 451.28,222.48 437.87,268.17 A 5.94,5.94 0 0 1 430.47,272.14 Z"
         style="fill:#ff725e"
         id="path32" />
      <path
         d="M 427.92,238.47 C 427.92,238.47 428.3,238.57 429.04,238.63 A 5.63,5.63 0 0 0 432.13,237.89 5.53,5.53 0 0 0 433.82,236.35 5,5 0 0 0 434.45,235.19 C 434.61,234.77 434.74,234.29 434.87,233.81 L 436.77,227.24 437.87,223.42 C 438.06,222.75 438.26,222.07 438.46,221.42 A 9.51,9.51 0 0 0 438.91,219.33 6.09,6.09 0 0 0 437.61,215.16 5.93,5.93 0 0 0 435.85,213.66 9.42,9.42 0 0 0 433.58,212.82 L 412.67,206.73 A 5.87,5.87 0 0 0 407.59,208.2 5.61,5.61 0 0 0 406.12,210.42 C 405.82,211.26 405.59,212.18 405.32,213.04 404.32,216.54 403.32,219.91 402.32,223.13 402.09,223.93 401.8,224.74 401.65,225.49 A 5.56,5.56 0 0 0 401.73,227.79 5.48,5.48 0 0 0 404.35,231.23 8.66,8.66 0 0 0 406.35,231.98 L 408.35,232.59 412.16,233.72 423.66,237.18 426.77,238.18 427.58,238.45 427.85,238.55 427.57,238.5 426.75,238.28 423.6,237.41 412.13,234 408.31,232.9 406.31,232.31 A 9.7,9.7 0 0 1 404.21,231.54 5.91,5.91 0 0 1 401.37,227.84 5.8,5.8 0 0 1 401.27,225.35 C 401.44,224.51 401.71,223.76 401.93,222.94 L 404.93,212.84 C 405.2,211.96 405.42,211.1 405.73,210.19 A 6.11,6.11 0 0 1 407.33,207.78 6.34,6.34 0 0 1 412.85,206.18 C 420.33,208.31 427.35,210.42 433.79,212.31 A 10.77,10.77 0 0 1 436.16,213.2 6.71,6.71 0 0 1 438.04,214.83 6.54,6.54 0 0 1 439.41,219.29 9.58,9.58 0 0 1 438.92,221.48 C 438.72,222.16 438.52,222.84 438.32,223.48 437.93,224.81 437.55,226.08 437.19,227.3 L 435.19,233.85 C 435.05,234.33 434.92,234.85 434.74,235.25 A 5.56,5.56 0 0 1 434.07,236.45 5.66,5.66 0 0 1 432.28,238.02 5.51,5.51 0 0 1 429.09,238.69 4.11,4.11 0 0 1 427.92,238.47 Z"
         style="fill:#fafafa"
         id="path33" />
      <path
         d="M 433.91,237 C 433.91,237 433.81,236.86 433.68,236.56 433.55,236.26 433.34,235.79 433.11,235.27 L 431.11,230.48 C 430.69,229.48 430.24,228.35 429.76,227.16 429.51,226.57 429.26,225.95 429.01,225.32 L 428.62,224.32 A 1.75,1.75 0 0 0 428.01,223.61 1.68,1.68 0 0 0 426.17,223.61 L 424.31,225 420.31,227.85 418.53,229.12 418.31,229.28 418.17,229.04 416,225.13 415.47,224.19 A 2.66,2.66 0 0 0 414.91,223.4 1.78,1.78 0 0 0 413.22,223.01 3.85,3.85 0 0 0 412.4,223.41 L 411.57,223.88 409.99,224.77 407.16,226.36 403.07,228.62 401.95,229.21 A 2.29,2.29 0 0 1 401.55,229.39 C 401.55,229.39 401.66,229.28 401.9,229.13 402.14,228.98 402.55,228.72 402.98,228.46 L 406.98,226.07 409.78,224.43 411.35,223.51 412.17,223.03 A 3.94,3.94 0 0 1 413.09,222.58 2.24,2.24 0 0 1 415.21,223.05 3.11,3.11 0 0 1 415.87,223.95 L 416.4,224.89 C 417.12,226.15 417.87,227.45 418.63,228.79 L 418.27,228.71 420.05,227.44 424.05,224.6 425.95,223.25 A 2.13,2.13 0 0 1 429.07,224.16 L 429.46,225.16 430.18,227.02 431.48,230.36 C 432.24,232.36 432.86,233.99 433.32,235.21 433.52,235.74 433.67,236.21 433.8,236.54 A 1.93,1.93 0 0 1 433.91,237 Z"
         style="fill:#fafafa"
         id="path34" />
      <path
         d="M 419.75,219.48 C 419.75,219.48 420.03,219.48 420.51,219.48 A 3.07,3.07 0 0 0 422.35,218.83 2.88,2.88 0 1 0 417.91,217.53 3.1,3.1 0 0 0 419.11,219.07 C 419.51,219.33 419.77,219.41 419.75,219.46 A 1.52,1.52 0 0 1 419.01,219.24 3.12,3.12 0 0 1 417.58,217.66 3.25,3.25 0 0 1 417.95,214.53 3.31,3.31 0 0 1 423.95,216.29 3.26,3.26 0 0 1 422.57,219.12 3,3 0 0 1 420.51,219.67 1.52,1.52 0 0 1 419.75,219.48 Z"
         style="fill:#fafafa"
         id="path35" />
      <g
         style="opacity:0.2"
         id="g36">
        <path
           d="M 381.35,242.39 H 440.69 V 259.57 A 6.36,6.36 0 0 1 434.33,265.93 H 387.7 A 6.36,6.36 0 0 1 381.34,259.57 V 242.39 Z"
           transform="rotate(16.36,410.93284,254.09613)"
           id="path36" />
      </g>
      <path
         d="M 435.66,192.82 430.45,210.56 A 5.52,5.52 0 0 0 434.2,217.41 L 451.25,222.41 Z"
         style="fill:#ff725e"
         id="path37" />
      <g
         style="opacity:0.2"
         id="g38">
        <path
           d="M 430.23,212.18 C 430.23,212.18 428.74,216.42 433.23,219.27 A 5.45,5.45 0 0 0 433.76,219.56 C 435.87,220.61 449.76,227.56 449.86,227.19 L 451.26,222.42 434.2,217.42 C 434.2,217.42 430,216 430.23,212.18 Z"
           id="path38" />
      </g>
      <path
         d="M 406.16,251.85 408.03,252.4 407,256 A 6.43,6.43 0 0 1 403.09,256.07 4.78,4.78 0 1 1 405.82,246.92 4.94,4.94 0 0 1 409.08,249.54 L 407.4,250.37 A 3.09,3.09 0 0 0 405.4,248.7 3,3 0 1 0 403.71,254.36 3.48,3.48 0 0 0 405.41,254.45 Z"
         style="fill:#fafafa"
         id="path39" />
      <path
         d="M 411.18,248.67 413.23,249.27 410.63,258.13 408.58,257.53 Z"
         style="fill:#fafafa"
         id="path40" />
      <path
         d="M 416.89,252.13 416.21,254.47 420.31,255.68 419.82,257.32 415.72,256.12 414.78,259.34 412.78,258.74 415.38,249.89 422.07,251.89 421.59,253.54 Z"
         style="fill:#fafafa"
         id="path41" />
      <path
         d="M 132.89,260.44 91.68,269.9 A 5.28,5.28 0 0 1 85.34,265.9 L 72.25,208.9 A 5.28,5.28 0 0 1 76.25,202.56 L 102.39,196.56 127.39,212.77 136.88,254.11 A 5.28,5.28 0 0 1 132.89,260.44 Z"
         style="fill:#ff725e"
         id="path42" />
      <path
         d="M 102.36,196.55 106.04,212.55 A 4.92,4.92 0 0 0 111.94,216.25 L 127.37,212.71 Z"
         style="fill:#ff725e"
         id="path43" />
      <g
         style="opacity:0.2"
         id="g44">
        <path
           d="M 106.57,214 A 5.49,5.49 0 0 0 111.99,218.21 4.87,4.87 0 0 0 112.53,218.21 C 114.62,218.11 128.43,217.43 128.36,217.12 L 127.36,212.81 111.93,216.35 C 111.93,216.35 108.05,217.05 106.57,214 Z"
           id="path44" />
      </g>
      <g
         style="opacity:0.3"
         id="g45">
        <path
           d="M 102.36,196.55 106.04,212.55 A 4.92,4.92 0 0 0 111.94,216.25 L 127.37,212.71 Z"
           style="fill:#ffffff"
           id="path45" />
      </g>
      <path
         d="M 102.43,212.74 C 102.43,212.95 98.25,214.1 92.99,215.3 87.73,216.5 83.42,217.3 83.37,217.12 83.32,216.94 87.55,215.77 92.82,214.56 98.09,213.35 102.39,212.54 102.43,212.74 Z"
         style="fill:#fafafa"
         id="path46" />
      <path
         d="M 116.83,219 C 116.83,219.21 109.89,221 101.23,223 92.57,225 85.5,226.4 85.45,226.2 85.4,226 92.39,224.2 101.06,222.2 109.73,220.2 116.78,218.79 116.83,219 Z"
         style="fill:#fafafa"
         id="path47" />
      <path
         d="M 121.4,225.92 C 121.4,226.13 113.83,228.05 104.4,230.22 94.97,232.39 87.24,234 87.19,233.77 87.14,233.54 94.76,231.64 104.19,229.48 113.62,227.32 121.35,225.72 121.4,225.92 Z"
         style="fill:#fafafa"
         id="path48" />
      <path
         d="M 123,233.07 C 123,233.28 115.43,235.21 106,237.37 96.57,239.53 88.86,241.13 88.81,240.93 88.76,240.73 96.38,238.79 105.81,236.63 115.24,234.47 123,232.87 123,233.07 Z"
         style="fill:#fafafa"
         id="path49" />
      <path
         d="M 124.68,240.22 C 124.68,240.43 117.11,242.36 107.68,244.52 98.25,246.68 90.54,248.28 90.5,248.08 90.46,247.88 98.07,245.95 107.5,243.78 116.93,241.61 124.63,240 124.68,240.22 Z"
         style="fill:#fafafa"
         id="path50" />
      <path
         d="M 126.32,247.38 C 126.37,247.58 118.75,249.51 109.32,251.67 99.89,253.83 92.17,255.43 92.13,255.23 92.09,255.03 99.7,253.1 109.13,250.93 118.56,248.76 126.27,247.17 126.32,247.38 Z"
         style="fill:#fafafa"
         id="path51" />
    </g>
    <g
       id="freepik--Screen--inject-349">
      <rect
         x="131.32001"
         y="102.19"
         width="272.62"
         height="240.08"
         style="fill:#f5f5f5"
         id="rect51" />
      <path
         d="M 403.94,342.27 C 403.94,340.42 403.85,246.67 403.72,102.19 L 403.94,102.41 H 131.35 V 102.41 L 131.61,102.15 C 131.61,189.41 131.61,271.58 131.61,342.23 L 131.38,342.01 404,342.23 131.38,342.46 H 131.15 V 342.23 C 131.15,271.58 131.15,189.41 131.15,102.15 V 101.89 H 131.44 404.03 404.25 V 102.11 C 404,246.67 403.94,340.42 403.94,342.27 Z"
         style="fill:#263238"
         id="path52" />
      <path
         d="M 174.86,193.21 H 159.4 A 1.93,1.93 0 0 1 157.46,191.28 V 169.87 A 1.94,1.94 0 0 1 159.4,167.93 H 169.2 L 176.8,175.76 V 191.28 A 1.93,1.93 0 0 1 174.86,193.21 Z"
         style="fill:#ff725e"
         id="path53" />
      <path
         d="M 169.2,167.93 V 173.93 A 1.81,1.81 0 0 0 171,175.73 H 176.8 Z"
         style="fill:#ff725e"
         id="path54" />
      <g
         style="opacity:0.2"
         id="g55">
        <path
           d="M 169.28,174.49 A 2,2 0 0 0 170.87,176.43 H 171.06 C 171.82,176.57 176.8,177.43 176.8,177.34 V 175.72 H 171 C 171,175.72 169.56,175.71 169.28,174.49 Z"
           id="path55" />
      </g>
      <g
         style="opacity:0.3"
         id="g56">
        <path
           d="M 169.2,167.93 V 173.93 A 1.81,1.81 0 0 0 171,175.73 H 176.8 Z"
           style="fill:#ffffff"
           id="path56" />
      </g>
      <path
         d="M 167.91,173.71 A 22.59,22.59 0 0 1 164.33,173.85 22.59,22.59 0 0 1 160.75,173.71 24.11,24.11 0 0 1 164.33,173.57 24.11,24.11 0 0 1 167.91,173.71 Z"
         style="fill:#fafafa"
         id="path57" />
      <path
         d="M 172.53,177.12 C 172.53,177.2 169.89,177.26 166.64,177.26 163.39,177.26 160.75,177.2 160.75,177.12 160.75,177.04 163.39,176.98 166.64,176.98 169.89,176.98 172.53,177 172.53,177.12 Z"
         style="fill:#fafafa"
         id="path58" />
      <path
         d="M 173.59,180 C 173.59,180.08 170.72,180.14 167.17,180.14 163.62,180.14 160.75,180.08 160.75,180 160.75,179.92 163.63,179.86 167.17,179.86 170.71,179.86 173.59,179.89 173.59,180 Z"
         style="fill:#fafafa"
         id="path59" />
      <path
         d="M 173.59,182.65 C 173.59,182.73 170.72,182.79 167.17,182.79 163.62,182.79 160.75,182.73 160.75,182.65 160.75,182.57 163.63,182.51 167.17,182.51 170.71,182.51 173.59,182.57 173.59,182.65 Z"
         style="fill:#fafafa"
         id="path60" />
      <path
         d="M 173.59,185.33 C 173.59,185.41 170.72,185.47 167.17,185.47 163.62,185.47 160.75,185.41 160.75,185.33 160.75,185.25 163.63,185.19 167.17,185.19 170.71,185.19 173.59,185.26 173.59,185.33 Z"
         style="fill:#fafafa"
         id="path61" />
      <path
         d="M 173.59,188 C 173.59,188.07 170.72,188.14 167.17,188.14 163.62,188.14 160.75,188.07 160.75,188 160.75,187.93 163.63,187.86 167.17,187.86 170.71,187.86 173.59,187.94 173.59,188 Z"
         style="fill:#fafafa"
         id="path62" />
      <path
         d="M 189.94,170.62 A 1.58,1.58 0 0 1 190.81,170.84 L 190.54,171.55 A 1,1 0 0 0 190.01,171.39 C 189.62,171.39 189.41,171.61 189.41,172.04 V 172.29 H 190.53 V 173.05 H 189.44 V 176.33 H 188.49 V 173.05 H 187.82 V 172.29 H 188.49 V 172 A 1.31,1.31 0 0 1 189.94,170.62 Z M 191.65,171.01 A 0.58,0.58 0 0 1 192.26,170.44 0.57,0.57 0 0 1 192.87,170.99 0.61,0.61 0 0 1 191.65,170.99 Z M 191.78,172.26 H 192.78 V 176.33 H 191.78 Z"
         style="fill:#263238"
         id="path63" />
      <path
         d="M 194,170.67 H 195 V 176.33 H 194 Z"
         style="fill:#263238"
         id="path64" />
      <path
         d="M 200,174.6 H 196.81 A 1.24,1.24 0 0 0 198.13,175.6 1.45,1.45 0 0 0 199.23,175.15 L 199.74,175.74 A 2,2 0 0 1 198.1,176.4 2.07,2.07 0 0 1 195.85,174.31 2,2 0 0 1 197.96,172.23 2,2 0 0 1 200.02,174.34 C 200,174.39 200,174.51 200,174.6 Z M 196.8,173.97 H 199.11 A 1.17,1.17 0 0 0 196.8,173.97 Z"
         style="fill:#263238"
         id="path65" />
      <path
         d="M 205,174 V 176.33 H 204 V 174.12 C 204,173.39 203.64,173.04 203,173.04 A 1.08,1.08 0 0 0 201.86,174.27 V 176.33 H 200.86 V 172.26 H 201.77 V 172.78 A 1.76,1.76 0 0 1 203.17,172.21 1.59,1.59 0 0 1 205,174 Z"
         style="fill:#263238"
         id="path66" />
      <path
         d="M 209.59,173.94 V 176.33 H 208.69 V 175.83 A 1.42,1.42 0 0 1 207.41,176.38 C 206.47,176.38 205.89,175.87 205.89,175.16 205.89,174.45 206.34,173.95 207.58,173.95 H 208.58 V 173.89 C 208.58,173.33 208.25,173 207.58,173 A 2,2 0 0 0 206.34,173.41 L 205.97,172.71 A 2.89,2.89 0 0 1 207.69,172.21 C 208.91,172.21 209.59,172.77 209.59,173.94 Z M 208.59,175.06 V 174.58 H 207.59 C 206.94,174.58 206.77,174.83 206.77,175.13 206.77,175.43 207.06,175.69 207.54,175.69 A 1,1 0 0 0 208.63,175.06 Z"
         style="fill:#263238"
         id="path67" />
      <path
         d="M 217.62,174 V 176.33 H 216.62 V 174.12 C 216.62,173.39 216.29,173.04 215.71,173.04 215.13,173.04 214.64,173.45 214.64,174.26 V 176.33 H 213.69 V 174.12 C 213.69,173.39 213.36,173.04 212.78,173.04 212.2,173.04 211.71,173.45 211.71,174.26 V 176.33 H 210.76 V 172.26 H 211.67 V 172.78 A 1.67,1.67 0 0 1 213,172.21 1.53,1.53 0 0 1 214.38,172.89 1.89,1.89 0 0 1 215.9,172.21 1.57,1.57 0 0 1 217.62,174 Z"
         style="fill:#263238"
         id="path68" />
      <path
         d="M 222.7,174.6 H 219.51 A 1.24,1.24 0 0 0 220.83,175.6 1.45,1.45 0 0 0 221.93,175.15 L 222.45,175.74 A 2.3,2.3 0 0 1 218.55,174.31 2,2 0 0 1 220.66,172.23 2,2 0 0 1 222.72,174.34 C 222.72,174.39 222.71,174.51 222.7,174.6 Z M 219.5,173.97 H 221.81 A 1.11,1.11 0 0 0 220.66,172.97 1.13,1.13 0 0 0 219.5,174 Z"
         style="fill:#263238"
         id="path69" />
      <path
         d="M 223.32,175.75 A 0.63,0.63 0 1 1 224.57,175.75 0.63,0.63 0 1 1 223.32,175.75 Z"
         style="fill:#263238"
         id="path70" />
      <path
         d="M 188,182.62 A 2.05,2.05 0 0 1 190.14,180.54 2,2 0 0 1 191.64,181.14 L 191.36,181.41 A 1.6,1.6 0 0 0 190.16,180.93 1.69,1.69 0 1 0 190.16,184.31 1.61,1.61 0 0 0 191.36,183.82 L 191.64,184.09 A 2,2 0 0 1 190.14,184.69 2,2 0 0 1 188,182.62 Z"
         style="fill:#e0e0e0"
         id="path74" />
      <path
         d="M 192.05,183.13 A 1.56,1.56 0 1 1 193.61,184.69 1.51,1.51 0 0 1 192.05,183.13 Z M 194.75,183.13 A 1.14,1.14 0 1 0 193.61,184.32 1.12,1.12 0 0 0 194.75,183.13 Z"
         style="fill:#e0e0e0"
         id="path75" />
      <path
         d="M 201.07,182.88 V 184.66 H 200.66 V 182.92 C 200.66,182.28 200.33,181.92 199.78,181.92 A 1,1 0 0 0 198.78,183.03 V 184.64 H 198.37 V 182.9 C 198.37,182.26 198.04,181.9 197.48,181.9 A 1,1 0 0 0 196.48,183.01 V 184.62 H 196 V 181.55 H 196.4 V 182.11 A 1.24,1.24 0 0 1 197.52,181.53 1.1,1.1 0 0 1 198.61,182.18 1.33,1.33 0 0 1 199.83,181.53 1.15,1.15 0 0 1 201.07,182.88 Z"
         style="fill:#e0e0e0"
         id="path76" />
      <path
         d="M 205.3,183.13 A 1.49,1.49 0 0 1 203.77,184.69 1.35,1.35 0 0 1 202.6,184.08 V 185.79 H 202.19 V 181.59 H 202.59 V 182.2 A 1.32,1.32 0 0 1 203.77,181.57 1.49,1.49 0 0 1 205.3,183.13 Z M 204.88,183.13 A 1.14,1.14 0 1 0 203.74,184.32 1.12,1.12 0 0 0 204.88,183.13 Z"
         style="fill:#e0e0e0"
         id="path77" />
      <path
         d="M 206.14,180.33 H 206.55 V 184.66 H 206.14 Z"
         style="fill:#e0e0e0"
         id="path78" />
      <path
         d="M 210.37,183.25 H 207.81 A 1.12,1.12 0 0 0 209.01,184.32 1.19,1.19 0 0 0 209.95,183.92 L 210.19,184.19 A 1.54,1.54 0 0 1 209,184.69 1.52,1.52 0 0 1 207.39,183.13 1.48,1.48 0 0 1 208.89,181.57 1.46,1.46 0 0 1 210.38,183.13 C 210.38,183.13 210.37,183.21 210.37,183.25 Z M 207.81,182.95 H 210 A 1.09,1.09 0 0 0 207.83,182.95 Z"
         style="fill:#e0e0e0"
         id="path79" />
      <path
         d="M 212.83,184.47 A 0.94,0.94 0 0 1 212.19,184.69 0.81,0.81 0 0 1 211.29,183.8 V 181.94 H 210.74 V 181.59 H 211.29 V 180.92 H 211.7 V 181.59 H 212.64 V 181.94 H 211.7 V 183.77 A 0.49,0.49 0 0 0 212.23,184.33 0.73,0.73 0 0 0 212.69,184.18 Z"
         style="fill:#e0e0e0"
         id="path80" />
      <path
         d="M 216.14,183.25 H 213.58 A 1.12,1.12 0 0 0 214.78,184.32 1.19,1.19 0 0 0 215.72,183.92 L 215.96,184.19 A 1.54,1.54 0 0 1 214.77,184.69 1.52,1.52 0 0 1 213.16,183.13 1.48,1.48 0 0 1 214.66,181.57 1.46,1.46 0 0 1 216.15,183.13 C 216.15,183.13 216.14,183.21 216.14,183.25 Z M 213.58,182.95 H 215.75 A 1.09,1.09 0 0 0 213.58,182.95 Z"
         style="fill:#e0e0e0"
         id="path81" />
      <rect
         x="186.25"
         y="187.99001"
         width="181.21001"
         height="3.3199999"
         rx="1.66"
         style="fill:#ff725e"
         id="rect81" />
      <path
         d="M 376.67,186.68 A 13.43,13.43 0 0 1 374.25,189.46 13.26,13.26 0 0 1 371.47,191.87 13.55,13.55 0 0 1 373.88,189.09 13.17,13.17 0 0 1 376.67,186.68 Z"
         style="fill:#263238"
         id="path82" />
      <path
         d="M 376.55,191.87 A 13.26,13.26 0 0 1 373.77,189.46 13.43,13.43 0 0 1 371.35,186.68 13.26,13.26 0 0 1 374.13,189.09 13.43,13.43 0 0 1 376.55,191.87 Z"
         style="fill:#263238"
         id="path83" />
      <path
         d="M 351.18,183.49 C 351.18,184.17 350.68,184.7 349.7,184.7 A 2.14,2.14 0 0 1 348.23,184.17 L 348.43,183.84 A 1.83,1.83 0 0 0 349.7,184.31 C 350.38,184.31 350.75,184 350.75,183.49 350.75,182.98 350.4,182.68 349.65,182.68 H 349.36 V 182.37 L 350.49,180.95 H 348.4 V 180.58 H 351 V 180.88 L 349.85,182.33 C 350.74,182.38 351.18,182.84 351.18,183.49 Z"
         style="fill:#e0e0e0"
         id="path84" />
      <path
         d="M 357.89,180.58 V 184.66 H 357.48 V 181.4 L 355.87,184.14 H 355.67 L 354.07,181.41 V 184.66 H 353.65 V 180.58 H 354 L 355.77,183.58 357.52,180.58 Z"
         style="fill:#e0e0e0"
         id="path85" />
      <path
         d="M 362.62,183.57 C 362.62,184.26 362.11,184.66 361.09,184.66 H 359.21 V 180.58 H 361 C 361.91,180.58 362.44,180.96 362.44,181.58 A 1,1 0 0 1 361.81,182.51 1,1 0 0 1 362.62,183.57 Z M 359.62,180.94 V 182.42 H 360.92 C 361.58,182.42 361.92,182.17 361.92,181.68 361.92,181.19 361.55,180.94 360.92,180.94 Z M 362.17,183.54 C 362.17,183 361.78,182.77 361.06,182.77 H 359.62 V 184.3 H 361.06 C 361.8,184.3 362.19,184.07 362.19,183.54 Z"
         style="fill:#e0e0e0"
         id="path86" />
      <path
         d="M 174.86,233.56 H 159.4 A 1.94,1.94 0 0 1 157.46,231.62 V 210.21 A 1.93,1.93 0 0 1 159.4,208.28 H 169.2 L 176.8,216.1 V 231.62 A 1.94,1.94 0 0 1 174.86,233.56 Z"
         style="fill:#ff725e"
         id="path87" />
      <path
         d="M 169.2,208.28 V 214.28 A 1.8,1.8 0 0 0 171,216.08 H 176.8 Z"
         style="fill:#ff725e"
         id="path88" />
      <g
         style="opacity:0.2"
         id="g89">
        <path
           d="M 169.28,214.83 A 2,2 0 0 0 170.87,216.77 H 171.06 C 171.82,216.91 176.8,217.77 176.8,217.68 V 216.1 H 171 C 171,216.1 169.56,216.05 169.28,214.83 Z"
           id="path89" />
      </g>
      <g
         style="opacity:0.3"
         id="g90">
        <path
           d="M 169.2,208.28 V 214.28 A 1.8,1.8 0 0 0 171,216.08 H 176.8 Z"
           style="fill:#ffffff"
           id="path90" />
      </g>
      <path
         d="M 167.91,214.06 A 24.11,24.11 0 0 1 164.33,214.2 24.11,24.11 0 0 1 160.75,214.06 22.59,22.59 0 0 1 164.33,213.92 22.59,22.59 0 0 1 167.91,214.06 Z"
         style="fill:#fafafa"
         id="path91" />
      <path
         d="M 172.53,217.46 C 172.53,217.54 169.89,217.6 166.64,217.6 163.39,217.6 160.75,217.54 160.75,217.46 160.75,217.38 163.39,217.32 166.64,217.32 169.89,217.32 172.53,217.38 172.53,217.46 Z"
         style="fill:#fafafa"
         id="path92" />
      <path
         d="M 173.59,220.31 C 173.59,220.38 170.72,220.45 167.17,220.45 163.62,220.45 160.75,220.38 160.75,220.31 160.75,220.24 163.63,220.17 167.17,220.17 170.71,220.17 173.59,220.23 173.59,220.31 Z"
         style="fill:#fafafa"
         id="path93" />
      <path
         d="M 173.59,223 C 173.59,223.08 170.72,223.14 167.17,223.14 163.62,223.14 160.75,223.08 160.75,223 160.75,222.92 163.63,222.86 167.17,222.86 170.71,222.86 173.59,222.91 173.59,223 Z"
         style="fill:#fafafa"
         id="path94" />
      <path
         d="M 173.59,225.67 C 173.59,225.75 170.72,225.81 167.17,225.81 163.62,225.81 160.75,225.75 160.75,225.67 160.75,225.59 163.63,225.53 167.17,225.53 170.71,225.53 173.59,225.6 173.59,225.67 Z"
         style="fill:#fafafa"
         id="path95" />
      <path
         d="M 173.59,228.36 C 173.59,228.44 170.72,228.5 167.17,228.5 163.62,228.5 160.75,228.44 160.75,228.36 160.75,228.28 163.63,228.22 167.17,228.22 170.71,228.22 173.59,228.28 173.59,228.36 Z"
         style="fill:#fafafa"
         id="path96" />
      <path
         d="M 189.94,211 A 1.58,1.58 0 0 1 190.81,211.22 L 190.54,211.94 A 1,1 0 0 0 190.01,211.77 C 189.62,211.77 189.41,211.99 189.41,212.43 V 212.67 H 190.53 V 213.43 H 189.44 V 216.71 H 188.49 V 213.43 H 187.82 V 212.67 H 188.49 V 212.41 A 1.31,1.31 0 0 1 189.94,211 Z M 191.65,211.39 A 0.58,0.58 0 0 1 192.26,210.82 0.57,0.57 0 0 1 192.87,211.37 0.61,0.61 0 0 1 191.65,211.37 Z M 191.78,212.64 H 192.78 V 216.71 H 191.78 Z"
         style="fill:#263238"
         id="path97" />
      <path
         d="M 194,211 H 195 V 216.66 H 194 Z"
         style="fill:#263238"
         id="path98" />
      <path
         d="M 200,214.94 H 196.81 A 1.23,1.23 0 0 0 198.13,215.94 1.48,1.48 0 0 0 199.23,215.5 L 199.74,216.08 A 2,2 0 0 1 198.1,216.75 2.07,2.07 0 0 1 195.85,214.66 2,2 0 0 1 197.96,212.57 2,2 0 0 1 200.02,214.68 C 200,214.73 200,214.85 200,214.94 Z M 196.8,214.31 H 199.11 A 1.17,1.17 0 0 0 196.8,214.31 Z"
         style="fill:#263238"
         id="path99" />
      <path
         d="M 205,214.34 V 216.67 H 204 V 214.46 C 204,213.74 203.64,213.38 203,213.38 A 1.09,1.09 0 0 0 201.86,214.61 V 216.67 H 200.86 V 212.6 H 201.77 V 213.13 A 1.74,1.74 0 0 1 203.17,212.55 1.59,1.59 0 0 1 205,214.34 Z"
         style="fill:#263238"
         id="path100" />
      <path
         d="M 209.59,214.28 V 216.67 H 208.69 V 216.18 A 1.44,1.44 0 0 1 207.41,216.73 C 206.47,216.73 205.89,216.22 205.89,215.51 205.89,214.8 206.34,214.29 207.58,214.29 H 208.58 V 214.23 C 208.58,213.67 208.25,213.35 207.58,213.35 A 2,2 0 0 0 206.34,213.75 L 205.97,213.06 A 2.83,2.83 0 0 1 207.69,212.55 C 208.91,212.55 209.59,213.11 209.59,214.28 Z M 208.59,215.4 V 214.93 H 207.59 C 206.94,214.93 206.77,215.17 206.77,215.47 206.77,215.77 207.06,216.03 207.54,216.03 A 1,1 0 0 0 208.63,215.4 Z"
         style="fill:#263238"
         id="path101" />
      <path
         d="M 217.62,214.34 V 216.67 H 216.62 V 214.46 C 216.62,213.74 216.29,213.38 215.71,213.38 215.13,213.38 214.64,213.8 214.64,214.61 V 216.67 H 213.69 V 214.46 C 213.69,213.74 213.36,213.38 212.78,213.38 212.2,213.38 211.71,213.8 211.71,214.61 V 216.67 H 210.76 V 212.6 H 211.67 V 213.12 A 1.67,1.67 0 0 1 213,212.55 1.53,1.53 0 0 1 214.38,213.23 1.89,1.89 0 0 1 215.9,212.55 1.57,1.57 0 0 1 217.62,214.34 Z"
         style="fill:#263238"
         id="path102" />
      <path
         d="M 222.7,214.94 H 219.51 A 1.23,1.23 0 0 0 220.83,215.94 1.48,1.48 0 0 0 221.93,215.5 L 222.45,216.08 A 2.29,2.29 0 0 1 218.55,214.66 2,2 0 0 1 220.66,212.57 2,2 0 0 1 222.72,214.68 C 222.72,214.73 222.71,214.85 222.7,214.94 Z M 219.5,214.31 H 221.81 A 1.1,1.1 0 0 0 220.66,213.31 1.12,1.12 0 0 0 219.5,214.31 Z"
         style="fill:#263238"
         id="path103" />
      <path
         d="M 223.32,216.09 A 0.63,0.63 0 1 1 224.57,216.09 0.63,0.63 0 1 1 223.32,216.09 Z"
         style="fill:#263238"
         id="path104" />
      <path
         d="M 188.4,220.92 H 188.83 V 224.63 H 191.11 V 225 H 188.4 Z"
         style="fill:#e0e0e0"
         id="path108" />
      <path
         d="M 191.38,223.47 A 1.56,1.56 0 1 1 192.94,225.03 1.51,1.51 0 0 1 191.38,223.47 Z M 194.08,223.47 A 1.14,1.14 0 1 0 192.94,224.66 1.12,1.12 0 0 0 194.08,223.47 Z"
         style="fill:#e0e0e0"
         id="path109" />
      <path
         d="M 197.64,223.1 V 225 H 197.24 V 224.52 A 1.13,1.13 0 0 1 196.19,225.03 C 195.49,225.03 195.07,224.67 195.07,224.14 195.07,223.61 195.37,223.27 196.25,223.27 H 197.25 V 223.08 A 0.75,0.75 0 0 0 196.39,222.27 1.56,1.56 0 0 0 195.39,222.63 L 195.2,222.33 A 1.9,1.9 0 0 1 196.45,221.91 1.09,1.09 0 0 1 197.64,223.1 Z M 197.22,224.1 V 223.6 H 196.22 C 195.63,223.6 195.44,223.83 195.44,224.15 195.44,224.47 195.72,224.72 196.21,224.72 A 1,1 0 0 0 197.22,224.08 Z"
         style="fill:#e0e0e0"
         id="path110" />
      <path
         d="M 201.57,220.68 V 225 H 201.17 V 224.4 A 1.32,1.32 0 0 1 200,225 1.56,1.56 0 0 1 200,221.88 1.35,1.35 0 0 1 201.17,222.49 V 220.65 Z M 201.16,223.47 A 1.14,1.14 0 1 0 200.02,224.66 1.12,1.12 0 0 0 201.16,223.47 Z"
         style="fill:#e0e0e0"
         id="path111" />
      <path
         d="M 202.63,221 A 0.29,0.29 0 0 1 202.93,220.71 0.28,0.28 0 0 1 203.23,220.99 0.3,0.3 0 1 1 202.63,220.99 Z M 202.72,222 H 203.13 V 225 H 202.72 Z"
         style="fill:#e0e0e0"
         id="path112" />
      <path
         d="M 207.11,223.22 V 225 H 206.69 V 223.26 A 0.85,0.85 0 0 0 205.77,222.26 1,1 0 0 0 204.7,223.36 V 225 H 204.28 V 221.94 H 204.68 V 222.5 A 1.3,1.3 0 0 1 205.85,221.91 1.18,1.18 0 0 1 207.11,223.22 Z"
         style="fill:#e0e0e0"
         id="path113" />
      <path
         d="M 211.08,221.94 V 224.63 A 1.35,1.35 0 0 1 209.54,226.16 2.13,2.13 0 0 1 208.12,225.69 L 208.33,225.37 A 1.77,1.77 0 0 0 209.53,225.79 C 210.31,225.79 210.66,225.44 210.66,224.68 V 224.29 A 1.37,1.37 0 0 1 209.47,224.89 1.47,1.47 0 0 1 207.93,223.39 1.46,1.46 0 0 1 209.47,221.91 1.39,1.39 0 0 1 210.68,222.52 V 221.94 Z M 210.68,223.39 A 1.17,1.17 0 1 0 209.51,224.52 1.1,1.1 0 0 0 210.68,223.39 Z"
         style="fill:#e0e0e0"
         id="path114" />
      <path
         d="M 213.49,224.71 A 0.31,0.31 0 1 1 214.11,224.71 0.31,0.31 0 1 1 213.49,224.71 Z"
         style="fill:#e0e0e0"
         id="path115" />
      <path
         d="M 214.72,224.71 A 0.31,0.31 0 0 1 215.03,224.4 0.31,0.31 0 0 1 215.35,224.71 0.32,0.32 0 0 1 215.03,225.03 0.31,0.31 0 0 1 214.72,224.71 Z"
         style="fill:#e0e0e0"
         id="path116" />
      <path
         d="M 216,224.71 A 0.31,0.31 0 0 1 216.62,224.71 0.31,0.31 0 1 1 216,224.71 Z"
         style="fill:#e0e0e0"
         id="path117" />
      <path
         d="M 365.8,231.66 H 187.91 A 1.66,1.66 0 0 1 186.25,230 V 230 A 1.66,1.66 0 0 1 187.91,228.33 H 365.8 A 1.66,1.66 0 0 1 367.46,230 V 230 A 1.66,1.66 0 0 1 365.8,231.66 Z"
         style="fill:#e0e0e0"
         id="path118" />
      <path
         d="M 291.85,231.66 H 187.91 A 1.66,1.66 0 0 1 186.25,230 V 230 A 1.66,1.66 0 0 1 187.91,228.33 H 291.85 A 1.66,1.66 0 0 1 293.51,230 V 230 A 1.66,1.66 0 0 1 291.85,231.66 Z"
         style="fill:#ff725e"
         id="path119" />
      <path
         d="M 376.67,227 A 13.14,13.14 0 0 1 374.25,229.78 12.57,12.57 0 0 1 371.47,232.19 13.55,13.55 0 0 1 373.88,229.41 13.17,13.17 0 0 1 376.67,227 Z"
         style="fill:#263238"
         id="path120" />
      <path
         d="M 376.55,232.21 A 12.57,12.57 0 0 1 373.77,229.8 13.14,13.14 0 0 1 371.35,227.02 13.26,13.26 0 0 1 374.13,229.43 13.43,13.43 0 0 1 376.55,232.21 Z"
         style="fill:#263238"
         id="path121" />
      <path
         d="M 351.27,224.63 V 225 H 348.41 V 224.7 L 350.1,223 C 350.56,222.55 350.65,222.27 350.65,222 350.65,221.53 350.32,221.24 349.65,221.24 A 1.39,1.39 0 0 0 348.54,221.7 L 348.24,221.44 A 1.85,1.85 0 0 1 349.69,220.86 C 350.52,220.86 351.04,221.28 351.04,221.96 A 1.65,1.65 0 0 1 350.37,223.23 L 349,224.63 Z"
         style="fill:#e0e0e0"
         id="path122" />
      <path
         d="M 351.76,223 C 351.76,221.7 352.45,220.93 353.39,220.93 354.33,220.93 355.02,221.7 355.02,223 355.02,224.3 354.34,225.08 353.39,225.08 352.44,225.08 351.76,224.26 351.76,223 Z M 354.59,223 C 354.59,221.91 354.1,221.31 353.39,221.31 352.68,221.31 352.19,221.91 352.19,223 352.19,224.09 352.68,224.69 353.39,224.69 354.1,224.69 354.59,224.05 354.59,223 Z"
         style="fill:#e0e0e0"
         id="path123" />
      <path
         d="M 358.56,223.46 357.83,224.13 V 225 H 357.42 V 220.68 H 357.83 V 223.61 L 359.66,221.94 H 360.18 L 358.86,223.19 360.3,225 H 359.79 Z"
         style="fill:#e0e0e0"
         id="path124" />
      <path
         d="M 364,223.47 A 1.48,1.48 0 0 1 362.5,225 1.34,1.34 0 0 1 361.31,224.37 V 224.97 H 360.92 V 220.65 H 361.33 V 222.49 A 1.35,1.35 0 0 1 362.5,221.88 1.48,1.48 0 0 1 364,223.47 Z M 363.59,223.47 A 1.14,1.14 0 1 0 362.45,224.66 1.12,1.12 0 0 0 363.61,223.47 Z"
         style="fill:#e0e0e0"
         id="path125" />
      <path
         d="M 174.86,274.45 H 159.4 A 1.94,1.94 0 0 1 157.46,272.51 V 251.1 A 1.94,1.94 0 0 1 159.4,249.17 H 169.2 L 176.8,257 V 272.51 A 1.94,1.94 0 0 1 174.86,274.45 Z"
         style="fill:#ff725e"
         id="path126" />
      <path
         d="M 169.2,249.17 V 255.17 A 1.8,1.8 0 0 0 171,257 H 176.8 Z"
         style="fill:#ff725e"
         id="path127" />
      <g
         style="opacity:0.2"
         id="g128">
        <path
           d="M 169.28,255.72 A 2,2 0 0 0 170.87,257.66 H 171.06 C 171.82,257.79 176.8,258.66 176.8,258.56 V 257 H 171 C 171,257 169.56,257 169.28,255.72 Z"
           id="path128" />
      </g>
      <g
         style="opacity:0.3"
         id="g129">
        <path
           d="M 169.2,249.17 V 255.17 A 1.8,1.8 0 0 0 171,257 H 176.8 Z"
           style="fill:#ffffff"
           id="path129" />
      </g>
      <path
         d="M 167.91,255 A 22.59,22.59 0 0 1 164.33,255.14 22.59,22.59 0 0 1 160.75,255 22.59,22.59 0 0 1 164.33,254.86 22.59,22.59 0 0 1 167.91,255 Z"
         style="fill:#fafafa"
         id="path130" />
      <path
         d="M 172.53,258.35 C 172.53,258.43 169.89,258.5 166.64,258.5 163.39,258.5 160.75,258.43 160.75,258.35 160.75,258.27 163.39,258.21 166.64,258.21 169.89,258.21 172.53,258.28 172.53,258.35 Z"
         style="fill:#fafafa"
         id="path131" />
      <path
         d="M 173.59,261.2 C 173.59,261.28 170.72,261.34 167.17,261.34 163.62,261.34 160.75,261.28 160.75,261.2 160.75,261.12 163.63,261.06 167.17,261.06 170.71,261.06 173.59,261.12 173.59,261.2 Z"
         style="fill:#fafafa"
         id="path132" />
      <path
         d="M 173.59,263.88 C 173.59,263.96 170.72,264.02 167.17,264.02 163.62,264.02 160.75,263.96 160.75,263.88 160.75,263.8 163.63,263.74 167.17,263.74 170.71,263.74 173.59,263.81 173.59,263.88 Z"
         style="fill:#fafafa"
         id="path133" />
      <path
         d="M 173.59,266.57 C 173.59,266.64 170.72,266.71 167.17,266.71 163.62,266.71 160.75,266.64 160.75,266.57 160.75,266.5 163.63,266.43 167.17,266.43 170.71,266.43 173.59,266.49 173.59,266.57 Z"
         style="fill:#fafafa"
         id="path134" />
      <path
         d="M 173.59,269.25 C 173.59,269.33 170.72,269.39 167.17,269.39 163.62,269.39 160.75,269.33 160.75,269.25 160.75,269.17 163.63,269.11 167.17,269.11 170.71,269.11 173.59,269.17 173.59,269.25 Z"
         style="fill:#fafafa"
         id="path135" />
      <path
         d="M 189.94,251.85 A 1.58,1.58 0 0 1 190.81,252.07 L 190.54,252.79 A 1,1 0 0 0 190.01,252.62 C 189.62,252.62 189.41,252.84 189.41,253.28 V 253.52 H 190.53 V 254.29 H 189.44 V 257.57 H 188.49 V 254.29 H 187.82 V 253.52 H 188.49 V 253.26 A 1.31,1.31 0 0 1 189.94,251.85 Z M 191.65,252.25 A 0.58,0.58 0 0 1 192.26,251.68 0.56,0.56 0 0 1 192.87,252.23 0.61,0.61 0 0 1 191.65,252.23 Z M 191.78,253.49 H 192.78 V 257.57 H 191.78 Z"
         style="fill:#263238"
         id="path136" />
      <path
         d="M 194,251.91 H 195 V 257.57 H 194 Z"
         style="fill:#263238"
         id="path137" />
      <path
         d="M 200,255.83 H 196.81 A 1.23,1.23 0 0 0 198.13,256.83 1.45,1.45 0 0 0 199.23,256.39 L 199.74,256.98 A 2.29,2.29 0 0 1 195.85,255.55 2,2 0 0 1 197.96,253.47 2,2 0 0 1 200.02,255.57 C 200,255.63 200,255.74 200,255.83 Z M 196.8,255.2 H 199.11 A 1.11,1.11 0 0 0 197.96,254.2 1.13,1.13 0 0 0 196.81,255.2 Z"
         style="fill:#263238"
         id="path138" />
      <path
         d="M 205,255.23 V 257.57 H 204 V 255.35 C 204,254.63 203.64,254.28 203,254.28 A 1.08,1.08 0 0 0 201.86,255.51 V 257.57 H 200.86 V 253.49 H 201.77 V 254 A 1.73,1.73 0 0 1 203.17,253.43 1.58,1.58 0 0 1 205,255.23 Z"
         style="fill:#263238"
         id="path139" />
      <path
         d="M 209.59,255.18 V 257.57 H 208.69 V 257.07 A 1.44,1.44 0 0 1 207.41,257.62 C 206.47,257.62 205.89,257.11 205.89,256.4 205.89,255.69 206.34,255.19 207.58,255.19 H 208.58 V 255.13 C 208.58,254.57 208.25,254.24 207.58,254.24 A 2,2 0 0 0 206.34,254.64 L 206,254 A 2.82,2.82 0 0 1 207.72,253.5 C 208.91,253.45 209.59,254 209.59,255.18 Z M 208.59,256.29 V 255.82 H 207.59 C 206.94,255.82 206.77,256.06 206.77,256.36 206.77,256.66 207.06,256.93 207.54,256.93 A 1,1 0 0 0 208.63,256.29 Z"
         style="fill:#263238"
         id="path140" />
      <path
         d="M 217.62,255.23 V 257.57 H 216.62 V 255.35 C 216.62,254.63 216.29,254.28 215.71,254.28 215.13,254.28 214.64,254.69 214.64,255.5 V 257.57 H 213.69 V 255.35 C 213.69,254.63 213.36,254.28 212.78,254.28 212.2,254.28 211.71,254.69 211.71,255.5 V 257.57 H 210.76 V 253.49 H 211.67 V 254 A 1.66,1.66 0 0 1 213,253.44 1.53,1.53 0 0 1 214.38,254.12 1.89,1.89 0 0 1 215.9,253.44 1.56,1.56 0 0 1 217.62,255.23 Z"
         style="fill:#263238"
         id="path141" />
      <path
         d="M 222.7,255.83 H 219.51 A 1.23,1.23 0 0 0 220.83,256.83 1.45,1.45 0 0 0 221.93,256.39 L 222.45,256.98 A 2.09,2.09 0 0 1 220.8,257.64 2.07,2.07 0 0 1 218.55,255.55 2,2 0 0 1 220.66,253.47 2,2 0 0 1 222.72,255.57 C 222.72,255.63 222.71,255.74 222.7,255.83 Z M 219.5,255.2 H 221.81 A 1.1,1.1 0 0 0 220.66,254.2 1.13,1.13 0 0 0 219.5,255.2 Z"
         style="fill:#263238"
         id="path142" />
      <path
         d="M 223.32,257 A 0.63,0.63 0 1 1 223.94,257.63 0.62,0.62 0 0 1 223.32,257 Z"
         style="fill:#263238"
         id="path143" />
      <path
         d="M 188.4,261.81 H 188.83 V 265.52 H 191.11 V 265.89 H 188.4 Z"
         style="fill:#e0e0e0"
         id="path147" />
      <path
         d="M 191.38,264.36 A 1.56,1.56 0 1 1 192.94,265.92 1.51,1.51 0 0 1 191.38,264.36 Z M 194.08,264.36 A 1.14,1.14 0 1 0 191.8,264.36 1.14,1.14 0 1 0 194.08,264.36 Z"
         style="fill:#e0e0e0"
         id="path148" />
      <path
         d="M 197.64,264 V 265.9 H 197.24 V 265.43 A 1.15,1.15 0 0 1 196.19,265.93 C 195.49,265.93 195.07,265.57 195.07,265.04 195.07,264.51 195.37,264.17 196.25,264.17 H 197.25 V 264 C 197.25,263.47 196.96,263.19 196.39,263.19 A 1.56,1.56 0 0 0 195.39,263.55 L 195.2,263.24 A 2,2 0 0 1 196.45,262.83 1.08,1.08 0 0 1 197.64,264 Z M 197.22,265 V 264.5 H 196.22 C 195.63,264.5 195.44,264.73 195.44,265.05 195.44,265.37 195.72,265.63 196.21,265.63 A 1,1 0 0 0 197.22,265 Z"
         style="fill:#e0e0e0"
         id="path149" />
      <path
         d="M 201.57,261.57 V 265.89 H 201.17 V 265.29 A 1.32,1.32 0 0 1 199.99,265.92 1.56,1.56 0 0 1 199.99,262.81 1.34,1.34 0 0 1 201.16,263.41 V 261.57 Z M 201.16,264.36 A 1.14,1.14 0 1 0 200.02,265.56 1.12,1.12 0 0 0 201.16,264.36 Z"
         style="fill:#e0e0e0"
         id="path150" />
      <path
         d="M 202.63,261.86 A 0.3,0.3 0 0 1 203.23,261.86 0.3,0.3 0 1 1 202.63,261.86 Z M 202.72,262.86 H 203.13 V 265.92 H 202.72 Z"
         style="fill:#e0e0e0"
         id="path151" />
      <path
         d="M 207.11,264.12 V 265.89 H 206.69 V 264.16 A 0.86,0.86 0 0 0 205.77,263.16 1,1 0 0 0 204.7,264.27 V 265.87 H 204.28 V 262.81 H 204.68 V 263.37 A 1.3,1.3 0 0 1 205.85,262.79 1.18,1.18 0 0 1 207.11,264.12 Z"
         style="fill:#e0e0e0"
         id="path152" />
      <path
         d="M 211.08,262.83 V 265.52 A 1.34,1.34 0 0 1 209.54,267.05 2.08,2.08 0 0 1 208.12,266.58 L 208.33,266.27 A 1.82,1.82 0 0 0 209.53,266.69 C 210.31,266.69 210.66,266.33 210.66,265.57 V 265.18 A 1.37,1.37 0 0 1 209.47,265.78 1.5,1.5 0 1 1 209.47,262.78 1.37,1.37 0 0 1 210.68,263.39 V 262.8 Z M 210.68,264.29 A 1.17,1.17 0 1 0 209.51,265.41 1.1,1.1 0 0 0 210.68,264.29 Z"
         style="fill:#e0e0e0"
         id="path153" />
      <path
         d="M 213.49,265.6 A 0.31,0.31 0 0 1 214.11,265.6 0.31,0.31 0 1 1 213.49,265.6 Z"
         style="fill:#e0e0e0"
         id="path154" />
      <path
         d="M 214.72,265.6 A 0.31,0.31 0 0 1 215.03,265.29 0.31,0.31 0 0 1 215.35,265.6 0.32,0.32 0 0 1 215.03,265.92 0.31,0.31 0 0 1 214.72,265.6 Z"
         style="fill:#e0e0e0"
         id="path155" />
      <path
         d="M 216,265.6 A 0.31,0.31 0 0 1 216.62,265.6 0.31,0.31 0 1 1 216,265.6 Z"
         style="fill:#e0e0e0"
         id="path156" />
      <path
         d="M 365.8,272.55 H 187.91 A 1.66,1.66 0 0 1 186.25,270.89 V 270.89 A 1.66,1.66 0 0 1 187.91,269.23 H 365.8 A 1.66,1.66 0 0 1 367.46,270.89 V 270.89 A 1.66,1.66 0 0 1 365.8,272.55 Z"
         style="fill:#e0e0e0"
         id="path157" />
      <path
         d="M 227.36,272.55 H 187.91 A 1.66,1.66 0 0 1 186.25,270.89 V 270.89 A 1.66,1.66 0 0 1 187.91,269.23 H 227.36 A 1.66,1.66 0 0 1 229.02,270.89 V 270.89 A 1.66,1.66 0 0 1 227.36,272.55 Z"
         style="fill:#ff725e"
         id="path158" />
      <path
         d="M 376.67,267.91 A 26.68,26.68 0 0 1 371.47,273.11 13.26,13.26 0 0 1 373.88,270.33 13,13 0 0 1 376.67,267.91 Z"
         style="fill:#263238"
         id="path159" />
      <path
         d="M 376.55,273.11 A 26.68,26.68 0 0 1 371.35,267.91 26.68,26.68 0 0 1 376.55,273.11 Z"
         style="fill:#263238"
         id="path160" />
      <path
         d="M 351.18,264.72 C 351.18,265.41 350.68,265.93 349.7,265.93 A 2.13,2.13 0 0 1 348.23,265.41 L 348.43,265.07 A 1.79,1.79 0 0 0 349.7,265.54 C 350.38,265.54 350.75,265.23 350.75,264.72 350.75,264.21 350.4,263.91 349.65,263.91 H 349.36 V 263.6 L 350.49,262.19 H 348.4 V 261.81 H 351 V 262.11 L 349.85,263.56 C 350.74,263.61 351.18,264.07 351.18,264.72 Z"
         style="fill:#e0e0e0"
         id="path161" />
      <path
         d="M 354.52,265.52 V 265.89 H 351.66 V 265.6 L 353.36,263.94 C 353.82,263.48 353.9,263.21 353.9,262.94 353.9,262.46 353.57,262.17 352.95,262.17 A 1.36,1.36 0 0 0 351.84,262.63 L 351.54,262.37 A 1.83,1.83 0 0 1 352.98,261.79 C 353.81,261.79 354.34,262.21 354.34,262.89 A 1.72,1.72 0 0 1 353.67,264.17 L 352.28,265.53 Z"
         style="fill:#e0e0e0"
         id="path162" />
      <path
         d="M 361.17,261.81 V 265.89 H 360.75 V 262.63 L 359.15,265.38 H 359 L 357.39,262.65 V 265.89 H 356.98 V 261.81 H 357.34 L 359.11,264.81 360.86,261.81 Z"
         style="fill:#e0e0e0"
         id="path163" />
      <path
         d="M 365.9,264.8 C 365.9,265.5 365.39,265.89 364.37,265.89 H 362.49 V 261.81 H 364.25 C 365.16,261.81 365.68,262.2 365.68,262.86 A 1,1 0 0 1 365.06,263.79 1,1 0 0 1 365.9,264.8 Z M 362.9,262.17 V 263.65 H 364.2 C 364.85,263.65 365.2,263.4 365.2,262.91 365.2,262.42 364.82,262.17 364.2,262.17 Z M 365.45,264.77 C 365.45,264.24 365.06,264.01 364.34,264.01 H 362.9 V 265.54 H 364.34 C 365.08,265.54 365.47,265.31 365.47,264.77 Z"
         style="fill:#e0e0e0"
         id="path164" />
      <path
         d="M 174.86,315.34 H 159.4 A 1.94,1.94 0 0 1 157.46,313.41 V 292 A 1.94,1.94 0 0 1 159.4,290.06 H 169.2 L 176.8,297.89 V 313.41 A 1.94,1.94 0 0 1 174.86,315.34 Z"
         style="fill:#ff725e"
         id="path165" />
      <path
         d="M 169.2,290.06 V 296.06 A 1.81,1.81 0 0 0 171,297.86 H 176.8 Z"
         style="fill:#ff725e"
         id="path166" />
      <g
         style="opacity:0.2"
         id="g167">
        <path
           d="M 169.28,296.62 A 2,2 0 0 0 170.87,298.56 H 171.06 C 171.82,298.7 176.8,299.56 176.8,299.47 V 297.85 H 171 C 171,297.85 169.56,297.84 169.28,296.62 Z"
           id="path167" />
      </g>
      <g
         style="opacity:0.3"
         id="g168">
        <path
           d="M 169.2,290.06 V 296.06 A 1.81,1.81 0 0 0 171,297.86 H 176.8 Z"
           style="fill:#ffffff"
           id="path168" />
      </g>
      <path
         d="M 167.91,295.84 A 22.59,22.59 0 0 1 164.33,295.98 22.59,22.59 0 0 1 160.75,295.84 22.59,22.59 0 0 1 164.33,295.7 22.59,22.59 0 0 1 167.91,295.84 Z"
         style="fill:#fafafa"
         id="path169" />
      <path
         d="M 172.53,299.25 C 172.53,299.33 169.89,299.39 166.64,299.39 163.39,299.39 160.75,299.33 160.75,299.25 160.75,299.17 163.39,299.11 166.64,299.11 169.89,299.11 172.53,299.17 172.53,299.25 Z"
         style="fill:#fafafa"
         id="path170" />
      <path
         d="M 173.59,302.09 C 173.59,302.17 170.72,302.23 167.17,302.23 163.62,302.23 160.75,302.17 160.75,302.09 160.75,302.01 163.63,301.95 167.17,301.95 170.71,301.95 173.59,302 173.59,302.09 Z"
         style="fill:#fafafa"
         id="path171" />
      <path
         d="M 173.59,304.78 C 173.59,304.85 170.72,304.92 167.17,304.92 163.62,304.92 160.75,304.85 160.75,304.78 160.75,304.71 163.63,304.64 167.17,304.64 170.71,304.64 173.59,304.7 173.59,304.78 Z"
         style="fill:#fafafa"
         id="path172" />
      <path
         d="M 173.59,307.46 C 173.59,307.54 170.72,307.6 167.17,307.6 163.62,307.6 160.75,307.54 160.75,307.46 160.75,307.38 163.63,307.32 167.17,307.32 170.71,307.32 173.59,307.38 173.59,307.46 Z"
         style="fill:#fafafa"
         id="path173" />
      <path
         d="M 173.59,310.14 C 173.59,310.22 170.72,310.28 167.17,310.28 163.62,310.28 160.75,310.22 160.75,310.14 160.75,310.06 163.63,310 167.17,310 170.71,310 173.59,310.07 173.59,310.14 Z"
         style="fill:#fafafa"
         id="path174" />
      <path
         d="M 189.94,292.74 A 1.51,1.51 0 0 1 190.81,292.97 L 190.54,293.68 A 1,1 0 0 0 190.01,293.52 C 189.62,293.52 189.41,293.74 189.41,294.17 V 294.42 H 190.53 V 295.18 H 189.44 V 298.46 H 188.49 V 295.18 H 187.82 V 294.42 H 188.49 V 294.16 A 1.32,1.32 0 0 1 189.94,292.74 Z M 191.65,293.14 A 0.58,0.58 0 0 1 192.26,292.57 0.57,0.57 0 0 1 192.87,293.12 0.61,0.61 0 0 1 191.65,293.12 Z M 191.78,294.38 H 192.78 V 298.46 H 191.78 Z"
         style="fill:#263238"
         id="path175" />
      <path
         d="M 194,292.8 H 195 V 298.46 H 194 Z"
         style="fill:#263238"
         id="path176" />
      <path
         d="M 200,296.73 H 196.81 A 1.23,1.23 0 0 0 198.13,297.73 1.45,1.45 0 0 0 199.23,297.29 L 199.74,297.88 A 2.29,2.29 0 0 1 195.85,296.45 2,2 0 0 1 197.96,294.37 2,2 0 0 1 200.02,296.48 C 200,296.52 200,296.64 200,296.73 Z M 196.8,296.09 H 199.11 A 1.17,1.17 0 0 0 196.8,296.09 Z"
         style="fill:#263238"
         id="path177" />
      <path
         d="M 205,296.12 V 298.46 H 204 V 296.25 C 204,295.52 203.64,295.17 203,295.17 A 1.08,1.08 0 0 0 201.86,296.4 V 298.46 H 200.86 V 294.38 H 201.77 V 294.91 A 1.76,1.76 0 0 1 203.17,294.34 1.59,1.59 0 0 1 205,296.12 Z"
         style="fill:#263238"
         id="path178" />
      <path
         d="M 209.59,296.07 V 298.46 H 208.69 V 298 A 1.44,1.44 0 0 1 207.41,298.55 C 206.47,298.55 205.89,298.04 205.89,297.33 205.89,296.62 206.34,296.12 207.58,296.12 H 208.58 V 296 C 208.58,295.44 208.25,295.11 207.58,295.11 A 2,2 0 0 0 206.34,295.52 L 205.97,294.82 A 2.89,2.89 0 0 1 207.69,294.32 C 208.91,294.34 209.59,294.9 209.59,296.07 Z M 208.59,297.18 V 296.71 H 207.59 C 206.94,296.71 206.77,296.96 206.77,297.25 206.77,297.54 207.06,297.82 207.54,297.82 A 1,1 0 0 0 208.63,297.18 Z"
         style="fill:#263238"
         id="path179" />
      <path
         d="M 217.62,296.12 V 298.46 H 216.62 V 296.25 C 216.62,295.52 216.29,295.17 215.71,295.17 215.13,295.17 214.64,295.58 214.64,296.39 V 298.46 H 213.69 V 296.25 C 213.69,295.52 213.36,295.17 212.78,295.17 212.2,295.17 211.71,295.58 211.71,296.39 V 298.46 H 210.76 V 294.38 H 211.67 V 294.9 A 1.7,1.7 0 0 1 213,294.34 1.53,1.53 0 0 1 214.38,295.02 1.89,1.89 0 0 1 215.9,294.34 1.56,1.56 0 0 1 217.62,296.12 Z"
         style="fill:#263238"
         id="path180" />
      <path
         d="M 222.7,296.73 H 219.51 A 1.23,1.23 0 0 0 220.83,297.73 1.45,1.45 0 0 0 221.93,297.29 L 222.45,297.88 A 2.09,2.09 0 0 1 220.8,298.54 2.07,2.07 0 0 1 218.55,296.45 2,2 0 0 1 220.66,294.37 2,2 0 0 1 222.72,296.48 C 222.72,296.52 222.71,296.64 222.7,296.73 Z M 219.5,296.09 H 221.81 A 1.11,1.11 0 0 0 220.66,295.09 1.13,1.13 0 0 0 219.5,296.09 Z"
         style="fill:#263238"
         id="path181" />
      <path
         d="M 223.32,297.88 A 0.63,0.63 0 1 1 224.57,297.88 0.63,0.63 0 1 1 223.32,297.88 Z"
         style="fill:#263238"
         id="path182" />
      <path
         d="M 229.83,296.42 A 2,2 0 0 1 227.76,298.51 1.67,1.67 0 0 1 226.45,297.96 V 299.96 H 225.5 V 294.4 H 226.41 V 294.94 A 1.67,1.67 0 0 1 227.76,294.36 2,2 0 0 1 229.83,296.42 Z M 228.83,296.42 A 1.21,1.21 0 1 0 226.41,296.42 1.21,1.21 0 1 0 228.83,296.42 Z"
         style="fill:#263238"
         id="path183" />
      <path
         d="M 234.73,292.8 V 298.46 H 233.81 V 297.93 A 1.67,1.67 0 0 1 232.46,298.51 2.09,2.09 0 0 1 232.46,294.34 1.66,1.66 0 0 1 233.78,294.89 V 292.8 Z M 233.79,296.42 A 1.22,1.22 0 1 0 232.58,297.7 1.19,1.19 0 0 0 233.79,296.42 Z"
         style="fill:#263238"
         id="path184" />
      <path
         d="M 237,294.17 V 294.42 H 238.12 V 295.18 H 237.03 V 298.46 H 236.03 V 295.18 H 235.36 V 294.42 H 236.03 V 294.16 A 1.33,1.33 0 0 1 237.49,292.74 1.45,1.45 0 0 1 238.35,292.97 L 238.09,293.68 A 1,1 0 0 0 237.56,293.52 C 237.24,293.52 237,293.74 237,294.17 Z"
         style="fill:#263238"
         id="path185" />
      <path
         d="M 188.4,302.71 H 188.83 V 306.41 H 191.11 V 306.79 H 188.4 Z"
         style="fill:#e0e0e0"
         id="path186" />
      <path
         d="M 191.38,305.25 A 1.56,1.56 0 1 1 192.94,306.82 1.52,1.52 0 0 1 191.38,305.25 Z M 194.08,305.25 A 1.14,1.14 0 1 0 192.94,306.45 1.12,1.12 0 0 0 194.08,305.25 Z"
         style="fill:#e0e0e0"
         id="path187" />
      <path
         d="M 197.64,304.89 V 306.79 H 197.24 V 306.31 A 1.15,1.15 0 0 1 196.19,306.82 C 195.49,306.82 195.07,306.45 195.07,305.92 195.07,305.39 195.37,305.06 196.25,305.06 H 197.25 V 304.87 C 197.25,304.34 196.96,304.06 196.39,304.06 A 1.56,1.56 0 0 0 195.39,304.42 L 195.2,304.11 A 2,2 0 0 1 196.45,303.7 1.09,1.09 0 0 1 197.64,304.89 Z M 197.22,305.89 V 305.39 H 196.22 C 195.63,305.39 195.44,305.62 195.44,305.93 195.44,306.24 195.72,306.51 196.21,306.51 A 1,1 0 0 0 197.22,305.87 Z"
         style="fill:#e0e0e0"
         id="path188" />
      <path
         d="M 201.57,302.46 V 306.79 H 201.17 V 306.18 A 1.33,1.33 0 0 1 199.99,306.82 1.56,1.56 0 0 1 199.99,303.7 1.36,1.36 0 0 1 201.16,304.3 V 302.46 Z M 201.16,305.25 A 1.14,1.14 0 1 0 200.02,306.45 1.12,1.12 0 0 0 201.16,305.25 Z"
         style="fill:#e0e0e0"
         id="path189" />
      <path
         d="M 202.63,302.75 A 0.3,0.3 0 0 1 202.93,302.46 0.3,0.3 0 1 1 202.63,302.75 Z M 202.72,303.75 H 203.13 V 306.82 H 202.72 Z"
         style="fill:#e0e0e0"
         id="path190" />
      <path
         d="M 207.11,305 V 306.78 H 206.69 V 305.04 A 0.86,0.86 0 0 0 205.77,304.04 1,1 0 0 0 204.7,305.15 V 306.76 H 204.28 V 303.69 H 204.68 V 304.26 A 1.28,1.28 0 0 1 205.85,303.67 1.18,1.18 0 0 1 207.11,305 Z"
         style="fill:#e0e0e0"
         id="path191" />
      <path
         d="M 211.08,303.72 V 306.41 A 1.35,1.35 0 0 1 209.54,307.95 2.08,2.08 0 0 1 208.12,307.47 L 208.33,307.16 A 1.82,1.82 0 0 0 209.53,307.58 C 210.31,307.58 210.66,307.22 210.66,306.47 V 306.08 A 1.36,1.36 0 0 1 209.47,306.67 1.5,1.5 0 1 1 209.47,303.67 1.39,1.39 0 0 1 210.68,304.28 V 303.69 Z M 210.68,305.18 A 1.17,1.17 0 1 0 209.51,306.3 1.1,1.1 0 0 0 210.68,305.18 Z"
         style="fill:#e0e0e0"
         id="path192" />
      <path
         d="M 213.49,306.5 A 0.31,0.31 0 1 1 213.8,306.82 0.31,0.31 0 0 1 213.49,306.5 Z"
         style="fill:#e0e0e0"
         id="path193" />
      <path
         d="M 214.72,306.5 A 0.31,0.31 0 0 1 215.03,306.18 0.32,0.32 0 0 1 215.03,306.82 0.31,0.31 0 0 1 214.72,306.5 Z"
         style="fill:#e0e0e0"
         id="path194" />
      <path
         d="M 216,306.5 A 0.31,0.31 0 1 1 216.31,306.82 0.31,0.31 0 0 1 216,306.5 Z"
         style="fill:#e0e0e0"
         id="path195" />
      <path
         d="M 365.8,313.44 H 187.91 A 1.66,1.66 0 0 1 186.25,311.78 V 311.78 A 1.66,1.66 0 0 1 187.91,310.12 H 365.8 A 1.66,1.66 0 0 1 367.46,311.78 V 311.78 A 1.66,1.66 0 0 1 365.8,313.44 Z"
         style="fill:#e0e0e0"
         id="path196" />
      <path
         d="M 340.52,313.44 H 187.91 A 1.66,1.66 0 0 1 186.25,311.78 V 311.78 A 1.66,1.66 0 0 1 187.91,310.12 H 340.52 A 1.66,1.66 0 0 1 342.18,311.78 V 311.78 A 1.66,1.66 0 0 1 340.52,313.44 Z"
         style="fill:#ff725e"
         id="path197" />
      <path
         d="M 376.67,308.8 A 13,13 0 0 1 374.25,311.59 13.26,13.26 0 0 1 371.47,314 13.26,13.26 0 0 1 373.88,311.22 13,13 0 0 1 376.67,308.8 Z"
         style="fill:#263238"
         id="path198" />
      <path
         d="M 376.55,314 A 13.26,13.26 0 0 1 373.77,311.59 13,13 0 0 1 371.35,308.8 26.68,26.68 0 0 1 376.55,314 Z"
         style="fill:#263238"
         id="path199" />
      <path
         d="M 349.61,302.71 V 306.79 H 349.19 V 303.08 H 348.19 V 302.71 Z"
         style="fill:#e0e0e0"
         id="path200" />
      <path
         d="M 353.35,305.59 C 353.35,306.28 352.87,306.82 351.87,306.82 A 2.09,2.09 0 0 1 350.41,306.3 L 350.61,305.96 A 1.75,1.75 0 0 0 351.87,306.44 C 352.56,306.44 352.93,306.1 352.93,305.6 352.93,305.1 352.6,304.75 351.56,304.75 H 350.69 L 350.9,302.75 H 353.14 V 303.12 H 351.27 L 351.13,304.42 H 351.66 C 352.89,304.38 353.35,304.86 353.35,305.59 Z"
         style="fill:#e0e0e0"
         id="path201" />
      <path
         d="M 360,302.71 V 306.79 H 359.59 V 303.52 L 357.99,306.27 H 357.78 L 356.18,303.54 V 306.79 H 355.76 V 302.71 H 356.12 L 357.89,305.71 359.65,302.71 Z"
         style="fill:#e0e0e0"
         id="path202" />
      <path
         d="M 364.74,305.7 C 364.74,306.39 364.22,306.79 363.2,306.79 H 361.33 V 302.71 H 363.09 C 364,302.71 364.52,303.09 364.52,303.76 A 0.94,0.94 0 0 1 363.9,304.68 1,1 0 0 1 364.74,305.7 Z M 361.74,303.06 V 304.54 H 363.04 C 363.69,304.54 364.04,304.29 364.04,303.8 364.04,303.31 363.66,303.06 363.04,303.06 Z M 364.28,305.66 C 364.28,305.13 363.89,304.9 363.18,304.9 H 361.74 V 306.43 H 363.18 C 363.91,306.43 364.3,306.2 364.3,305.66 Z"
         style="fill:#e0e0e0"
         id="path203" />
      <path
         d="M 150.05,124.77 V 121.42 H 150.9 V 124.73 C 150.9,126.04 151.49,126.62 152.55,126.62 153.61,126.62 154.22,126.04 154.22,124.73 V 121.42 H 155 V 124.77 A 2.5,2.5 0 1 1 150,124.77 Z"
         style="fill:#263238"
         id="path204" />
      <path
         d="M 161.26,125.08 A 2.17,2.17 0 0 1 159,127.36 1.9,1.9 0 0 1 157.45,126.63 V 128.94 H 156.64 V 122.85 H 157.41 V 123.56 A 1.9,1.9 0 0 1 159,122.81 2.17,2.17 0 0 1 161.26,125.08 Z M 160.44,125.08 A 1.5,1.5 0 1 0 158.94,126.65 1.48,1.48 0 0 0 160.44,125.08 Z"
         style="fill:#263238"
         id="path205" />
      <path
         d="M 162.38,121.07 H 163.18 V 127.31 H 162.38 Z"
         style="fill:#263238"
         id="path206" />
      <path
         d="M 164.31,125.08 A 2.32,2.32 0 1 1 166.63,127.36 2.21,2.21 0 0 1 164.31,125.08 Z M 168.13,125.08 A 1.5,1.5 0 1 0 166.63,126.65 1.47,1.47 0 0 0 168.13,125.08 Z"
         style="fill:#263238"
         id="path207" />
      <path
         d="M 173.55,124.61 V 127.31 H 172.79 V 126.72 A 1.68,1.68 0 0 1 171.32,127.36 C 170.32,127.36 169.68,126.82 169.68,126.04 169.68,125.26 170.14,124.74 171.47,124.74 H 172.74 V 124.58 C 172.74,123.9 172.35,123.5 171.55,123.5 A 2.26,2.26 0 0 0 170.14,123.98 L 169.8,123.38 A 3,3 0 0 1 171.64,122.81 C 172.86,122.81 173.55,123.4 173.55,124.61 Z M 172.74,125.94 V 125.32 H 171.5 C 170.7,125.32 170.5,125.63 170.5,126.01 170.5,126.39 170.87,126.73 171.5,126.73 A 1.28,1.28 0 0 0 172.74,125.94 Z"
         style="fill:#263238"
         id="path208" />
      <path
         d="M 179.28,121.07 V 127.31 H 178.51 V 126.6 A 1.92,1.92 0 0 1 176.92,127.36 2.28,2.28 0 0 1 176.92,122.81 1.88,1.88 0 0 1 178.47,123.52 V 121.07 Z M 178.48,125.07 A 1.5,1.5 0 1 0 176.98,126.64 1.47,1.47 0 0 0 178.48,125.08 Z"
         style="fill:#263238"
         id="path209" />
      <path
         d="M 184.66,121 A 1.48,1.48 0 0 1 185.57,121.26 L 185.33,121.87 A 1,1 0 0 0 184.7,121.66 C 184.23,121.66 183.98,121.93 183.98,122.44 V 122.83 H 185.28 V 123.49 H 184 V 127.29 H 183.19 V 123.49 H 182.43 V 122.83 H 183.19 V 122.43 A 1.34,1.34 0 0 1 184.66,121 Z M 186.57,121.45 A 0.54,0.54 0 0 1 187.12,120.92 0.53,0.53 0 1 1 187.12,121.92 0.53,0.53 0 0 1 186.57,121.47 Z M 186.71,122.83 H 187.52 V 127.29 H 186.71 Z"
         style="fill:#263238"
         id="path210" />
      <path
         d="M 189.06,121.07 H 189.87 V 127.31 H 189.06 Z"
         style="fill:#263238"
         id="path211" />
      <path
         d="M 195.42,125.35 H 191.8 A 1.51,1.51 0 0 0 193.42,126.65 1.65,1.65 0 0 0 194.7,126.11 L 195.15,126.63 A 2.42,2.42 0 0 1 191,125.08 2.18,2.18 0 0 1 193.23,122.81 2.15,2.15 0 0 1 195.44,125.1 2.29,2.29 0 0 1 195.42,125.35 Z M 191.8,124.77 H 194.66 A 1.44,1.44 0 0 0 191.8,124.77 Z"
         style="fill:#263238"
         id="path212" />
      <path
         d="M 196,126.83 196.34,126.2 A 2.93,2.93 0 0 0 197.9,126.66 C 198.65,126.66 198.96,126.43 198.96,126.05 198.96,125.05 196.15,125.92 196.15,124.14 196.15,123.35 196.86,122.81 198,122.81 A 3.3,3.3 0 0 1 199.63,123.21 L 199.28,123.85 A 2.32,2.32 0 0 0 198,123.5 C 197.29,123.5 196.94,123.76 196.94,124.11 196.94,125.11 199.77,124.3 199.77,126.04 199.77,126.84 199.03,127.36 197.84,127.36 A 3.17,3.17 0 0 1 196,126.83 Z"
         style="fill:#263238"
         id="path213" />
      <path
         d="M 403.94,140.34 C 403.94,140.49 342.86,140.61 267.54,140.61 192.22,140.61 131.14,140.49 131.14,140.34 131.14,140.19 192.2,140.08 267.54,140.08 342.88,140.08 403.94,140.2 403.94,140.34 Z"
         style="fill:#263238"
         id="path214" />
    </g>
    <g
       id="freepik--Cloud--inject-349">
      <path
         d="M 271.32,464.75 H 32.64 C 32.64,464.75 29.83,408.59 79.44,404.85 79.44,404.85 87.66,357.36 143.08,357.11 209.54,356.82 210.36,414.66 210.36,414.66 210.36,414.66 264.77,409.53 271.36,464.75"
         style="fill:#f5f5f5"
         id="path215" />
      <path
         d="M 271.32,464.75 C 271.32,464.75 271.32,464.62 271.24,464.35 271.16,464.08 271.13,463.68 271.04,463.16 270.95,462.64 270.86,461.98 270.73,461.16 A 25.37,25.37 0 0 0 270.23,458.48 C 270.01,457.48 269.76,456.35 269.48,455.11 269.2,453.87 268.74,452.57 268.32,451.11 267.9,449.65 267.26,448.2 266.66,446.6 L 265.56,444.19 C 265.37,443.78 265.17,443.36 264.98,442.94 L 264.29,441.69 C 263.81,440.86 263.39,439.96 262.82,439.12 L 261.12,436.52 259.12,433.94 C 258.42,433.08 257.63,432.26 256.87,431.39 A 47.59,47.59 0 0 0 245.05,422.28 58.28,58.28 0 0 0 229.14,416.36 69.71,69.71 0 0 0 220,415 62.08,62.08 0 0 0 210.34,414.86 H 210.11 V 414.63 A 56.81,56.81 0 0 0 208.72,404.63 66.38,66.38 0 0 0 205.66,394.63 57.89,57.89 0 0 0 194,376 54.17,54.17 0 0 0 185.22,368.51 C 184.42,367.94 183.57,367.46 182.74,366.93 L 181.48,366.16 180.17,365.47 C 179.29,365.02 178.42,364.53 177.52,364.11 L 174.78,363 C 173.87,362.57 172.91,362.27 171.96,361.93 171.01,361.59 170.08,361.22 169.1,360.93 167.15,360.41 165.21,359.76 163.19,359.41 L 160.19,358.78 157.13,358.34 C 155.13,357.99 153.02,357.85 150.95,357.69 A 110.69,110.69 0 0 0 138.08,357.56 L 134.91,357.83 133.34,357.97 131.77,358.19 128.66,358.65 125.6,359.29 A 64.09,64.09 0 0 0 113.88,363 60.12,60.12 0 0 0 103.42,368.84 58.18,58.18 0 0 0 87.78,385.4 63.65,63.65 0 0 0 82.78,395.01 53.61,53.61 0 0 0 79.64,404.89 V 405.06 H 79.47 A 52.87,52.87 0 0 0 61.85,409.32 41.85,41.85 0 0 0 48.48,418.65 49.3,49.3 0 0 0 40.19,430.39 61.54,61.54 0 0 0 35.75,441.79 81.7,81.7 0 0 0 32.84,458.68 C 32.71,460.68 32.67,462.17 32.66,463.19 32.65,464.21 32.66,464.74 32.66,464.74 32.66,464.74 32.66,464.22 32.59,463.19 32.52,462.16 32.59,460.65 32.71,458.67 A 80.64,80.64 0 0 1 35.5,441.72 62.38,62.38 0 0 1 39.91,430.25 49.79,49.79 0 0 1 48.2,418.4 42.39,42.39 0 0 1 61.67,409 53.18,53.18 0 0 1 79.42,404.67 L 79.22,404.85 A 54.08,54.08 0 0 1 82.36,394.85 65.12,65.12 0 0 1 87.36,385.16 58.55,58.55 0 0 1 103.11,368.46 61.2,61.2 0 0 1 113.66,362.56 64.85,64.85 0 0 1 125.47,358.77 L 128.55,358.13 131.68,357.67 133.26,357.44 134.84,357.31 138.03,357.03 A 111.92,111.92 0 0 1 150.97,357.16 C 153.05,357.32 155.13,357.47 157.18,357.81 L 160.26,358.26 163.26,358.89 C 165.26,359.25 167.26,359.89 169.2,360.42 170.2,360.7 171.13,361.08 172.09,361.42 173.05,361.76 174.01,362.07 174.92,362.5 L 177.69,363.71 C 178.6,364.13 179.47,364.63 180.36,365.08 L 181.68,365.77 182.95,366.56 C 183.79,367.09 184.65,367.56 185.46,368.14 A 55.28,55.28 0 0 1 194.32,375.72 58.26,58.26 0 0 1 206.08,394.52 67.42,67.42 0 0 1 209.16,404.64 58.35,58.35 0 0 1 210.54,414.69 L 210.29,414.47 A 61.63,61.63 0 0 1 220.02,414.64 69,69 0 0 1 229.2,416.07 58.66,58.66 0 0 1 245.2,422.07 47.79,47.79 0 0 1 257.07,431.28 C 257.84,432.16 258.63,432.99 259.32,433.86 L 261.32,436.47 C 261.9,437.36 262.46,438.24 263.02,439.09 263.58,439.94 264.02,440.84 264.48,441.68 L 265.16,442.93 265.74,444.19 266.83,446.62 C 267.43,448.23 268.01,449.73 268.47,451.16 L 269.61,455.16 C 269.87,456.4 270.11,457.53 270.33,458.54 270.55,459.55 270.69,460.45 270.8,461.23 270.91,462.01 271,462.66 271.07,463.23 271.14,463.8 271.2,464.15 271.24,464.43 271.28,464.71 271.32,464.75 271.32,464.75 Z"
         style="fill:#263238"
         id="path216" />
      <polygon
         points="122.49,400.8 139.17,400.8 141.19,400.8 157.87,400.8 157.87,343.55 184.83,343.55 140.18,303.09 95.53,343.55 122.49,343.55 "
         style="fill:#ff725e"
         id="polygon216" />
      <path
         d="M 108.5,381.25 C 124.19,377.3 134.38,381.73 141.63,391.88 147.84,381.2 162.16,378.27 173.63,382.88 L 180.84,410.2 136.92,415.95 100.21,409.22 Z"
         style="fill:#f5f5f5"
         id="path217" />
      <path
         d="M 170.15,382 C 170.15,382.05 169.28,381.7 167.69,381.27 A 21.19,21.19 0 0 0 160.78,380.66 24.18,24.18 0 0 0 156.03,381.46 25,25 0 0 0 150.92,383.58 21.54,21.54 0 0 0 142.1,392.52 L 141.89,392.94 141.64,392.53 140.72,391.04 A 23.45,23.45 0 0 0 136.12,385.9 25.68,25.68 0 0 0 130.68,382.46 26.23,26.23 0 0 0 120.12,379.91 24.28,24.28 0 0 0 112.8,380.78 C 111.13,381.29 110.23,381.66 110.21,381.61 A 3,3 0 0 1 110.85,381.31 18.16,18.16 0 0 1 112.75,380.59 23,23 0 0 1 120.13,379.59 26.5,26.5 0 0 1 136.45,385.59 24,24 0 0 1 141.16,390.83 L 142.1,392.36 H 141.64 A 21.74,21.74 0 0 1 150.69,383.24 23.19,23.19 0 0 1 160.76,380.37 20.58,20.58 0 0 1 167.76,381.15 13.73,13.73 0 0 1 169.55,381.8 3,3 0 0 1 170.15,382 Z"
         style="fill:#263238"
         id="path218" />
    </g>
    <g
       id="freepik--Character--inject-349">
      <path
         d="M 226.19,292 C 224.13,285.39 224.99,274.3 229.54,268.83 234.09,263.36 241.98,260.2 249.04,259.33 A 5.91,5.91 0 0 1 252.53,259.69 2.35,2.35 0 0 1 253.71,262.69 15,15 0 0 1 258.32,260.97 5.07,5.07 0 0 1 262.84,262.4 3.1,3.1 0 0 1 262.56,266.78 5.33,5.33 0 0 1 268.62,274.46 16.84,16.84 0 0 1 264.29,279.27 C 262.72,280.47 262.35,281.83 262.42,283.81"
         style="fill:#263238"
         id="path219" />
      <path
         d="M 228.9,280.48 223.56,319.33 A 11.67,11.67 0 0 0 234.1,332.55 V 332.55 A 11.67,11.67 0 0 0 246.67,322.5 C 247.07,319.57 247.41,317.13 247.47,316.83 247.47,316.83 257.47,317.27 259.55,307.57 260.55,302.89 261.82,293.08 262.86,284.19 A 18.47,18.47 0 0 0 248.14,264 L 247.2,263.81 C 237,262.34 230.05,270.22 228.9,280.48 Z"
         style="fill:#ffbe9d"
         id="path220" />
      <path
         d="M 247.52,316.7 A 23.08,23.08 0 0 1 235.52,310.57 C 235.52,310.57 237.12,318.16 246.99,319.22 Z"
         style="fill:#eb996e"
         id="path221" />
      <path
         d="M 258.73,290.13 A 1.42,1.42 0 0 1 257.11,291.26 1.35,1.35 0 0 1 255.93,289.73 1.42,1.42 0 0 1 257.55,288.59 1.36,1.36 0 0 1 258.73,290.13 Z"
         style="fill:#263238"
         id="path222" />
      <path
         d="M 259.82,288.54 C 259.61,288.69 258.71,287.7 257.22,287.4 255.73,287.1 254.48,287.64 254.36,287.4 254.24,287.16 254.54,287.01 255.08,286.76 A 3.91,3.91 0 0 1 257.42,286.52 3.71,3.71 0 0 1 259.42,287.65 C 259.83,288.12 259.92,288.47 259.82,288.54 Z"
         style="fill:#263238"
         id="path223" />
      <path
         d="M 244,287.71 A 1.41,1.41 0 0 1 242.39,288.84 1.35,1.35 0 0 1 241.21,287.31 1.41,1.41 0 0 1 242.82,286.17 1.35,1.35 0 0 1 244,287.71 Z"
         style="fill:#263238"
         id="path224" />
      <path
         d="M 245.09,285.89 C 244.88,286.03 243.98,285.04 242.49,284.75 241,284.46 239.75,284.98 239.63,284.75 239.51,284.52 239.8,284.36 240.35,284.11 A 3.91,3.91 0 0 1 242.69,283.87 3.71,3.71 0 0 1 244.69,285 C 245.1,285.46 245.19,285.82 245.09,285.89 Z"
         style="fill:#263238"
         id="path225" />
      <path
         d="M 248.29,298 A 9.91,9.91 0 0 1 250.81,298 C 251.19,298 251.57,298 251.69,297.78 A 2.07,2.07 0 0 0 251.69,296.6 C 251.51,295.6 251.33,294.6 251.14,293.47 250.4,289.03 249.95,285.4 250.14,285.37 250.33,285.34 251.06,288.93 251.8,293.37 251.97,294.47 252.14,295.51 252.3,296.51 A 2.33,2.33 0 0 1 252.2,298.04 1,1 0 0 1 251.46,298.48 3.39,3.39 0 0 1 250.79,298.48 9.6,9.6 0 0 1 248.29,298 Z"
         style="fill:#263238"
         id="path226" />
      <path
         d="M 243.69,298.19 C 243.94,298.19 243.62,299.85 244.78,301.28 245.94,302.71 247.69,302.87 247.66,303.1 247.63,303.33 247.21,303.34 246.48,303.21 A 4.15,4.15 0 0 1 244.05,301.78 3.58,3.58 0 0 1 243.25,299.22 C 243.32,298.53 243.58,298.16 243.69,298.19 Z"
         style="fill:#263238"
         id="path227" />
      <path
         d="M 246.64,280.11 C 246.41,280.49 244.96,280 243.17,279.86 241.38,279.72 239.86,279.91 239.7,279.5 239.63,279.31 239.96,278.98 240.61,278.7 A 5.79,5.79 0 0 1 243.3,278.32 5.64,5.64 0 0 1 245.89,279.16 C 246.48,279.55 246.74,279.93 246.64,280.11 Z"
         style="fill:#263238"
         id="path228" />
      <path
         d="M 260.13,284.11 C 259.8,284.4 258.84,283.84 257.61,283.57 256.38,283.3 255.28,283.35 255.11,282.94 255.04,282.75 255.27,282.44 255.79,282.21 A 3.76,3.76 0 0 1 259.79,283.15 C 260.21,283.59 260.28,284 260.13,284.11 Z"
         style="fill:#263238"
         id="path229" />
      <path
         d="M 228.26,287.83 C 228.11,287.73 221.98,284.53 220.86,291.21 219.74,297.89 226.69,297.63 226.73,297.44 226.77,297.25 228.26,287.83 228.26,287.83 Z"
         style="fill:#ffbe9d"
         id="path230" />
      <path
         d="M 225.11,294.57 C 225.11,294.57 224.98,294.63 224.77,294.69 A 1.15,1.15 0 0 1 223.9,294.56 2.9,2.9 0 0 1 223,291.76 4,4 0 0 1 223.6,290.14 1.36,1.36 0 0 1 224.6,289.4 0.59,0.59 0 0 1 225.23,289.83 C 225.29,290.03 225.23,290.16 225.23,290.18 225.23,290.2 225.39,290.09 225.38,289.8 A 0.75,0.75 0 0 0 225.19,289.34 0.92,0.92 0 0 0 224.57,289.06 1.67,1.67 0 0 0 223.18,289.9 4,4 0 0 0 222.47,291.69 3.06,3.06 0 0 0 223.69,294.86 1.24,1.24 0 0 0 224.78,294.86 C 225.07,294.73 225.13,294.59 225.11,294.57 Z"
         style="fill:#eb996e"
         id="path231" />
      <path
         d="M 269.23,272.29 C 268.56,281.09 257.29,282.91 253.41,277.29 251.62,274.69 250.2,271.57 247.41,270.07 A 8.05,8.05 0 0 0 241.22,269.69 H 241.15 C 238.15,270.69 236,273.57 235.06,276.58 233.75,280.76 233.8,284.65 232.06,288.4 A 2.77,2.77 0 0 1 230.98,289.78 C 230.07,290.23 228.98,289.52 228.45,288.66 A 8.34,8.34 0 0 1 227.51,283.97 27.77,27.77 0 0 1 229.73,273.21 18.83,18.83 0 0 1 236.73,264.85 17.92,17.92 0 0 1 250.02,262.65 22.06,22.06 0 0 1 261.67,269.65 12.91,12.91 0 0 1 264.81,275.16"
         style="fill:#263238"
         id="path232" />
      <path
         d="M 263,266.34 A 1.93,1.93 0 0 1 263.92,266.53 4.66,4.66 0 0 1 265.92,268.13 5.8,5.8 0 0 1 267.01,271.77 6.5,6.5 0 0 1 265.01,275.96 8.54,8.54 0 0 1 260.92,278.18 11.92,11.92 0 0 1 257.14,278.38 14.12,14.12 0 0 1 254.65,277.88 2.84,2.84 0 0 1 253.78,277.55 C 253.78,277.45 255.07,277.86 257.17,278.01 A 11.82,11.82 0 0 0 260.8,277.71 8.32,8.32 0 0 0 264.64,275.59 6.13,6.13 0 0 0 266.54,271.74 5.59,5.59 0 0 0 265.63,268.34 4.79,4.79 0 0 0 263.84,266.72 C 263.27,266.45 263,266.39 263,266.34 Z"
         style="fill:#455a64"
         id="path233" />
      <path
         d="M 259,262.53 C 259,262.53 259.26,262.53 259.62,262.75 A 2.16,2.16 0 0 1 260.42,264.35 3.89,3.89 0 0 1 259.48,266.82 11,11 0 0 1 257.22,269.07 11.78,11.78 0 0 1 251.94,271.3 5.55,5.55 0 0 1 249.56,271.3 C 249.56,271.21 250.47,271.24 251.87,270.94 A 12.84,12.84 0 0 0 256.87,268.65 12,12 0 0 0 259.06,266.53 3.75,3.75 0 0 0 260.01,264.36 2.06,2.06 0 0 0 259.45,262.9 C 259.21,262.63 259,262.57 259,262.53 Z"
         style="fill:#455a64"
         id="path234" />
      <path
         d="M 304.11,385 A 15.35,15.35 0 0 1 281.24,385 L 263.56,365.2 263.35,393.41 269.59,411.5 207.59,422.25 205,373.32 200.54,335.76 A 10.2,10.2 0 0 1 206.93,325.06 L 224,318.35 248,322.75 257.66,326.43 A 26.36,26.36 0 0 1 268.19,333.75 L 295.3,364.75"
         style="fill:#ff725e"
         id="path235" />
      <path
         d="M 263.92,392.19 C 264.07,392.19 264.1,382.41 264,370.37 263.9,358.33 263.71,348.55 263.56,348.55 263.41,348.55 263.38,358.32 263.48,370.37 263.58,382.42 263.78,392.19 263.92,392.19 Z"
         style="fill:#263238"
         id="path236" />
      <path
         d="M 261.65,399.36 224.19,384.28 A 8.54,8.54 0 0 1 218.86,376.99 L 216.12,341.08 C 216.12,341.08 216.44,325.81 206.9,325.08 L 201.47,327.22 C 194.47,330.95 192.72,341.16 193.68,349.04 195.03,360.24 195.6,376.1 197.12,385.82 198.36,393.77 202.92,400.77 210.7,402.82 L 256.83,412.82 Z"
         style="fill:#ff725e"
         id="path237" />
      <path
         d="M 216.65,346.56 A 4.52,4.52 0 0 1 216.77,347.38 Q 216.86,348.25 217.01,349.75 L 217.8,358.45 C 218.12,362.15 218.5,366.52 218.91,371.37 219.02,372.59 219.12,373.84 219.23,375.11 A 27.79,27.79 0 0 0 219.71,378.95 6.36,6.36 0 0 0 221.57,382.32 12.79,12.79 0 0 0 225.02,384.47 C 235.35,388.94 244.87,392.63 251.78,395.21 L 259.98,398.21 262.21,399.03 A 4.15,4.15 0 0 1 262.98,399.35 6,6 0 0 1 262.18,399.12 L 259.92,398.39 C 257.92,397.74 255.13,396.77 251.66,395.52 244.71,393.01 235.17,389.38 224.82,384.89 A 12.83,12.83 0 0 1 221.23,382.65 6.88,6.88 0 0 1 219.23,379.03 28.56,28.56 0 0 1 218.75,375.12 C 218.65,373.85 218.55,372.6 218.45,371.38 218.08,366.53 217.74,362.15 217.45,358.45 217.16,354.75 216.97,351.84 216.82,349.73 216.76,348.73 216.71,347.94 216.67,347.36 A 6.47,6.47 0 0 1 216.65,346.56 Z"
         style="fill:#263238"
         id="path238" />
      <path
         d="M 195.19,366.08 A 1.83,1.83 0 0 1 195.27,366.56 C 195.27,366.94 195.34,367.39 195.39,367.95 195.5,369.23 195.65,370.95 195.84,373.04 196.03,375.13 196.3,377.75 196.68,380.58 A 71.24,71.24 0 0 0 198.37,389.67 13.7,13.7 0 0 0 200.19,394.01 25.53,25.53 0 0 0 202.99,397.45 23.89,23.89 0 0 0 208.99,401.94 22.25,22.25 0 0 0 215.56,404.1 1.74,1.74 0 0 1 215.08,404.1 12,12 0 0 1 213.69,403.92 18.2,18.2 0 0 1 208.83,402.27 23.31,23.31 0 0 1 202.66,397.78 24.4,24.4 0 0 1 199.79,394.3 14,14 0 0 1 197.88,389.82 68.21,68.21 0 0 1 196.22,380.65 C 195.87,377.81 195.64,375.24 195.48,373.08 195.32,370.92 195.24,369.18 195.2,367.97 V 366.58 A 2.66,2.66 0 0 1 195.19,366.08 Z"
         style="fill:#263238"
         id="path239" />
      <path
         d="M 211.21,391.21 A 5.55,5.55 0 0 1 211.89,389.21 12.94,12.94 0 0 1 219.49,382.72 5.6,5.6 0 0 1 221.57,382.36 C 221.57,382.44 220.8,382.6 219.57,383.06 A 14.78,14.78 0 0 0 215.32,385.58 15,15 0 0 0 212.16,389.38 C 211.57,390.48 211.29,391.24 211.21,391.21 Z"
         style="fill:#263238"
         id="path240" />
      <g
         style="opacity:0.3"
         id="g241">
        <path
           d="M 250.89,395.07 C 246.89,392.81 242.96,391.07 238.77,389.17 234.58,387.27 230.49,384.83 227.77,381.17 222.61,374.17 223.19,364.17 217.9,357.27 Q 218.42,364.21 218.9,371.14 C 219.22,375.38 218.57,379.57 221.3,382.45 223.6,384.87 228.08,386.73 231.25,387.78 237.63,389.89 244.5,393.01 250.88,395.11"
           id="path241" />
      </g>
      <path
         d="M 222.49,320.05 224.32,313.18 247.6,318.65 A 2.34,2.34 0 0 1 249.3,321.59 L 247.52,327.65 239.12,338.43 229.59,336.73 222.49,331.28 Z"
         style="fill:#ff725e"
         id="path242" />
      <path
         d="M 248,323.17 A 2.75,2.75 0 0 1 247.18,323.36 20.89,20.89 0 0 1 244.9,323.58 27.28,27.28 0 0 1 230.33,320.08 18.26,18.26 0 0 1 228.4,318.85 C 227.96,318.53 227.73,318.34 227.75,318.31 227.77,318.28 228.8,318.89 230.51,319.76 A 31.49,31.49 0 0 0 244.89,323.21 C 246.84,323.21 248,323.08 248,323.17 Z"
         style="fill:#263238"
         id="path243" />
      <path
         d="M 230.7,320.07 C 230.7,320.07 230.38,319.88 230.14,319.36 A 3.51,3.51 0 0 1 229.96,317.19 3.47,3.47 0 0 1 231.08,315.32 C 231.53,314.96 231.88,314.88 231.9,314.93 231.92,314.98 231.67,315.2 231.34,315.58 A 4.18,4.18 0 0 0 230.47,317.31 4.12,4.12 0 0 0 230.47,319.24 C 230.61,319.73 230.77,320 230.7,320.07 Z"
         style="fill:#f5f5f5"
         id="path244" />
      <path
         d="M 240.71,323.47 A 9.09,9.09 0 0 0 239.99,316.89 C 239.99,316.89 240.34,317.11 240.69,317.67 A 5.82,5.82 0 0 1 241.49,320.06 5.94,5.94 0 0 1 241.23,322.57 C 241,323.18 240.77,323.5 240.71,323.47 Z"
         style="fill:#f5f5f5"
         id="path245" />
      <path
         d="M 241.52,391.14 A 3.08,3.08 0 0 1 241.52,390.44 C 241.52,389.98 241.66,389.31 241.69,388.44 A 54.47,54.47 0 0 0 241.69,381.07 100.45,100.45 0 0 0 240.31,370.23 C 239.61,366.17 238.69,361.72 237.95,357.01 A 142.89,142.89 0 0 1 236.28,332.66 C 236.34,329.54 236.48,327.01 236.62,325.27 236.68,324.4 236.76,323.73 236.81,323.27 A 3.6,3.6 0 0 1 236.91,322.57 3.22,3.22 0 0 1 236.91,323.28 C 236.91,323.79 236.91,324.45 236.82,325.28 236.75,327.03 236.66,329.55 236.65,332.67 A 154.17,154.17 0 0 0 238.47,356.93 C 239.21,361.62 240.11,366.07 240.78,370.15 A 96,96 0 0 1 242.06,381.05 47.56,47.56 0 0 1 241.91,388.46 C 241.85,389.33 241.71,390 241.65,390.46 A 3.57,3.57 0 0 1 241.52,391.14 Z"
         style="fill:#f5f5f5"
         id="path246" />
      <path
         d="M 253,324.52 A 0.62,0.62 0 0 1 253.07,324.7 Q 253.13,324.88 253.22,325.24 A 13,13 0 0 1 253.49,327.37 C 253.61,329.24 253.35,331.92 253.2,335.23 253.05,338.54 252.87,342.49 253,346.87 A 67,67 0 0 0 254.76,361 C 255.92,365.91 257.27,370.58 257.76,375 A 68.33,68.33 0 0 1 258.15,386.68 C 257.98,390 257.68,392.68 257.44,394.51 257.32,395.43 257.21,396.15 257.13,396.63 A 6.48,6.48 0 0 1 256.99,397.36 3.27,3.27 0 0 1 256.99,396.61 C 256.99,396.08 257.11,395.37 257.2,394.49 257.38,392.64 257.62,389.97 257.74,386.66 A 71.68,71.68 0 0 0 257.24,375.06 C 256.73,370.72 255.37,366.06 254.24,361.15 A 66,66 0 0 1 252.48,346.96 C 252.38,342.56 252.58,338.6 252.8,335.29 253.02,331.98 253.3,329.29 253.25,327.46 A 15.06,15.06 0 0 0 253.07,325.34 7.22,7.22 0 0 1 253,324.52 Z"
         style="fill:#f5f5f5"
         id="path247" />
      <path
         d="M 274.31,364.53 A 8.5,8.5 0 0 1 272.49,363.08 41.14,41.14 0 0 1 268.61,359.03 42.86,42.86 0 0 1 265.27,354.52 8.46,8.46 0 0 1 264.15,352.52 C 264.28,352.44 266.15,355.41 269,358.73 271.85,362.05 274.41,364.42 274.31,364.53 Z"
         style="fill:#f5f5f5"
         id="path248" />
      <path
         d="M 287.12,361.49 A 8.62,8.62 0 0 1 286,360.4 C 285.32,359.68 284.36,358.62 283.2,357.29 280.86,354.63 277.73,350.88 274.43,346.61 271.13,342.34 268.3,338.34 266.32,335.41 265.32,333.94 264.55,332.75 264.03,331.91 A 8.94,8.94 0 0 1 263.25,330.58 8.25,8.25 0 0 1 264.25,331.79 L 266.68,335.2 C 268.68,338.07 271.6,342.02 274.89,346.29 278.18,350.56 281.27,354.29 283.53,357.05 L 286.2,360.27 A 8.55,8.55 0 0 1 287.12,361.49 Z"
         style="fill:#f5f5f5"
         id="path249" />
      <path
         d="M 223.75,384.49 A 3.57,3.57 0 0 1 223.36,383.94 12.08,12.08 0 0 1 222.52,382.17 17.46,17.46 0 0 1 221.64,375.09 C 221.78,372.09 222.64,368.54 223.15,364.61 A 71.33,71.33 0 0 0 223.29,351.72 C 222.99,347.14 222.54,342.78 222.37,338.79 A 63.48,63.48 0 0 1 222.68,328.19 36,36 0 0 1 224.2,321.19 17.47,17.47 0 0 1 224.89,319.37 3.2,3.2 0 0 1 225.18,318.75 C 225.18,318.75 224.86,319.63 224.4,321.25 A 38.5,38.5 0 0 0 223.05,328.25 67.32,67.32 0 0 0 222.85,338.79 C 223.04,342.79 223.51,347.11 223.85,351.71 A 68.67,68.67 0 0 1 223.66,364.71 C 223.14,368.71 222.23,372.16 222.05,375.15 A 18,18 0 0 0 222.75,382.15 20.6,20.6 0 0 0 223.75,384.49 Z"
         style="fill:#f5f5f5"
         id="path250" />
      <path
         d="M 212.76,387.91 A 8.36,8.36 0 0 1 210.3,386.49 14.12,14.12 0 0 1 206.03,380.09 19.58,19.58 0 0 1 205.03,374.82 34.24,34.24 0 0 1 205.34,368.68 C 205.91,364.39 207.06,359.79 207.43,354.85 A 74.05,74.05 0 0 0 207.31,340.91 C 207.1,338.77 206.88,336.72 206.88,334.79 A 17.85,17.85 0 0 1 207.57,329.47 10.76,10.76 0 0 1 212.12,323.33 7.49,7.49 0 0 1 214.12,322.53 5.68,5.68 0 0 1 214.85,322.43 9.39,9.39 0 0 0 212.27,323.5 10.77,10.77 0 0 0 207.96,329.58 17.75,17.75 0 0 0 207.35,334.79 C 207.35,336.69 207.6,338.72 207.83,340.86 A 73.28,73.28 0 0 1 207.99,354.86 C 207.61,359.86 206.45,364.47 205.86,368.71 A 32.54,32.54 0 0 0 205.51,374.76 18.9,18.9 0 0 0 206.42,379.93 14.26,14.26 0 0 0 210.47,386.29 18,18 0 0 0 212.76,387.91 Z"
         style="fill:#f5f5f5"
         id="path251" />
      <path
         d="M 255.66,403 A 12,12 0 0 1 254,402.33 L 249.55,400.39 C 245.79,398.78 240.55,396.63 234.67,394.52 228.79,392.41 223.38,390.74 219.44,389.6 L 214.78,388.27 A 10,10 0 0 1 213.08,387.73 13.24,13.24 0 0 1 214.83,388.07 C 215.95,388.32 217.56,388.72 219.54,389.25 223.54,390.3 228.95,391.92 234.85,394.03 240.75,396.14 245.97,398.35 249.7,400.03 251.57,400.88 253.07,401.6 254.09,402.12 A 10,10 0 0 1 255.66,403 Z"
         style="fill:#f5f5f5"
         id="path252" />
      <path
         d="M 207.31,401 C 207.31,401 207.24,401 207.14,400.92 A 3.52,3.52 0 0 1 206.67,400.64 11.83,11.83 0 0 1 205.05,399.31 19.7,19.7 0 0 1 200.72,392.97 8.34,8.34 0 0 1 200.16,390.45 C 200.06,389.57 199.96,388.66 199.85,387.71 199.65,385.82 199.42,383.8 199.19,381.71 A 129.65,129.65 0 0 0 197,367.92 75.31,75.31 0 0 1 195.5,354.04 C 195.39,349.75 195.57,345.89 195.77,342.66 195.97,339.43 196.2,336.81 196.37,335.01 196.46,334.15 196.53,333.46 196.59,332.94 A 3.14,3.14 0 0 1 196.7,332.22 5.75,5.75 0 0 1 196.7,332.95 C 196.7,333.47 196.63,334.16 196.59,335.03 196.48,336.83 196.3,339.45 196.15,342.68 196,345.91 195.86,349.76 195.99,354.03 A 77.84,77.84 0 0 0 197.52,367.81 125.59,125.59 0 0 1 199.65,381.59 C 199.86,383.72 200.07,385.74 200.26,387.64 200.36,388.58 200.45,389.5 200.54,390.38 A 7.9,7.9 0 0 0 201.05,392.81 20.23,20.23 0 0 0 205.18,399.14 14.27,14.27 0 0 0 206.71,400.53 4.76,4.76 0 0 1 207.31,401 Z"
         style="fill:#f5f5f5"
         id="path253" />
      <path
         d="M 316,447.85 C 316,447.85 347.34,456.53 348.6,456.97 350.48,457.63 350.17,464.55 347.23,464.44 345.84,464.39 323.16,465.29 320.29,465.11 317.42,464.93 308.78,461.52 308.78,461.52 Z"
         style="fill:#ff725e"
         id="path254" />
      <path
         d="M 329,459.81 A 13.75,13.75 0 0 1 332.6,453.56 7,7 0 0 0 329,459.81 Z"
         style="fill:#263238"
         id="path255" />
      <path
         d="M 325.76,458.33 C 325.91,458.33 326.23,456.88 327.06,455.24 327.89,453.6 328.88,452.46 328.77,452.35 A 7.79,7.79 0 0 0 325.77,458.35 Z"
         style="fill:#263238"
         id="path256" />
      <path
         d="M 322.69,457.51 A 22,22 0 0 1 323.42,454.2 21.1,21.1 0 0 1 325.13,451.27 5.91,5.91 0 0 0 322.69,457.51 Z"
         style="fill:#263238"
         id="path257" />
      <path
         d="M 323.25,453.46 A 5.65,5.65 0 0 0 323.58,451.13 11,11 0 0 0 323.27,448.57 11.08,11.08 0 0 0 322.8,447.12 1.76,1.76 0 0 0 322.3,446.35 0.85,0.85 0 0 0 321.22,446.35 1.39,1.39 0 0 0 320.8,447.24 7.94,7.94 0 0 0 320.8,448.07 6.81,6.81 0 0 0 321,449.6 9.29,9.29 0 0 0 322,452 6,6 0 0 0 323.41,453.88 C 323.48,453.83 322.96,453.1 322.33,451.83 A 10.19,10.19 0 0 1 321.51,449.5 6.69,6.69 0 0 1 321.36,448.06 C 321.36,447.58 321.36,446.98 321.65,446.75 A 0.3,0.3 0 0 1 322.06,446.75 1.29,1.29 0 0 1 322.4,447.29 10.44,10.44 0 0 1 322.88,448.68 12.29,12.29 0 0 1 323.29,451.12 C 323.3,452.56 323.16,453.45 323.25,453.46 Z"
         style="fill:#263238"
         id="path258" />
      <path
         d="M 323.21,453.14 A 4.6,4.6 0 0 0 321.21,452.82 9,9 0 0 0 318.98,453.09 4.89,4.89 0 0 0 317.7,453.56 1.32,1.32 0 0 0 317,455 1.58,1.58 0 0 0 318.13,456.12 2.92,2.92 0 0 0 319.54,456.12 5.48,5.48 0 0 0 321.54,455.12 5.33,5.33 0 0 0 322.99,453.68 15.57,15.57 0 0 0 321.32,454.81 5.29,5.29 0 0 1 319.4,455.64 2.4,2.4 0 0 1 318.24,455.64 1,1 0 0 1 317.48,454.89 0.8,0.8 0 0 1 318,454 4.49,4.49 0 0 1 319.14,453.56 9.58,9.58 0 0 1 321.25,453.19 C 322.43,453.1 323.2,453.23 323.21,453.14 Z"
         style="fill:#263238"
         id="path259" />
      <path
         d="M 333.84,460.15 A 15.94,15.94 0 0 1 334.46,457.32 16.41,16.41 0 0 1 335.99,454.87 4.49,4.49 0 0 0 333.84,460.15 Z"
         style="fill:#263238"
         id="path260" />
      <path
         d="M 312,461.59 A 5.9,5.9 0 0 0 313.21,462.16 27.7,27.7 0 0 0 316.7,463.25 50.06,50.06 0 0 0 328.7,464.38 C 333.39,464.33 337.62,464.11 340.7,463.99 L 344.34,463.8 A 7.81,7.81 0 0 0 345.67,463.66 6.29,6.29 0 0 0 344.33,463.59 H 340.69 L 328.69,463.82 A 55.67,55.67 0 0 1 316.81,462.82 C 313.76,462.27 312,461.5 312,461.59 Z"
         style="fill:#263238"
         id="path261" />
      <path
         d="M 311.05,462.31 C 311.05,462.38 311.95,461.88 313.39,461.24 A 10.9,10.9 0 0 1 319.32,460.24 9.37,9.37 0 0 1 324.45,463.29 16.38,16.38 0 0 0 326.26,465.13 10,10 0 0 0 324.72,463.04 12.43,12.43 0 0 0 322.64,461.09 7.46,7.46 0 0 0 319.41,459.72 10.33,10.33 0 0 0 313.24,460.89 7.93,7.93 0 0 0 311.05,462.31 Z"
         style="fill:#263238"
         id="path262" />
      <path
         d="M 282.7,439.2 C 282.7,439.2 253.05,458.62 252,459.42 250.41,460.63 252.24,466.37 255,465.42 256.3,464.95 281.19,458.03 283.87,456.99 286.55,455.95 293.74,450.07 293.74,450.07 Z"
         style="fill:#ff725e"
         id="path263" />
      <path
         d="M 273.9,454.56 A 7,7 0 0 0 268.57,449.7 28.6,28.6 0 0 1 271.57,451.77 30.82,30.82 0 0 1 273.9,454.56 Z"
         style="fill:#263238"
         id="path264" />
      <path
         d="M 276.56,452.16 A 5.89,5.89 0 0 0 274.75,449.24 6,6 0 0 0 271.87,447.37 C 271.8,447.51 273.1,448.29 274.38,449.61 275.66,450.93 276.42,452.23 276.56,452.16 Z"
         style="fill:#263238"
         id="path265" />
      <path
         d="M 279.23,450.44 A 5.89,5.89 0 0 0 275.01,445.24 21.41,21.41 0 0 1 277.53,447.51 20.55,20.55 0 0 1 279.23,450.44 Z"
         style="fill:#263238"
         id="path266" />
      <path
         d="M 277.47,446.75 C 277.55,446.75 277.14,445.91 276.8,444.54 A 12.64,12.64 0 0 1 276.45,442.08 12,12 0 0 1 276.45,440.62 1.35,1.35 0 0 1 276.62,439.99 0.29,0.29 0 0 1 277.02,439.9 C 277.36,440.03 277.54,440.61 277.7,441.06 A 7.37,7.37 0 0 1 277.99,442.47 10.33,10.33 0 0 1 277.91,444.94 C 277.7,446.35 277.42,447.2 277.51,447.23 A 6.36,6.36 0 0 0 278.28,445.01 9.35,9.35 0 0 0 278.47,442.43 7.76,7.76 0 0 0 278.19,440.91 C 278.11,440.65 278.01,440.4 277.9,440.13 A 1.43,1.43 0 0 0 277.23,439.42 0.82,0.82 0 0 0 276.23,439.69 1.78,1.78 0 0 0 275.98,440.58 11.16,11.16 0 0 0 276.45,444.63 5.45,5.45 0 0 0 277.47,446.75 Z"
         style="fill:#263238"
         id="path267" />
      <path
         d="M 277.41,446.44 C 277.41,446.51 278.14,446.16 279.34,445.87 A 11.19,11.19 0 0 1 281.46,445.58 4.48,4.48 0 0 1 282.68,445.66 0.81,0.81 0 0 1 283.39,446.35 1.06,1.06 0 0 1 282.89,447.29 2.52,2.52 0 0 1 281.79,447.66 5.52,5.52 0 0 1 279.7,447.45 13.91,13.91 0 0 0 277.77,446.88 5.69,5.69 0 0 0 279.59,447.81 5.62,5.62 0 0 0 281.84,448.14 3,3 0 0 0 283.18,447.72 1.57,1.57 0 0 0 283.91,446.31 1.32,1.32 0 0 0 282.8,445.16 4.89,4.89 0 0 0 281.44,445.1 9.09,9.09 0 0 0 279.24,445.51 4.4,4.4 0 0 0 277.41,446.44 Z"
         style="fill:#263238"
         id="path268" />
      <path
         d="M 258.76,464.3 C 258.76,464.3 259.26,464 259.49,463.15 A 4.36,4.36 0 0 0 258.93,459.93 10.87,10.87 0 0 0 257.93,458.45 5.29,5.29 0 0 0 256.93,457.37 1.74,1.74 0 0 0 255.99,456.97 C 255.74,456.97 255.61,456.97 255.62,457.05 A 2.68,2.68 0 0 1 256.69,457.65 7,7 0 0 1 257.55,458.73 15.1,15.1 0 0 1 258.47,460.18 4.59,4.59 0 0 1 259.13,463.07 12.77,12.77 0 0 1 258.76,464.3 Z"
         style="fill:#263238"
         id="path269" />
      <path
         d="M 269.41,456.34 A 3.6,3.6 0 0 0 268.41,453.5 3.7,3.7 0 0 0 265.8,451.96 C 265.74,452.11 266.99,452.6 268,453.84 A 16,16 0 0 1 269.41,456.34 Z"
         style="fill:#263238"
         id="path270" />
      <path
         d="M 290.68,451.08 A 10.68,10.68 0 0 0 289.38,451.97 35.09,35.09 0 0 1 285.72,454.21 47.3,47.3 0 0 1 279.92,456.8 C 277.67,457.64 275.15,458.43 272.49,459.2 267.15,460.73 262.32,462.14 258.84,463.2 L 254.72,464.46 A 9.92,9.92 0 0 0 253.23,464.99 7.94,7.94 0 0 0 254.77,464.66 L 258.94,463.55 C 262.45,462.55 267.3,461.25 272.64,459.71 275.3,458.94 277.83,458.13 280.09,457.26 A 42.74,42.74 0 0 0 285.9,454.55 29.84,29.84 0 0 0 289.5,452.15 7.43,7.43 0 0 0 290.68,451.08 Z"
         style="fill:#263238"
         id="path271" />
      <path
         d="M 291.78,451.48 A 8,8 0 0 0 289.27,450.81 10.38,10.38 0 0 0 283.04,451.57 7.37,7.37 0 0 0 280.37,453.86 12.76,12.76 0 0 0 278.98,456.34 9.64,9.64 0 0 0 278.16,458.81 20.09,20.09 0 0 0 279.32,456.5 9.34,9.34 0 0 1 283.27,452.04 10.94,10.94 0 0 1 289.27,451.18 C 290.8,451.34 291.77,451.56 291.78,451.48 Z"
         style="fill:#263238"
         id="path272" />
      <path
         d="M 344.33,391.85 C 344.33,391.85 353.23,395.02 353.27,405 353.34,424.11 314.66,445.17 314.66,445.17 L 263.18,411.06 259.96,409.76 C 259.96,409.76 329.44,383.66 344.33,391.85 Z"
         style="fill:#263238"
         id="path273" />
      <path
         d="M 289.26,428.29 A 9.8,9.8 0 0 0 290.6,427.38 C 291.44,426.77 292.6,425.86 294.12,424.72 297.07,422.45 301.12,419.22 305.39,415.51 309.66,411.8 313.5,408.33 316.2,405.76 317.55,404.48 318.63,403.43 319.36,402.69 A 9.85,9.85 0 0 0 320.46,401.5 8,8 0 0 0 319.22,402.5 L 316,405.49 C 313.24,407.99 309.4,411.42 305.1,415.12 300.8,418.82 296.82,422.12 293.94,424.43 L 290.52,427.22 A 9.43,9.43 0 0 0 289.26,428.29 Z"
         style="fill:#455a64"
         id="path274" />
      <path
         d="M 329.8,399 A 12.78,12.78 0 0 0 320.43,401.76 C 320.52,401.9 322.43,400.71 324.99,399.95 327.55,399.19 329.8,399.15 329.8,399 Z"
         style="fill:#455a64"
         id="path275" />
      <path
         d="M 325.37,396 A 6.1,6.1 0 0 0 322.32,398.29 6.17,6.17 0 0 0 320.71,401.76 C 320.86,401.81 321.43,400.21 322.71,398.62 323.99,397.03 325.45,396.11 325.37,396 Z"
         style="fill:#455a64"
         id="path276" />
      <path
         d="M 347.16,456.48 C 347.16,456.42 346.55,456.3 345.84,456.88 A 4.76,4.76 0 0 0 344.35,459.88 5.83,5.83 0 0 0 344.82,463.18 C 345.18,463.96 345.58,464.32 345.63,464.29 345.68,464.26 345.42,463.8 345.16,463.04 A 6.71,6.71 0 0 1 344.87,459.95 5.17,5.17 0 0 1 346.08,457.17 3.83,3.83 0 0 1 347.16,456.48 Z"
         style="fill:#263238"
         id="path277" />
      <polygon
         points="233.76,404.12 261.43,403.12 274.72,361.89 332.49,360.63 314.16,407.1 235.22,408.39 "
         style="fill:#455a64"
         id="polygon277" />
      <path
         d="M 295.63,380.75 A 3.5,3.5 0 0 1 299.42,381.15 3.07,3.07 0 0 1 300.17,384.52 3.35,3.35 0 0 1 297.32,386.52 3,3 0 0 1 294.32,384.52 3.37,3.37 0 0 1 295.65,380.75"
         style="fill:#ebebeb"
         id="path278" />
      <path
         d="M 319.53,447.49 C 319.53,447.49 246.8,399.79 243.83,398.8 240.86,397.81 233.65,393.09 226.46,395.07 219.27,397.05 212.81,403.51 209.58,412.94 207.74,418.33 206.87,427.52 206.46,434.41 A 31.86,31.86 0 0 0 213.91,457.13 20.44,20.44 0 0 0 222.98,463.57 C 223.74,463.8 224.52,464 225.33,464.18 A 34.21,34.21 0 0 0 260.94,449.23 L 262.63,446.65 C 262.63,446.65 310.21,464.12 310.95,463.88 Z"
         style="fill:#263238"
         id="path279" />
      <path
         d="M 229.56,434.36 C 229.56,434.36 229.69,434.43 229.96,434.54 L 231.15,435.01 235.76,436.78 252.89,443.24 C 260.17,445.96 268.89,449.18 278.67,452.74 288.45,456.3 299.29,460.2 310.87,464.12 L 311.08,464.19 311.19,464 C 313,460.53 314.92,456.86 316.87,453.15 L 319.76,447.61 319.87,447.4 319.67,447.27 264.2,412.06 247.53,401.54 243,398.72 241.82,398 241.41,397.77 A 4.53,4.53 0 0 0 241.79,398.04 L 242.94,398.81 247.42,401.71 264,412.36 319.38,447.71 319.29,447.37 316.39,452.9 C 314.45,456.62 312.53,460.28 310.71,463.76 L 311.03,463.63 C 299.46,459.72 288.61,455.84 278.82,452.31 L 253,442.91 235.81,436.61 231.17,434.92 229.96,434.49 Z"
         style="fill:#455a64"
         id="path280" />
    </g>
  </g>
</svg>
